<svg width="106" height="63" viewBox="0 0 106 63" fill="none" xmlns="http://www.w3.org/2000/svg">
<path d="M47.14 33.9373C47.14 33.2073 47.75 31.9373 48.29 32.3573C47.75 31.9773 47.76 31.9873 47.86 30.9473C48.22 31.1973 48.56 30.4273 48.86 29.9473C48.36 30.1573 47.99 30.6373 47.26 31.5873C47.47 33.0273 45.04 34.1473 45.34 35.5873C45.9 35.0873 46.85 34.8373 47.14 33.9373Z" fill="#FD9254"/>
<path d="M52.23 31.3174L52.09 31.0374L51.41 32.8774C51.44 32.4374 51.93 31.1974 52.23 31.3174Z" fill="#FD9254"/>
<path d="M54.95 25.7172C55.26 26.1272 56.03 25.4572 56.38 25.7172C55.56 25.2172 57.05 24.3272 57.38 23.5772L56.96 22.8772C56.05 23.2572 55.1 25.1072 54.1 26.5472L54.95 25.7172Z" fill="#FD9254"/>
<path d="M56.27 24.7073L56.18 23.9773C56.03 24.4373 55.51 25.3673 56.27 24.7073Z" fill="#FD9254"/>
<path d="M53.44 24.2672C52.64 25.3872 54.16 23.7472 53.54 24.9972C53.73 24.5372 53.95 24.0272 53.44 24.2672Z" fill="#FD9254"/>
<path d="M57.9 20.3174C57.43 21.1774 56.98 22.0474 56.54 22.9274L57.48 22.1074L57.9 20.3174Z" fill="#FD9254"/>
<path d="M59.28 21.0972C59.06 21.3972 58.5 21.7372 58.6 21.1472C59.66 20.6272 59.38 19.6372 60.34 19.1472L60.01 20.0472C60.58 20.3072 60.62 18.1172 61.48 18.8172C61.62 17.3572 60.16 19.0072 60.7 17.3872C60.0041 18.5178 59.1561 19.5474 58.18 20.4472C58.5078 20.271 58.8133 20.0561 59.09 19.8072C58.58 20.5672 58.15 21.8072 57.61 22.6872C58.52 22.5972 58.44 21.5972 59.28 21.0972Z" fill="#FD9254"/>
<path d="M62.12 17.4772C62.77 16.7472 63.72 15.5872 63.26 14.8672C62.14 15.2972 62.58 15.8672 62.56 16.4672C62.26 16.6072 61.61 17.3472 61.51 16.7672C61.73 16.7572 61.61 17.6472 62.12 17.4772Z" fill="#FD9254"/>
<path d="M64.65 14.6074L64.55 13.6074L64.35 14.0374L63.91 13.7274C64.071 13.9947 64.1459 14.3051 64.1244 14.6163C64.103 14.9276 63.9862 15.2248 63.79 15.4674C64.43 15.3174 64.17 14.8774 64.65 14.6074Z" fill="#FD9254"/>
<path d="M62.04 12.0274C62.76 11.7274 62.88 11.2974 63.26 10.5574C62.55 11.4274 61.52 12.6174 61.54 13.0674V12.9174C61.3181 13.5401 61.1769 14.1887 61.12 14.8474C61.36 13.6674 63.27 12.6674 62.04 12.0274Z" fill="#FD9254"/>
<path d="M61.08 13.0973L61.28 12.1973L61.08 13.0973Z" fill="#FD9254"/>
<path d="M66.52 12.2473C66.12 12.5473 65.74 12.8773 65.34 13.1873L65.73 13.0273C66.01 12.7973 66.25 12.5073 66.52 12.2473Z" fill="#FD9254"/>
<path d="M63.67 12.0874C64.58 11.2374 62.78 12.2074 63.58 11.3474C63.72 11.0574 62.43 12.6474 62.66 12.9574C62.95 12.8074 63.11 11.7774 63.67 12.0874Z" fill="#FD9254"/>
<path d="M67.24 11.5974C67.39 11.1774 67.54 10.7474 67.72 10.3374C67.54 10.7474 67.39 11.1774 67.24 11.5974Z" fill="#FD9254"/>
<path d="M69.67 9.74727L69.59 9.29727C70.1437 8.96282 70.6629 8.57425 71.14 8.13727C71.5787 7.72006 72.1647 7.49355 72.77 7.50726C72.32 7.23726 72.57 6.39726 71.65 6.92726C71.65 7.22726 71.39 7.45727 71.65 7.65727C71.25 7.85727 71.1 7.52727 70.78 7.65727C70.45 8.46727 69.35 9.00727 69.14 9.65727C69.3 9.38727 69.43 9.41727 69.62 9.30727C69.12 10.6673 67.83 9.62726 68.19 10.8373C68.26 10.2673 69.34 10.2673 69.67 9.74727Z" fill="#FD9254"/>
<path d="M67.8 7.82731L66.9 8.46731C66.79 7.84731 67.9 7.52731 67.69 7.05731C67.42 6.86731 66.5 7.51731 66.69 7.05731C67.42 8.05731 65.63 8.1573 66.99 8.7573C66.07 9.8373 66.13 8.49731 65.13 9.62731L65.3 10.3773C66.19 9.02731 66.82 9.20731 67.8 7.82731Z" fill="#FD9254"/>
<path d="M71.2 5.29733H71.87L71.3 4.99733C71.7576 4.65688 72.2826 4.41821 72.84 4.29733C73.3555 4.21374 73.8783 4.18357 74.4 4.20732C75.4 4.20732 76.23 4.37733 76.78 3.90733C77.0551 3.54846 77.426 3.2746 77.85 3.11732C78.2484 2.95537 78.6647 2.84125 79.09 2.77733L80.4 2.64732C80.62 2.64732 80.83 2.58732 81.04 2.53732C81.2573 2.51089 81.4716 2.46401 81.68 2.39732C82.41 1.72732 80.79 2.27733 80.63 2.04733C80.63 1.04733 81.63 2.33733 81.8 1.46733C81.8 1.10733 81.27 1.02733 80.65 1.01733C80.0529 1.0898 79.4506 1.10988 78.85 1.07733C78.2 1.38733 78.3 1.62733 78.24 2.07733C77.94 1.77733 77.24 1.94733 76.9 1.65733C76.4218 2.08917 75.8393 2.38901 75.21 2.52733C74.8938 2.58194 74.5915 2.69837 74.3204 2.86996C74.0493 3.04156 73.8147 3.26495 73.63 3.52733C72.96 3.30733 74.51 2.86733 74.05 3.04733L73.38 3.47733H73.5C73.3155 3.74535 73.0853 3.9789 72.82 4.16733C72.5346 4.38967 72.2262 4.58077 71.9 4.73734C71.3598 5.00228 70.7934 5.21007 70.21 5.35733C70.75 5.16733 71.3 5.29732 70.9 5.81732L70.11 5.64732C69.94 6.17732 69.75 6.64732 69.61 7.20732C70.04 6.09732 71.73 6.32733 71.2 5.29733Z" fill="#FD9254"/>
<path d="M69.3 5.34741C67.78 6.13741 70.02 5.92741 68.45 6.87741L69.15 6.2274L69.89 5.6174L69.3 5.34741Z" fill="#FD9254"/>
<path d="M76.83 2.4172L77.75 2.4972C77.6814 2.44069 77.6021 2.39841 77.517 2.37282C77.4318 2.34724 77.3425 2.33886 77.254 2.34816C77.1656 2.35747 77.0799 2.38428 77.002 2.42704C76.924 2.46979 76.8554 2.52764 76.8 2.5972C76.61 2.7972 76.57 2.9272 76.83 2.4172Z" fill="#FD9254"/>
<path d="M79.63 1.34741L79.47 2.2274L80.05 1.57741L79.63 1.34741Z" fill="#FD9254"/>
<path d="M82.46 1.58726C82.96 1.05726 82.2 0.88726 81.54 1.14726C82.16 1.02726 82.54 1.29726 82.46 1.58726Z" fill="#FD9254"/>
<path d="M86.78 2.65723C86.16 2.65723 86.44 2.72723 86.78 2.84723C87.12 2.96723 87.44 3.23722 87.01 3.57722C87.13 3.24722 87.73 2.81723 86.78 2.65723Z" fill="#FD9254"/>
<path d="M90.37 4.87741C89.96 4.92741 89.82 4.7774 89.79 4.5874C89.9025 4.58779 90.0134 4.61417 90.114 4.66447C90.2146 4.71478 90.3022 4.78765 90.37 4.87741Z" fill="#FD9254"/>
<path d="M75.59 5.21729C75.4643 5.30089 75.3302 5.37125 75.19 5.42728L75.59 5.21729Z" fill="#FD9254"/>
<path d="M75.84 5.07739L75.59 5.21739L75.84 5.07739Z" fill="#FD9254"/>
<path d="M84.94 3.9174L84.84 3.84741L84.94 3.9174Z" fill="#FD9254"/>
<path d="M54.59 28.2473C54.5167 28.442 54.4193 28.6268 54.3 28.7973C54.4 28.6173 54.49 28.4273 54.58 28.2473H54.59Z" fill="#FD9254"/>
<path d="M53.28 28.2573C53.43 27.0673 54.91 27.9173 55.56 26.2573C55.26 26.9173 54.93 27.5873 54.56 28.2573C53.37 28.6773 54.65 27.3673 53.28 28.2573Z" fill="#FD9254"/>
<path d="M60.91 15.5274C60.9156 15.5078 60.9156 15.487 60.91 15.4674C60.98 15.3674 60.97 15.4274 60.91 15.5274Z" fill="#FD9254"/>
<path d="M19.99 60.5474L20 60.7674L18.98 60.5874L19.99 60.5474Z" fill="#FD9254"/>
<path d="M20.17 60.9273C20.75 61.0073 21.34 61.0173 21.93 61.0673C18.5415 61.8109 15.027 61.763 11.66 60.9273L12.06 60.7273C12.06 60.7273 12.18 60.7273 12.4 60.7273C12.62 60.7273 12.94 60.7873 13.33 60.8573C13.72 60.9273 14.16 61.0273 14.65 61.0673L16.18 61.2173C18.28 61.3273 20.34 61.0773 20.17 60.9273Z" fill="#FD9254"/>
<path d="M20.6 60.5272C21.39 59.4572 22.26 60.6072 23.26 59.6572C22.93 59.9572 22.66 60.2672 22.36 60.4872C22.0709 60.6964 21.7151 60.7925 21.36 60.7572L20.6 60.5272Z" fill="#FD9254"/>
<path d="M23.37 58.1373C23.91 58.2073 24.37 57.6073 24.65 57.6573C24.73 58.3673 23.81 58.1473 23.37 58.1373Z" fill="#FD9254"/>
<path d="M23.78 55.2272C23.8395 55.1922 23.9034 55.1652 23.97 55.1472C23.9129 55.2082 23.8626 55.2753 23.82 55.3472L23.78 55.2272Z" fill="#FD9254"/>
<path d="M23.82 55.3474L23.91 55.6474C23.73 55.5774 23.73 55.4674 23.82 55.3474Z" fill="#FD9254"/>
<path d="M23.97 55.1472C24.1174 55.011 24.2423 54.8524 24.34 54.6772H24.15C24.37 54.5372 24.68 54.1072 24.86 54.2272C24.38 54.3772 24.45 54.5872 24.59 54.9972L25.39 54.7172C25.64 55.7372 24.73 55.0272 23.97 55.1472Z" fill="#FD9254"/>
<path d="M26.3 53.9072C26.14 54.2272 25.95 54.5072 25.77 54.8072C25.31 54.3672 26.02 54.0272 26.3 53.9072Z" fill="#FD9254"/>
<path d="M27.73 53.9172C27.63 54.1572 26.83 54.5072 27.43 54.5072C27.35 54.6772 27.19 54.7272 27.03 54.8172C27.51 54.4172 26.73 54.0272 27.73 53.9172Z" fill="#FD9254"/>
<path d="M27.05 54.8174C26.9857 54.8721 26.9152 54.9191 26.84 54.9574C26.9026 54.9005 26.9734 54.8533 27.05 54.8174Z" fill="#FD9254"/>
<path d="M29.6 53.5374C29.7004 53.4799 29.7972 53.4165 29.89 53.3474L29.68 53.5274L29.6 53.5374Z" fill="#FD9254"/>
<path d="M0.620026 55.2873C1.0516 55.9323 1.52246 56.5502 2.03 57.1373C2.34158 57.4483 2.67583 57.7358 3.03 57.9973C3.42501 58.3194 3.8583 58.5914 4.32001 58.8073C4.73001 58.1773 5.16002 59.1373 5.71002 58.5573C5.25002 58.2673 5.45 58.3973 6 58.7173C6.14 58.7973 6.29 58.8973 6.47 58.9873L7.07001 59.2573C7.50001 59.4473 7.96 59.6673 8.44 59.8573C10.44 60.5673 12.44 60.7973 11.71 60.4373L11.14 60.6273C11.38 60.4273 11.62 60.2273 11.85 60.0173C12.3215 60.3079 12.8127 60.5652 13.32 60.7873C13.5217 60.9148 13.7492 60.9962 13.986 61.0255C14.2228 61.0549 14.4632 61.0316 14.69 60.9573C14.69 60.9573 14.6 60.9573 14.38 60.9573C14.16 60.9573 13.85 60.8973 13.46 60.8373C13.07 60.7773 12.62 60.7173 12.14 60.5873L10.66 60.1673C10.16 60.0173 9.66 59.7873 9.22 59.6173L8.57001 59.3573L8.01001 59.0773C7.33001 58.7273 6.89 58.5173 6.94 58.6073C6.88 58.3173 7.53002 58.4773 8.49002 58.8473C8.98002 59.0373 9.59001 59.1873 10.23 59.4073C10.5583 59.5125 10.8921 59.5993 11.23 59.6673L12.29 59.9073C13.01 60.0473 13.74 60.1173 14.43 60.2173L16.35 60.2873C17.0258 60.2994 17.6997 60.2118 18.35 60.0273L18.5 60.4873C19.1299 60.211 19.7326 59.8762 20.3 59.4873C20.777 59.1109 21.2855 58.7763 21.82 58.4873L22.2 58.9873C21.31 58.9873 21.15 59.3873 20.29 59.7973C20.8323 59.6568 21.3898 59.5829 21.95 59.5773C22.4226 59.5629 22.8892 59.4682 23.33 59.2973C23.09 58.5973 22.26 59.2073 23.58 58.4273C23.83 58.5273 23.78 58.8273 23.81 59.0573C23.84 59.2873 23.99 59.4373 24.61 59.1273C24.8728 59.1014 25.1252 59.0112 25.3449 58.8647C25.5647 58.7182 25.745 58.5199 25.87 58.2873C26.045 57.8434 26.3857 57.4849 26.82 57.2873L25.82 57.4073C26.3657 57.0151 27.0181 56.7987 27.69 56.7873C27.16 57.0173 25.95 57.9573 26.25 58.6473C26.75 58.2473 28.12 57.9873 28.58 57.6473L28.52 58.2673C29.27 58.4273 29.24 57.6173 30.12 57.6473C30.58 57.0173 29.38 57.2173 29.61 56.8273C29.9493 56.7996 30.2791 56.7017 30.5786 56.5399C30.8782 56.3781 31.1408 56.1559 31.35 55.8873C30.9 55.5173 30.61 55.7973 30.27 56.1073C29.93 56.4173 29.51 56.8073 28.87 56.5173C29.2712 56.3849 29.6651 56.2313 30.05 56.0573C30.1 55.3873 29.68 55.6473 29.24 55.9673C28.8 56.2873 28.24 56.5673 28.24 56.0973C28.38 55.3873 28.91 55.4173 29.43 55.3473C29.95 55.2773 30.43 55.2173 30.43 54.3473C29.8 54.4173 28.3 55.3473 28.29 54.8473C29.03 54.8973 29.01 53.9773 29.63 53.4373C30 53.4373 30.38 53.3173 30.76 53.2573C30.92 52.7273 30.62 52.9273 30.22 52.9373C30.6564 52.8286 31.0696 52.6423 31.44 52.3873C31.84 52.1073 32.25 51.7673 32.68 51.3873C33.516 50.5984 34.4544 49.9257 35.47 49.3873C36.31 48.3873 35.26 48.9273 35.41 48.2473C36.35 48.2473 36.79 46.9973 37.26 46.4473C37.44 46.3173 37.21 45.5973 36.88 45.5773C36.58 46.1173 36.28 46.6573 35.97 47.1773C35.9048 47.0824 35.8174 47.0048 35.7155 46.9512C35.6136 46.8976 35.5002 46.8696 35.385 46.8696C35.2699 46.8696 35.1564 46.8976 35.0545 46.9512C34.9526 47.0048 34.8653 47.0824 34.8 47.1773C35.41 47.4673 34.8 47.7873 34.21 48.1773C33.62 48.5673 32.95 48.9373 33.38 49.5073L32.95 48.9973C32.5 49.5873 32.06 50.2173 31.56 50.7773H31.67C31.61 50.6873 31.31 51.0673 30.89 51.5473C30.4441 52.0532 29.9041 52.4676 29.3 52.7673C29.46 52.3873 31.3 51.4073 29.87 51.5273C30.36 50.7273 31.98 50.1773 33.03 48.8473L32.49 48.7373C33.33 47.1273 35.49 46.0773 36.72 44.4573L36.78 45.2973C37.42 44.9373 38.39 44.5473 38.42 43.7073C37.89 44.3873 37.91 43.8273 37.81 43.5373C38.29 42.4573 39.63 41.3373 40.4 39.9073C40.4 39.9073 40.4 40.0473 40.57 40.0373C40.81 39.5273 41.03 38.9873 41.25 38.4573C41.6847 38.0233 42.2508 37.7456 42.86 37.6673C42.96 37.3673 43.39 36.7673 42.94 36.7973C42.824 36.8832 42.7312 36.9966 42.67 37.1273C42.61 36.0373 43.18 36.7473 43.44 35.6173C43.44 36.6173 44.25 35.8373 44.67 36.2373C45.17 35.0373 43.89 35.5773 43.77 35.3073C44.9 34.2073 45.41 34.3073 46.36 33.0473C46.11 32.7773 45.55 33.8473 45.15 33.7373C45.47 33.4173 45.73 32.9573 45.66 32.8273L44.91 33.4773C46.1638 32.3399 47.1565 30.9447 47.82 29.3873H47.59L48.21 28.4373L48.55 29.1373C48.73 28.5273 49.55 28.2773 49.31 27.7273L49.15 27.8873L49.38 27.1273L49.51 28.1273C50.26 27.4473 49.85 25.5773 50.82 24.2773C51.74 24.4673 49.59 26.7873 50.44 27.5673C50.88 27.2173 51.53 26.5673 51.44 26.1273C51.15 26.0073 50.94 26.3273 50.73 26.6473C50.98 25.1473 52.92 23.8873 52.58 22.6473L51.69 23.3373C52.28 22.2373 53.69 22.2273 53.4 21.5173L53.8 22.9573C54.03 21.5973 55.02 20.3173 55.36 19.0973C54.84 18.7073 54.36 20.5273 54.36 20.3873L54.28 19.6473C55.66 18.3373 54.91 19.4373 56.52 17.8173L56.17 17.5473C57.17 17.3273 57.32 14.9373 57.81 16.2473L57.23 16.5773L57.68 16.8473L58.97 14.5473C59.12 14.9873 59.82 13.9273 60.02 14.5473L60.25 13.4973C61.11 13.6273 59.85 15.4373 60.25 15.8673C60.54 16.0473 60.79 15.6673 60.88 15.4673C60.61 16.6973 59.26 16.3673 58.55 17.2673V18.0073L58.04 17.5973C57.9067 18.0303 57.9243 18.4957 58.09 18.9173C56.71 19.3073 56.9 20.9173 55.8 22.1873C56.27 20.8173 54.8 22.5773 54.8 22.2873C54.36 22.9273 54.29 25.1373 53.27 25.2873C52.76 25.4873 53.38 24.2873 52.68 25.0573C52.37 25.6773 52.41 26.2673 52.91 26.0573C52.1059 27.5294 51.2246 28.958 50.27 30.3373L50.12 29.7673C49.7768 30.0928 49.5229 30.501 49.3828 30.9528C49.2427 31.4045 49.2211 31.8848 49.32 32.3473C49.09 32.3473 49.16 32.5173 49.03 32.2373C47.7 32.9673 48.87 34.1573 47.54 35.8973C48.12 36.1373 48.71 35.3373 48.83 34.5973L49.32 35.1273C50.3829 33.5796 51.237 31.8985 51.86 30.1273L51.92 30.9973C53.42 30.3773 51.66 29.7073 53.23 29.2273C53.51 28.3173 52.57 29.5973 52.69 28.8573C53.21 28.4073 53.62 29.6473 54.24 28.7473C52.35 32.3873 49.83 36.3473 47.48 39.9773C47.54 40.1173 47.71 39.9773 47.88 39.7973C47.88 40.6773 45.6 43.2773 43.35 45.6673C41.1 48.0573 38.84 50.2073 39.35 50.9773C39 50.9773 39.28 50.2373 38.66 50.9273C38.66 51.0773 38.66 51.3773 38.99 51.4073C37.7809 52.0239 36.6907 52.85 35.77 53.8473C34.7511 54.9145 33.5399 55.7796 32.2 56.3973C32.43 56.6173 32.01 57.1273 32.11 57.3073C31.464 57.346 30.8503 57.6035 30.37 58.0373C29.8972 58.4205 29.3431 58.6907 28.75 58.8273L29.18 59.0073L28.52 59.3473L27.83 59.6473C27.37 59.8373 26.92 60.0473 26.46 60.2273C26.46 60.3873 26.8 60.2273 27.04 60.2273C26.9723 60.3048 26.8855 60.3632 26.7883 60.3968C26.691 60.4304 26.5867 60.4379 26.4856 60.4187C26.3845 60.3995 26.2902 60.3542 26.212 60.2873C26.1339 60.2204 26.0746 60.1342 26.04 60.0373L25.04 61.1973C22.97 61.1973 20.92 61.8273 18.62 62.1973C16.285 62.6972 13.8556 62.5168 11.62 61.6773C11.2402 61.871 10.8253 61.9867 10.4 62.0173C10.1738 62.0366 9.94626 62.0366 9.72 62.0173C9.44895 61.961 9.18176 61.8875 8.92001 61.7973L9.42001 62.1973C8.06001 62.1973 9.47003 61.8773 8.37003 61.7073C7.54003 61.7773 7.8 62.4673 8.88 62.5373C9.41 62.9673 8.97001 63.0273 8.48001 62.9873C8.00001 62.7773 7.48 62.5773 7.06 62.3573C6.64 62.1373 6.18001 61.8373 5.76001 61.5673L5.13 61.1573C4.93001 61.0173 4.74002 60.8473 4.55002 60.6973C4.17002 60.3773 3.81002 60.0573 3.46002 59.6973C2.81786 59.0413 2.23243 58.3321 1.71002 57.5773C1.29018 56.8422 0.925833 56.0767 0.620026 55.2873Z" fill="#FD9254"/>
<path d="M97.56 10.4073C97.56 10.0073 98.46 11.0673 98.48 10.1573C98.4059 9.83894 98.2951 9.53022 98.15 9.2373C97.97 8.9673 97.76 8.6873 97.53 8.4073L97.17 7.9973L96.74 7.64729C96.44 7.41729 96.15 7.1573 95.82 6.9473C94.51 6.0773 93.02 5.4773 91.82 4.6273C91.3781 4.19554 90.8722 3.83461 90.32 3.5573C90.2987 3.66962 90.2987 3.78497 90.32 3.89729C89.93 3.80729 89.4 3.7973 88.88 3.7273C88.3889 3.6981 87.9026 3.61425 87.43 3.4773C87.2 3.5873 87.03 4.0673 87.43 3.9673C86.8918 4.08506 86.3292 4.01076 85.84 3.75729C85.36 3.55729 84.93 3.33731 84.6 3.59731C85.23 3.81731 84.07 4.1273 84.8 4.2773C83.58 4.5273 83.4 2.80729 82.29 2.86729C82.29 3.01729 82.22 3.15729 82.44 3.14729C82.0796 3.05191 81.7005 3.05191 81.34 3.14729C80.9524 3.25801 80.5718 3.39158 80.2 3.5473C79.46 3.8073 78.88 4.0673 78.59 3.5473L78.33 4.1873C77.7 4.0473 77.69 3.70731 76.82 3.98731C76.39 4.4173 77.04 4.3673 76.93 4.6273C76.72 4.4673 76.29 4.6273 75.79 4.7673C75.3166 4.9926 74.7931 5.09245 74.27 5.0573C74.05 4.7473 74.47 4.7873 74.96 4.7973C75.202 4.80476 75.444 4.78122 75.68 4.7273C75.7897 4.71372 75.8935 4.67012 75.98 4.6013C76.0664 4.53249 76.1322 4.44112 76.17 4.3373C76.17 4.1973 76.01 4.20729 75.87 4.25729C76.2868 4.06641 76.7142 3.89948 77.15 3.75729C77.5773 3.64514 78.0116 3.56162 78.45 3.50729C79.2652 3.39874 80.0881 3.3586 80.91 3.3873C81.69 3.3873 82.45 3.4873 83.16 3.3873C83.8706 3.4089 84.58 3.31432 85.26 3.1073C85.93 3.5973 86.36 3.1073 86.64 2.5573C86.13 2.3473 84.52 1.92729 84.64 3.00729L83.64 2.4673C83.3 2.5673 83.13 1.5273 82.94 1.3773C83.63 1.3773 84.3 0.277293 83.27 0.0372929C84.22 -0.152707 84.13 0.417295 84.03 0.977295C83.93 1.5373 83.81 2.0673 84.57 1.8273L84.71 1.03729C84.46 1.44729 85.85 1.7173 86.35 1.4373L86.13 1.3073C88.4949 1.35992 90.845 1.69565 93.13 2.3073C95.5392 2.96009 97.8003 4.07027 99.79 5.5773C99.7402 5.7892 99.7405 6.00981 99.7908 6.22159C99.8412 6.43337 99.9401 6.63049 100.08 6.7973C100.369 7.08534 100.684 7.34642 101.02 7.5773C101.389 7.78857 101.725 8.0512 102.02 8.3573C102.14 8.51087 102.218 8.69312 102.246 8.88605C102.274 9.07897 102.251 9.27587 102.18 9.45729C102.67 9.73729 102.3 8.4573 103.05 9.1573C103.108 9.20357 103.152 9.26461 103.178 9.33394C103.204 9.40327 103.21 9.47831 103.197 9.5511C103.184 9.62389 103.151 9.69172 103.102 9.74739C103.053 9.80306 102.99 9.84449 102.92 9.86729L103.3 10.1573C102.651 10.7877 101.785 11.1455 100.88 11.1573C100.377 11.165 99.8751 11.101 99.39 10.9673L99 10.8473L98.56 10.7273C98.2189 10.6468 97.8846 10.5398 97.56 10.4073Z" fill="#FD9254"/>
<path d="M4.81 21.4672V23.7772C5.29874 22.9662 6.00164 22.3056 6.8414 21.8681C7.68116 21.4306 8.62528 21.2331 9.57001 21.2972C10.3863 21.2671 11.1995 21.4122 11.955 21.7227C12.7105 22.0332 13.3908 22.5019 13.95 23.0972C15.1124 24.4572 15.71 26.2105 15.62 27.9972V37.1772H10.84V28.6472C10.868 28.2213 10.8108 27.7942 10.6717 27.3907C10.5326 26.9871 10.3145 26.6154 10.03 26.2972C9.74042 26.0117 9.39402 25.7902 9.01328 25.6472C8.63253 25.5042 8.22598 25.4429 7.82001 25.4672C7.41422 25.4448 7.00818 25.5069 6.62772 25.6498C6.24725 25.7927 5.90068 26.0132 5.61002 26.2972C5.0429 26.9439 4.75521 27.7889 4.81 28.6472V37.1772H0V21.4672H4.81Z" fill="#2C3847"/>
<path d="M20.35 35.1174C19.0062 33.4929 18.2709 31.4507 18.2709 29.3424C18.2709 27.2341 19.0062 25.1919 20.35 23.5674C20.9817 22.8436 21.7632 22.2657 22.6404 21.8737C23.5175 21.4817 24.4694 21.2851 25.43 21.2974C26.3227 21.2529 27.2123 21.4328 28.0176 21.8206C28.8229 22.2084 29.5182 22.7917 30.04 23.5174V21.4674H34.85V37.1774H30.04V34.8974C29.5345 35.6739 28.8396 36.309 28.0209 36.7429C27.2021 37.1767 26.2864 37.3951 25.36 37.3774C24.4116 37.3828 23.4731 37.1837 22.6086 36.7937C21.744 36.4037 20.9737 35.832 20.35 35.1174ZM29 32.1874C29.3542 31.8029 29.6257 31.3498 29.7977 30.8561C29.9697 30.3625 30.0386 29.8387 30 29.3174C30.0394 28.799 29.9709 28.2781 29.7988 27.7876C29.6266 27.297 29.3547 26.8475 29 26.4674C28.6861 26.1501 28.3123 25.8983 27.9003 25.7266C27.4883 25.555 27.0463 25.4669 26.6 25.4674C26.1548 25.4642 25.7135 25.5512 25.3028 25.7231C24.892 25.8949 24.5203 26.1481 24.21 26.4674C23.8568 26.8526 23.586 27.3058 23.414 27.7993C23.2421 28.2927 23.1726 28.8161 23.21 29.3374C23.1716 29.8572 23.2406 30.3794 23.4127 30.8714C23.5847 31.3634 23.8561 31.8148 24.21 32.1974C24.5213 32.5176 24.8936 32.7722 25.305 32.946C25.7164 33.1198 26.1584 33.2094 26.605 33.2094C27.0516 33.2094 27.4937 33.1198 27.905 32.946C28.3164 32.7722 28.6887 32.5176 29 32.1974V32.1874Z" fill="#2C3847"/>
<path d="M45.47 33.0972H47.18V37.1772H44.73C43.2727 37.2691 41.8283 36.8559 40.64 36.0072C39.64 35.2272 39.19 33.8872 39.19 32.0072V25.4772H37.73V21.4772H39.2V17.6472H44.01V21.4772H47.17V25.4772H44.01V32.0272C44 32.7272 44.49 33.0972 45.47 33.0972Z" fill="#2C3847"/>
<path d="M60.87 21.4673H65.73V37.1773H60.92V34.8673C60.4313 35.6783 59.7284 36.3389 58.8886 36.7764C58.0489 37.2139 57.1047 37.4115 56.16 37.3473C55.3437 37.3774 54.5305 37.2323 53.775 36.9218C53.0195 36.6113 52.3392 36.1427 51.78 35.5473C50.6103 34.1915 50.0118 32.4352 50.11 30.6473V21.4673H54.89V30.0273C54.8363 30.8855 55.1238 31.7301 55.69 32.3773C55.9831 32.6579 56.3301 32.8761 56.7099 33.0188C57.0898 33.1615 57.4947 33.2256 57.9 33.2073C58.3058 33.2298 58.7118 33.1676 59.0923 33.0247C59.4728 32.8818 59.8193 32.6613 60.11 32.3773C60.394 32.0588 60.6119 31.687 60.7509 31.2836C60.89 30.8802 60.9474 30.4531 60.92 30.0273L60.87 21.4673Z" fill="#2C3847"/>
<path d="M74.44 21.4674V24.3974C75.56 22.3307 77.06 21.2974 78.94 21.2974V26.1974H77.73C76.8287 26.1252 75.9349 26.4088 75.24 26.9874C74.9226 27.3676 74.6854 27.8081 74.5428 28.2825C74.4001 28.7568 74.3549 29.2551 74.41 29.7474V37.1774H69.59V21.4674H74.44Z" fill="#2C3847"/>
<path d="M82.21 35.1172C80.8552 33.4978 80.1129 31.4536 80.1129 29.3422C80.1129 27.2308 80.8552 25.1866 82.21 23.5672C82.8408 22.8423 83.6222 22.2637 84.4995 21.8716C85.3769 21.4796 86.3291 21.2836 87.29 21.2972C88.1813 21.2526 89.0696 21.4324 89.8733 21.8203C90.677 22.2082 91.3704 22.7917 91.89 23.5172V21.4672H96.73V37.1772H91.91V34.8972C91.4067 35.6736 90.7137 36.3088 89.8966 36.7428C89.0794 37.1767 88.1651 37.3951 87.24 37.3772C86.2882 37.3855 85.3459 37.1878 84.4777 36.7977C83.6095 36.4076 82.8359 35.8343 82.21 35.1172ZM90.85 32.1872C91.2042 31.8027 91.4757 31.3496 91.6477 30.8559C91.8197 30.3623 91.8886 29.8385 91.85 29.3172C91.8894 28.7988 91.8209 28.2779 91.6488 27.7874C91.4767 27.2968 91.2047 26.8473 90.85 26.4672C90.5373 26.1494 90.1646 25.897 89.7534 25.7248C89.3422 25.5525 88.9008 25.4638 88.455 25.4638C88.0092 25.4638 87.5678 25.5525 87.1566 25.7248C86.7455 25.897 86.3727 26.1494 86.06 26.4672C85.7068 26.8524 85.436 27.3056 85.264 27.799C85.0921 28.2925 85.0226 28.8159 85.06 29.3372C85.0217 29.857 85.0906 30.3792 85.2627 30.8712C85.4347 31.3632 85.7061 31.8145 86.06 32.1972C86.3739 32.5145 86.7477 32.7663 87.1597 32.938C87.5717 33.1096 88.0137 33.1977 88.46 33.1972C88.9059 33.1985 89.3474 33.1097 89.7581 32.9361C90.1688 32.7626 90.5402 32.5078 90.85 32.1872Z" fill="#2C3847"/>
<path d="M100.65 37.1774V16.3374H105.46V37.1774H100.65Z" fill="#2C3847"/>
<path d="M5.19 39.9272V44.6472H4.41V41.4173L2.97 44.6472H2.43002L0.980011 41.4173V44.6472H0.210022V39.9272H1.05002L2.70001 43.6273L4.36002 39.9272H5.19Z" fill="#2C3847"/>
<path d="M10.56 44.6472V39.9272H11.33V44.6472H10.56Z" fill="#2C3847"/>
<path d="M19.81 39.9172H20.58V44.6472H19.81L17.48 41.1172V44.6472H16.73V39.9172H17.51L19.84 43.4372L19.81 39.9172Z" fill="#2C3847"/>
<path d="M28.57 39.9172V40.5272H26.73V41.9572H28.36V42.5572H26.73V44.0272H28.57V44.6272H25.96V39.8972L28.57 39.9172Z" fill="#2C3847"/>
<path d="M34.64 42.7373V44.6473H33.87V39.9273H35.5C35.9494 39.8961 36.3936 40.0394 36.74 40.3273C36.8802 40.4526 36.9914 40.607 37.0656 40.7797C37.1399 40.9525 37.1756 41.1394 37.17 41.3273C37.1748 41.6357 37.0723 41.9362 36.88 42.1773C36.6619 42.451 36.3467 42.6301 36 42.6773L37.25 44.6773H36.3L35.12 42.7673L34.64 42.7373ZM34.64 40.5273V42.1273H35.5C35.6184 42.1376 35.7377 42.1244 35.851 42.0884C35.9643 42.0523 36.0693 41.9942 36.16 41.9173C36.3021 41.7536 36.3804 41.5441 36.3804 41.3273C36.3804 41.1105 36.3021 40.901 36.16 40.7373C36.0693 40.6605 35.9643 40.6023 35.851 40.5663C35.7377 40.5302 35.6184 40.517 35.5 40.5273H34.64Z" fill="#2C3847"/>
<path d="M45.73 44.6472L45.39 43.6472H43.39L43.05 44.6472H42.24L43.93 39.9172H44.83L46.52 44.6472H45.73ZM43.62 43.0772H45.18L44.4 40.8572L43.62 43.0772Z" fill="#2C3847"/>
<path d="M51.61 39.9272H52.38V44.0273H53.98V44.6172H51.61V39.9272Z" fill="#2C3847"/>
<path d="M70.73 39.9272H71.56L70.16 44.6472H69.28L68.28 41.0772L67.28 44.6472H66.41L65.07 39.9172H65.89L66.89 43.7672L67.95 39.9172H68.73L69.73 43.7472L70.73 39.9272Z" fill="#2C3847"/>
<path d="M79.73 44.6472L79.39 43.6472H77.39L77.05 44.6472H76.24L77.93 39.9172H78.83L80.52 44.6472H79.73ZM77.62 43.0772H79.18L78.4 40.8572L77.62 43.0772Z" fill="#2C3847"/>
<path d="M85.35 40.5273V39.9272H88.65V40.5273H87.39V44.6472H86.62V40.5273H85.35Z" fill="#2C3847"/>
<path d="M96.4 39.9172V40.5272H94.56V41.9572H96.19V42.5572H94.56V44.0272H96.4V44.6272H93.79V39.8972L96.4 39.9172Z" fill="#2C3847"/>
<path d="M102.47 42.7373V44.6473H101.73V39.9273H103.36C103.809 39.8961 104.254 40.0394 104.6 40.3273C104.74 40.4526 104.851 40.607 104.926 40.7797C105 40.9525 105.036 41.1394 105.03 41.3273C105.035 41.6357 104.932 41.9362 104.74 42.1773C104.522 42.451 104.207 42.6301 103.86 42.6773L105.11 44.6773H104.11L102.93 42.7673L102.47 42.7373ZM102.47 40.5273V42.1273H103.33C103.569 42.146 103.806 42.0706 103.99 41.9173C104.132 41.7536 104.21 41.5441 104.21 41.3273C104.21 41.1105 104.132 40.901 103.99 40.7373C103.806 40.584 103.569 40.5087 103.33 40.5273H102.47Z" fill="#2C3847"/>
</svg>
