<svg width="116" height="90" viewBox="0 0 116 90" fill="none" xmlns="http://www.w3.org/2000/svg">
<path d="M50.1899 9.30008L51.04 8.90009C49.55 7.97009 45.38 6.90008 41.92 5.83008L44.1199 6.70007C43.6499 6.99007 45.53 7.79008 45.39 8.14008C45.55 7.33008 48.4799 8.89008 50.1899 9.30008Z" fill="#FC8156"/>
<path d="M56.42 9.88995L50.55 8.43994L52.8699 9.41995L56.42 9.88995Z" fill="#FC8156"/>
<path d="M55.41 10.8701C55.7109 11.0309 56.0255 11.1648 56.35 11.2701C56.046 11.1158 55.732 10.9821 55.41 10.8701Z" fill="#FC8156"/>
<path d="M64.27 12.7C61.618 12.0182 59.0126 11.1665 56.47 10.15C57.1179 10.4989 57.7857 10.8094 58.47 11.08C56.64 10.56 54.11 10.08 51.96 9.51001C52.76 10.26 54.05 10.37 55.41 10.85C55.06 10.65 54.9599 10.49 55.6199 10.56C57.5499 11.65 59.03 11.37 60.84 12.35L58.9399 12C59.0399 12.58 62.9399 12.64 62.5699 13.5C65.2499 13.64 60.91 12.2 64.27 12.7Z" fill="#FC8156"/>
<path d="M66.1499 13.53C65.9499 13.53 65.8899 13.6101 65.9299 13.6801C65.9699 13.7501 66.2299 13.6 66.1499 13.53Z" fill="#FC8156"/>
<path d="M65.54 14.1599C67.49 14.7999 70.54 15.7199 71.24 15.2099C69.32 14.1099 68.78 14.5699 67.76 14.5699C67.1189 14.3419 66.5051 14.0434 65.93 13.6799C65.57 13.7499 65 13.8099 65.54 14.1599Z" fill="#FC8156"/>
<path d="M74.83 16.42L73.83 16.25V15.79C73.3446 15.9966 72.8225 16.1031 72.295 16.1031C71.7675 16.1031 71.2453 15.9966 70.7599 15.79C71.6899 16.43 72.15 16.14 73.15 16.6L74.83 16.42Z" fill="#FC8156"/>
<path d="M72.5599 13.31C71.3528 13.1456 70.1378 13.0455 68.92 13.01C71.19 13.25 74.82 15.01 74.58 13.8C73.8573 13.5763 73.1133 13.4288 72.36 13.36L72.5599 13.31Z" fill="#FC8156"/>
<path d="M74.71 13.8401C75.8165 14.3748 77.0076 14.7131 78.23 14.8401C77.14 14.5201 75.83 14.1401 74.71 13.8401Z" fill="#FC8156"/>
<path d="M74.58 13.8H74.71L74.58 13.73V13.8Z" fill="#FC8156"/>
<path d="M79.34 18.2699L76.39 17.1699L77.0699 17.5799L79.34 18.2699Z" fill="#FC8156"/>
<path d="M76.29 15.3901C78.67 16.2001 75.1099 14.5201 77.3799 15.2101C78.0099 15.3301 74.04 14.2101 73.78 14.4601C74.34 14.7501 76.19 14.8101 76.29 15.3901Z" fill="#FC8156"/>
<path d="M83.71 19.7C84.71 19.7 86.15 20.8 87.41 21.03L87.9999 20.8601C85.1699 20.6401 85.11 19.14 83.71 19.7Z" fill="#FC8156"/>
<path d="M94.35 22.33C93.96 22.44 93.2099 22.21 93.2599 22.5C92.3799 22.15 92.65 21.92 92.08 21.63C90.43 21.51 88.08 20.53 86.78 20.47C87.1941 20.5493 87.5948 20.6874 87.97 20.88C90.28 21.88 93.6499 22.38 95.1799 23.6C94.8899 23.08 96.42 23.08 94.35 22.33Z" fill="#FC8156"/>
<path d="M85.35 18.1501C84.83 17.9801 84.35 17.8101 83.89 17.6401C84.346 17.8918 84.8387 18.0706 85.35 18.1701V18.1501Z" fill="#FC8156"/>
<path d="M85.71 18.0501C86.5 17.8201 88.2999 18.8001 88.7599 18.5201C88.7599 18.3101 87.67 17.8701 87.36 17.6601C86.67 18.2701 84.63 16.8201 85.36 18.1501C86.1704 18.413 86.9951 18.63 87.83 18.8001L85.71 18.0501Z" fill="#FC8156"/>
<path d="M81.79 16.49L80.79 16.78C81.8325 16.993 82.8585 17.2804 83.86 17.64C83.41 17.3 83.8 17.05 81.79 16.49Z" fill="#FC8156"/>
<path d="M87.39 17.7001C87.4319 17.6615 87.4688 17.6178 87.5 17.5701C87.26 17.5201 87.27 17.5701 87.39 17.7001Z" fill="#FC8156"/>
<path d="M97.1899 21.6299L96.4399 21.4099L96.66 21.4999L97.14 21.6899L97.6799 21.8899C98.2299 22.0799 98.7699 22.2599 99.3199 22.4299C98.8999 22.2499 98.46 22.0799 97.98 21.8999L97.1899 21.6299Z" fill="#FC8156"/>
<path d="M94.9399 20.6999C95.5999 21.0899 95.83 21.4399 94.79 21.2499L93.9299 20.4399L91.0599 20.3799C93.2299 20.4999 95.2599 22.1699 95.9299 21.3799L96.86 22.0099L96.45 21.3899L95.77 21.0999L94.9399 20.6999Z" fill="#FC8156"/>
<path d="M102.71 23.17L102.84 23.2799C101.654 23.0879 100.484 22.8072 99.34 22.4399L99.6199 22.5599C100.432 22.9057 101.215 23.3171 101.96 23.7899C101.31 25.0799 100.72 26.08 100.28 26.9C100.13 27.18 99.9899 27.44 99.8799 27.7C99.8799 27.75 99.7899 27.77 99.7499 27.7C99.7438 27.0808 99.9251 26.4742 100.27 25.96C100.61 25.33 101.05 24.59 101.27 24.14C101.184 24.0823 101.083 24.0516 100.98 24.0516C100.877 24.0516 100.776 24.0823 100.69 24.14C100.769 24.2144 100.853 24.2845 100.94 24.3499C100.499 25.1966 100.114 26.0719 99.79 26.9699C99.63 27.3799 99.49 27.7399 99.36 27.9699C99.2678 28.2146 99.1284 28.4389 98.9499 28.6299C98.9499 29.1099 99.54 27.93 99.34 29.17C99.0196 30.0779 98.5234 30.9138 97.8799 31.6299L97.98 32.7599C97.36 32.7599 96.8799 34.66 96.3299 36.7C96.9199 35.36 97.5299 33.9799 98.1299 32.5299C98.4699 31.7099 98.8099 30.8499 99.1299 29.9699C99.1899 29.7899 99.2599 29.6 99.3299 29.42C98.8499 33.06 96.9699 36.0399 95.9999 39.6299C95.8799 41.5099 96.75 38 97.05 37.89C97.69 38.63 96.12 39.4899 96.52 40.4999C97.03 40.9099 98.2499 36.9799 99.0599 35.4999C99.3899 34.1299 99.1999 34.09 98.9999 33.58C99.4299 33.34 99.94 31.99 100.36 31.74C100.446 31.0778 100.593 30.425 100.8 29.7899C100.89 29.4999 100.99 29.23 101.09 28.96C101.19 28.69 101.32 28.36 101.43 28.05C102.037 26.5808 102.477 25.0477 102.74 23.4799C102.798 23.3698 102.876 23.2715 102.97 23.1899L102.71 23.17Z" fill="#FC8156"/>
<path d="M102.97 23.2499L102.45 24.9999C102.26 25.5299 102.45 25.0899 102.66 24.4999C102.87 23.9099 103.09 23.2099 102.97 23.2499Z" fill="#FC8156"/>
<path d="M94.9399 20.7C94.7899 20.61 94.63 20.5299 94.45 20.4399C94.6086 20.5351 94.7722 20.6219 94.9399 20.7Z" fill="#FC8156"/>
<path d="M91.54 19.64L90.04 19.21C90.5166 19.425 91.0218 19.5699 91.54 19.64Z" fill="#FC8156"/>
<path d="M93.27 19.62C90.97 18.71 92.2 19.62 91.54 19.62L93.6899 20.23L93.27 19.62Z" fill="#FC8156"/>
<path d="M95.92 41.7C95.92 42.97 96.6 41.7 96.92 40.28C96.53 41.52 96.06 42.07 95.92 41.7Z" fill="#FC8156"/>
<path d="M88.5699 56.7C88.3699 56.78 88.14 57.1299 87.97 58.1299C88.2344 57.6829 88.4363 57.2018 88.5699 56.7Z" fill="#FC8156"/>
<path d="M99.71 26.1699C99.71 26.3299 99.61 26.4899 99.55 26.6499C99.6138 26.4936 99.6672 26.3333 99.71 26.1699Z" fill="#FC8156"/>
<path d="M92.4 45.5401L92.53 45.3401C92.4842 45.3996 92.444 45.4632 92.41 45.5301L92.4 45.5401Z" fill="#FC8156"/>
<path d="M39.23 6.16989L38.17 5.8999C38.5215 6.01206 38.8786 6.10552 39.24 6.1799L39.23 6.16989Z" fill="#FC8156"/>
<path d="M40.39 5.86005C40.0773 5.61305 39.7426 5.39547 39.39 5.21005C38.9298 4.99214 38.4362 4.85352 37.9299 4.80005C38.3639 4.98688 38.7791 5.21457 39.17 5.48004C39.28 5.58004 39.17 5.58005 39.02 5.58005C38.87 5.58005 38.71 5.58005 38.7 5.64005C38.69 5.70005 38.84 5.87004 39.24 6.17004C40.52 6.50004 41.8199 6.83006 43.0699 7.12006C42.099 6.8903 41.1863 6.46121 40.39 5.86005Z" fill="#FC8156"/>
<path d="M43.0599 7.12012C43.2599 7.18012 43.47 7.23009 43.7 7.28009L43.0599 7.12012Z" fill="#FC8156"/>
<path d="M67.78 12.8999H67.65C67.88 12.9299 68 12.9399 67.78 12.8999Z" fill="#FC8156"/>
<path d="M32.03 76.35C32.58 76.64 33.9299 76.7 34.9299 77.16C34.0499 76.81 32.56 75.89 32.03 76.35Z" fill="#FC8156"/>
<path d="M31.47 78.4799V78.3799C31.33 78.3799 31.1499 78.3799 30.9399 78.3799L31.47 78.4799Z" fill="#FC8156"/>
<path d="M31.6199 78.1299L31.5099 78.3799C31.8099 78.3899 31.9299 78.3299 31.6199 78.1299Z" fill="#FC8156"/>
<path d="M27.5699 77.1999L29.52 77.8399C29.37 78.1899 29.3 78.3599 28.11 77.9499C28.751 78.2007 29.4244 78.3589 30.11 78.4198L29.67 78.2499C30.1017 78.245 30.5331 78.2751 30.96 78.3399C29.25 77.7599 28.1899 76.4699 27.5699 77.1999Z" fill="#FC8156"/>
<path d="M24.71 76.7C25.46 76.93 27.2899 77.4499 26.8799 76.8199L24.71 76.7Z" fill="#FC8156"/>
<path d="M21.92 75.24C24.1 76.24 23.0199 75.24 24.3799 75.55C24.0166 75.415 23.6363 75.3309 23.2499 75.3C24.3799 75.87 22.43 75.24 21.92 75.24Z" fill="#FC8156"/>
<path d="M24.3799 75.55C24.569 75.6152 24.763 75.6654 24.96 75.7001L24.3799 75.55Z" fill="#FC8156"/>
<path d="M46.11 79.77L46.04 79.54C45.91 79.57 45.89 79.63 46.11 79.77Z" fill="#FC8156"/>
<path d="M17.4299 73.3199L17.21 73.23L16.21 72.96L17.4299 73.3199Z" fill="#FC8156"/>
<path d="M13.8699 65.18V65.13C13.8699 65.13 13.8899 65.12 13.8699 65.18Z" fill="#FC8156"/>
<path d="M92.28 44.96C92.97 43.42 92.2799 46.13 92.9299 44.87C92.7699 46.52 91.1099 48.21 90.6199 51.08C90.8199 50.08 91.1 50.56 91.04 51.08C90.26 52.82 89.5199 55.81 88.9399 57.63C88.9833 57.6024 89.0336 57.5878 89.085 57.5878C89.1363 57.5878 89.1866 57.6024 89.23 57.63C88.7118 58.8899 88.1276 60.1216 87.48 61.32C84.71 67.78 82.7299 77.19 80.0699 82.55C79.0699 84.17 80.1499 80.55 79.7 81.21C79.4301 82.9335 79.2964 84.6755 79.3 86.42C74.3163 84.2867 69.2146 82.4404 64.02 80.89C63.23 80.78 62.52 80.76 63.53 81.25C65.31 81.48 66.0499 82.17 64.7 82.11C62.7999 81.76 65.04 81.71 62.7 81.47L63.7 81.94C62.1852 81.4458 60.5899 81.2456 58.9999 81.35C50.7799 78.17 41.1799 77.06 34.1899 73.83L31.4999 73.71C31.4999 73.42 31.28 73.02 30.02 72.79C30.46 72.96 31.22 73.19 31.02 73.25L25.41 71.57L25.9 72.03C24.7995 71.5644 23.6579 71.2028 22.49 70.95C21.4024 70.7613 20.3626 70.3604 19.4299 69.77C19.3399 69.94 18.35 69.77 18.21 70.02C17.78 69.83 17.35 69.66 16.92 69.49C17.28 68.49 17.57 67.55 17.85 66.59C18.2 65.34 18.56 64.08 18.85 62.86C19.4632 60.5342 20.2762 58.2658 21.28 56.08C20.94 56.45 20.9399 55.94 20.8799 55.74C21.3999 53.91 21.2299 55.37 21.5699 55.01C20.3099 53.79 29.57 30.56 29.65 27.37C29.47 27.81 29.3 28.25 29.24 28.05C30.36 24.21 31.5299 20.23 32.6899 16.26C33.2599 14.26 33.83 12.26 34.4 10.35L35.15 7.66L35.8099 5.24002L38.0699 5.83002C37.1399 5.53002 36.94 5.24002 36.83 4.96002C36.72 4.68002 36.74 4.41003 35.98 4.09003C35.28 4.01003 35.83 4.27001 36.27 4.48001C36.71 4.69001 37.0499 4.88002 36.1899 4.74002C35.8862 4.54678 35.5725 4.36986 35.2499 4.21002C34.9882 4.74695 34.8776 5.34498 34.9299 5.94C34.9409 6.23077 34.9038 6.52137 34.8199 6.80002C34.6808 7.21334 34.4821 7.60413 34.23 7.96002C34.23 7.43336 34.25 6.85333 34.29 6.22C33.91 8.1 33.5099 9.86001 32.9999 11.82C32.4899 13.78 31.91 15.82 31.33 17.67L30.8699 17.14C30.6999 18.6 30.06 20.55 29.49 20.64C30.93 16.31 29.84 15.16 31.23 12.64C31.34 13.03 31.2299 12.83 31.5099 12.59C31.4765 11.7877 31.52 10.984 31.64 10.19C31.7127 9.69075 31.8162 9.19649 31.95 8.71002C32.0166 8.46336 32.0966 8.21336 32.1899 7.96002L32.3699 7.45001C32.4499 7.27001 32.52 7.08002 32.59 6.90002V7.70001C32.5786 7.88651 32.5786 8.07351 32.59 8.26001C33.16 6.42001 33.7399 4.51003 34.3099 2.62003L38.3699 3.85001L40.21 4.37003L41.71 4.70001C40.9 4.18001 41.9299 4.18 43.3199 4.53C45.3899 5.28 42.61 4.58002 43.42 5.11002C44.52 6.11002 48.54 6.32001 50.05 6.79001C49.54 6.79001 54 8.35001 51.15 7.79001C54.42 8.95001 57.04 8.79001 59.02 10.17C59.7541 9.99242 60.5174 9.97197 61.2599 10.11L61.04 10.63L62.2599 10.58C64.4799 11.26 65.26 12.65 67.64 12.87C67.2 12.78 66.31 12.55 66.33 12.25C66.67 11.85 70.96 13.01 70.33 12.14L68.33 11.97C69.11 11.74 66.65 11.1 67.23 10.97L62.1199 9.70001V9.24002L63.24 9.82001C64.99 9.30001 60.78 9.18001 59.48 8.20001L59.34 8.54001C55.07 6.93001 57.65 7.68001 54.14 6.29001L52.9299 6.35001C52.7299 6.40001 56.2899 6.87001 56.0699 7.35001C53.6599 7.00001 50.51 5.96001 47.91 5.67001L49.91 5.36002C48.97 5.36002 47.71 4.12 45.42 3.53L47.42 4.46002C46.024 4.4529 44.6423 4.17793 43.35 3.65002C42.55 3.39002 41.72 3.12 40.91 2.88L40.2499 2.70001L39.2499 2.43002C38.5833 2.25669 37.9633 2.11668 37.39 2.01001C38.66 2.40001 39.9399 2.79001 40.0699 3.10001C38.1376 2.71364 36.2508 2.12715 34.4399 1.35001C34.4399 0.850006 37.31 1.58001 40.03 2.35001L40.5099 2.47L40.79 2.54001L41.3199 2.66C41.6699 2.74 41.98 2.80003 42.23 2.84003C42.74 2.91003 43.03 2.89002 42.91 2.65002C42.3234 2.45731 41.7256 2.30036 41.1199 2.18002L40.6799 2.10001L40.35 2.03L39.95 1.94L38.4299 1.61002C36.4299 1.21002 34.8199 0.940016 33.4299 0.610016C33.2309 1.47313 32.9839 2.32445 32.6899 3.16C32.8099 2.16 32.94 1.11 33.1 0H33.28H33.08L32.42 2.77002L32.7 2C32.6296 2.89361 32.4204 3.7708 32.08 4.60001C31.91 5.08001 31.73 5.60003 31.54 6.12003C31.45 6.39003 31.36 6.66 31.28 6.94L31.17 7.35001L31.11 7.56V7.69V7.57001V7.36002V6.94V6.06L30.22 8.98001L30.45 8.74002C29.6578 12.1826 28.5739 15.5514 27.21 18.81L28.02 16.93C27.9404 17.6694 27.7446 18.3916 27.4399 19.07C27.8499 18.9 28.44 16.44 28.71 16.71C27.71 19.86 27.1499 20.14 25.9399 23.22C26.0499 23.61 27.38 21.44 26.8 24.1C26.4 23.75 25.53 25.95 25.59 24.1C25.26 26.42 24.72 25.68 24.72 27.61C24.7955 27.3167 24.8924 27.0292 25.0099 26.75C25.4699 26.26 25.01 27.75 24.89 28.41C24.1656 29.3254 23.601 30.3566 23.22 31.46L22.47 35.06C22.35 35.19 22.29 34.99 22.29 34.99C21.48 38.4 20.0899 41.91 19.6299 44.45C19.7399 44.84 19.7399 45.86 20.2599 44.03C20.2599 45.57 19.26 47.37 18.64 48.81L18.53 47.4C17.37 51.69 15.18 56.57 14.53 60.56L15.1 59.96C14.88 60.88 14.63 61.79 14.35 62.67C14.21 63.11 14.0699 63.54 13.9399 63.96L13.5099 65.24C12.5599 68.24 11.7 70.92 11.34 72.69C11.88 71.41 12.11 70.99 12.16 71.05C12.1355 71.5074 12.0445 71.9588 11.89 72.39C13.51 72.83 15.8899 73.55 16.6199 73.68C15.2799 73.2 13.71 72.68 12.1 72.28C12.61 70.47 13.1 68.68 13.42 67.28C13.7 66.2 13.9199 65.37 14.0099 65.17C13.9728 65.1961 13.942 65.2303 13.92 65.27L15.03 60.27L15.55 60.48C14.46 59.85 18.04 54.03 16.71 54.66C17.06 53.27 17.7099 52.85 17.9299 53.12L18.74 49.2C19.08 48.84 19.37 49.81 19.2 50.25C18.73 51.76 18.44 54.36 17.46 55.66C17.4 57 18.3799 54.66 17.6899 57.46C16.8034 59.5111 16.0551 61.6191 15.45 63.77L14.3199 67.57C13.8599 69.07 13.4099 70.49 12.9399 71.82C13.5599 72.04 14.13 72.26 14.66 72.49C13.66 71.99 12.5799 71.66 14.3099 71.87C15.2499 72.3 16.2599 72.76 17.3099 73.24C18.0499 73.42 18.7399 73.57 19.3099 73.65L20.4 73.75C21.0626 73.7691 21.7108 73.9475 22.29 74.27C22.58 74.18 21.78 73.85 20.77 73.47L19.1 72.85C18.41 72.6 17.81 72.37 17.46 72.21C18.13 72.1263 18.8099 72.1773 19.46 72.36C19.5937 72.3912 19.7243 72.4347 19.85 72.49L20.2 72.63L20.9 72.98C21.78 73.5823 22.8355 73.8743 23.9 73.81C24.9 73.35 18.97 72.54 20.84 72.13L23.36 73.06C22.5492 72.4413 21.5909 72.0449 20.58 71.91C19.67 71.71 18.64 71.48 18.58 70.99C19.3386 71.0638 20.0828 71.2457 20.79 71.53C21.3666 71.7124 21.9228 71.9537 22.45 72.25C23.28 72.31 21.1599 71.25 22.6199 71.45C23.9899 72.25 24.84 71.85 25.89 72.6L25.11 72.83C26.18 73.12 28.82 74.16 30.11 74.39C30.02 75.03 26.85 74.45 25.65 74.04C26.9158 74.6786 28.2609 75.1459 29.65 75.43L27.77 74.62C30.67 75.43 30.28 74.34 33.54 75.49C36.32 76.19 34.08 76.24 34.89 76.76C38.05 77.34 35.96 77.05 36.05 76.42C38.51 77.06 39.05 77.52 42.22 78.42C40.32 78.07 39.73 78.24 37.98 77.55L38.39 78.18C40.93 78.65 42.98 78.65 46.02 79.12L46.17 79.58C46.87 79.43 70.39 86.51 69.17 85.34C69.49 85.54 64.47 84.03 60.04 82.71L60.3199 82.63C63.9999 83.46 74.3799 86.3 71.3199 85.46C71.7299 84.88 73.2199 85.81 73.3199 85.17C75.3911 85.6055 77.4346 86.1632 79.4399 86.84C79.5599 89.26 80.2699 90.1 81.3699 89.92L81.52 88.97C81.62 89.05 82.0399 89.08 82.2499 88.05C82.5599 86.49 82.01 87.51 81.77 87.61H81.6899C81.6724 87.5276 81.6724 87.4424 81.6899 87.36C83.5799 85.54 82.8999 80.36 85.1199 78.45C87.7499 68.94 90.8999 57.45 93.7499 49.01L93.4999 49.4C93.5999 48.4 94.5 46.17 94.79 46.2L94.4 45.66C95.14 42.39 95.61 47.75 96.6 44.1C95.73 45.86 95.3699 44.05 95.8799 42.7C95.6399 42.98 94.79 42.7 94.61 43.46L93.47 45.25C94.3 45.58 92.93 48.67 92.4 49.74C92.3956 49.6968 92.3956 49.6532 92.4 49.61C92.52 49.18 92.48 49.24 92.4 49.48C92.2901 48.9832 92.2867 48.4688 92.3901 47.9707C92.4936 47.4726 92.7014 47.002 92.9999 46.59C93.3325 45.1238 93.7601 43.6808 94.28 42.27C93.3092 42.8945 92.5984 43.8505 92.28 44.96ZM53.9 80.96L54.7 81.21L53.7 80.94L53.9 80.96ZM59.48 82.6L58.9399 82.44C58.8899 82.38 59.2999 82.44 60.0099 82.6H59.48Z" fill="#FC8156"/>
<path d="M94.0599 42.19C94.5953 41.7283 95.0019 41.1357 95.24 40.47C95.24 40.36 95.1499 40.24 95.0699 40.33C95.5869 39.1761 95.9986 37.9779 96.3 36.75C96.21 36.95 96.12 37.14 96.04 37.34C95.32 38.97 94.6499 40.57 94.0599 42.19Z" fill="#FC8156"/>
<path d="M94.65 46.1201L94.73 46.2301C94.71 46.1601 94.71 46.1301 94.65 46.1201Z" fill="#FC8156"/>
<path d="M20.77 44.19C20.77 44.56 20.58 44.56 20.64 44.88C20.4721 45.6776 20.2208 46.4552 19.89 47.2C19.51 48.2 19.07 49.2 18.7 50.2C18.13 51.33 17.5699 52.33 16.9999 53.4C16.7499 53.84 13.8 57.61 13.49 57.86C12.67 58.42 11.29 60.05 10.54 60.55C9.63881 61.0096 8.68973 61.3684 7.70996 61.62C6.8984 61.7259 6.07534 61.7056 5.26996 61.56C3.94996 61.37 1.99994 59.43 1.37994 58.17C1.02413 57.6415 0.728929 57.0746 0.499939 56.48C0.231604 55.4725 0.0641134 54.4407 -6.10352e-05 53.4C-6.10352e-05 48.13 0.619944 47.4 2.12994 42.29C2.24994 41.85 2.31994 41.48 2.43994 41.04C2.53056 40.61 2.65769 40.1884 2.81995 39.78C3.00995 39.09 3.19994 38.4 3.37994 37.78C3.69994 36.4 5.37995 34.01 3.81995 33.7C3.37995 33.63 3.00994 33.7 2.62994 33.38C2.24994 33.06 1.87994 32.94 1.49994 32.69C1.31204 32.5532 1.17767 32.3552 1.11993 32.13C1.22045 32.0729 1.32804 32.0291 1.43994 32L4.00995 31.44C4.61073 31.3183 5.21862 31.2348 5.82996 31.19C5.9688 31.1633 6.09891 31.1029 6.2088 31.0139C6.31869 30.9249 6.40496 30.8103 6.45996 30.68C6.70592 30.1959 6.91648 29.6946 7.08997 29.18C7.70997 27.99 8.14997 26.73 8.83997 25.6C9.41053 24.6356 10.1066 23.7512 10.91 22.97C11.0444 22.7899 11.1915 22.6195 11.35 22.46C11.4596 22.3602 11.59 22.2859 11.7318 22.2427C11.8736 22.1995 12.0233 22.1883 12.17 22.21C12.55 22.34 12.92 22.15 13.36 22.15C13.42 22.15 13.42 22.15 13.49 22.09C14.37 21.9 14.6799 22.28 14.9299 22.97C15.2359 23.5914 15.3869 24.2776 15.3699 24.97C15.3756 25.3072 15.4192 25.6426 15.4999 25.97C15.56 26.2603 15.56 26.5598 15.4999 26.85C15.4299 27.16 15.3699 27.47 15.3099 27.85C15.2499 28.23 15.0599 28.85 14.9299 29.36C14.939 29.5289 14.9187 29.6981 14.8699 29.86C15.0627 29.9635 15.2826 30.0054 15.4999 29.98L17.8199 29.8H21.08C21.48 29.835 21.8775 29.8951 22.27 29.98C22.1962 30.1127 22.1126 30.2397 22.02 30.36C21.8926 30.4884 21.7437 30.5933 21.58 30.67C21.14 30.86 20.64 31.11 20.2 31.3C20.2 31.3159 20.1936 31.3312 20.1824 31.3425C20.1711 31.3537 20.1559 31.36 20.14 31.36C19.4182 31.5351 18.6817 31.6423 17.9399 31.68C17.4931 31.6793 17.0485 31.7433 16.6199 31.87C16.356 31.9569 16.085 32.0205 15.8099 32.06L14.3699 32.24C14.1099 32.31 13.99 32.49 13.86 32.75C13.8 32.81 13.8 32.87 13.74 32.93C12.99 35.07 11.98 37.08 11.16 39.15C11.0429 39.3736 10.9394 39.604 10.85 39.84C10.537 40.4397 10.2857 41.0696 10.1 41.72C9.89152 42.2936 9.61629 42.8407 9.27997 43.35C9.02997 43.79 9.08997 44.35 8.77997 44.79C7.8582 47.608 7.39233 50.5551 7.39996 53.52C7.47869 54.5041 7.69063 55.473 8.02997 56.4C8.17606 56.6809 8.36499 56.9373 8.58997 57.16C8.65997 57.16 8.71997 57.22 8.83997 57.22C9.60728 57.3006 10.3827 57.1942 11.1 56.91C11.48 56.65 13.36 55.15 13.74 54.83C15.1381 53.4698 16.3792 51.957 17.4399 50.32C18.0099 49.25 18.3199 47.87 18.8799 46.86C19.1299 46.24 19.76 44.86 20.08 44.17C20.39 44.25 20.83 44 20.77 44.19ZM11.04 34.9C11.67 33.33 11.86 32.08 9.77997 33.39C9.08997 35.46 8.83997 36.91 8.27997 38.85C6.89997 44.06 8.90997 40.17 9.77997 37.85C10.1337 36.8397 10.5547 35.8542 11.04 34.9ZM12.99 27.68C13.05 27.43 13.11 27.12 13.17 26.8C13.24 26.3 13.36 25.8 13.42 25.3C13.465 24.7329 13.4448 24.1625 13.36 23.6C13.3 23.35 13.11 23.29 12.99 23.42C12.7374 23.5589 12.5372 23.7767 12.42 24.04C12.1484 24.5575 11.937 25.1044 11.79 25.67C11.73 25.86 11.6 26.05 11.54 26.24C11.48 26.43 11.29 26.74 11.16 27.06C11.04 27.68 10.91 28.37 10.73 29.06C10.47 30.69 12.23 30.76 12.61 29.63C12.71 29 12.86 28.37 12.99 27.7V27.68Z" fill="#2C3847"/>
<path d="M24.71 46.38C25.5568 44.2788 26.5182 42.2257 27.59 40.23C27.9851 39.671 28.3425 39.0864 28.66 38.48C29.0368 37.9856 29.3713 37.4604 29.66 36.91C29.7613 36.7181 29.9033 36.5507 30.076 36.4194C30.2487 36.2882 30.448 36.1962 30.66 36.15C31.1 36.15 31.47 36.09 31.85 36.09C32.6 36.09 33.04 36.66 33.42 37.47V37.7C33.54 38.52 33.73 39.3999 33.86 40.2799C33.9401 41.1141 33.9601 41.9529 33.92 42.79C33.95 43.3529 33.95 43.917 33.92 44.48C34.23 44.67 34.17 44.92 34.23 44.86C34.29 44.8 34.7999 44.92 34.9299 44.79C35.0599 44.66 35.1099 44.61 35.1799 44.48C35.4589 44.2836 35.711 44.0516 35.9299 43.79C36.1199 43.48 36.3099 43.48 36.5599 43.79C36.5638 43.8876 36.5429 43.9847 36.4991 44.0721C36.4554 44.1595 36.3904 44.2344 36.3099 44.29C36.2271 44.3838 36.1627 44.4924 36.1199 44.61C36.0918 44.705 36.0432 44.7927 35.9775 44.867C35.9119 44.9413 35.8308 45.0003 35.74 45.04L35.55 45.23C35.49 45.3 35.36 45.36 35.36 45.42C35.36 45.48 35.2399 45.48 35.1799 45.55C35.0957 45.6502 34.9899 45.7302 34.8704 45.7839C34.7509 45.8376 34.6209 45.8636 34.49 45.86C34.2812 45.8913 34.0844 45.9775 33.92 46.11C33.8517 46.1725 33.7625 46.2072 33.67 46.2072C33.5774 46.2072 33.4882 46.1725 33.42 46.11C32.9903 45.9172 32.5495 45.7503 32.1 45.61C31.7052 45.472 31.3502 45.2395 31.066 44.9327C30.7819 44.6259 30.5773 44.2541 30.47 43.85C30.1217 42.6923 30.0566 41.468 30.28 40.2799C30.3736 39.7607 30.4371 39.2365 30.47 38.71C30.53 38.33 30.59 37.95 30.66 37.58C30.7681 37.3663 30.7896 37.1191 30.72 36.89C30.66 36.89 30.53 36.82 30.53 36.95C30.4323 37.0409 30.3481 37.1452 30.28 37.26C30.03 37.77 29.72 38.26 29.4 38.83C29.2025 39.1782 29.0767 39.5624 29.03 39.96C29.09 40.21 28.9 40.4 28.84 40.59C28.2561 41.6291 27.7706 42.7205 27.39 43.85C27.08 44.73 26.64 45.48 26.27 46.36C25.6381 47.6271 25.0707 48.9255 24.5699 50.25C24.4499 50.69 24.1899 51.19 24.0099 51.7C23.4254 52.9894 22.7329 54.2271 21.9399 55.4C21.9399 55.52 21.7499 55.59 21.6199 55.71C21.3421 56.1271 20.9255 56.4323 20.4441 56.5714C19.9626 56.7105 19.4475 56.6746 18.99 56.47C18.86 56.59 18.74 56.47 18.61 56.34C17.61 56.09 17.1 55.15 16.85 53.89C16.6918 52.8109 16.6282 51.7201 16.66 50.63C16.73 49 16.79 47.37 16.91 45.73C17.0022 44.589 17.1929 43.4581 17.48 42.35C17.6265 40.8012 17.9866 39.2801 18.55 37.83C18.6656 37.4225 18.8127 37.0246 18.99 36.64C19.43 35.51 19.8 34.5 20.3 33.5C20.55 32.68 20.8099 32.56 21.4299 32.68C21.96 32.7137 22.4856 32.7974 22.9999 32.93C23.4731 33.0104 23.9117 33.2296 24.2599 33.5599C24.7331 34.3293 25.2862 35.0467 25.91 35.7C26.1937 36.131 26.3706 36.6233 26.4263 37.1363C26.4819 37.6493 26.4147 38.1682 26.23 38.65C25.91 39.91 25.79 38.97 25.47 40.29C24.66 42.92 23.15 44.99 22.47 47.38C21.52 50.4 24.41 47.45 24.71 46.38Z" fill="#2C3847"/>
<path d="M59.36 44.5599C59.173 45.3513 58.8333 46.0986 58.36 46.7599C58.18 46.8199 58.11 47.0099 57.99 47.0699C57.7775 47.3575 57.547 47.6314 57.3 47.8899C57.138 48.0019 57.0073 48.1533 56.92 48.3299C56.7505 48.6492 56.4893 48.9104 56.17 49.0799C56.04 49.1281 55.9282 49.2155 55.85 49.3299C55.4535 49.7472 55.0363 50.1443 54.6 50.5199C54.2562 50.8174 53.8493 51.0328 53.41 51.1499C52.88 51.2208 52.3554 51.3277 51.84 51.4699C51.3638 51.6042 50.8794 51.7077 50.39 51.7799H49.83C49.0723 51.6187 48.3505 51.3205 47.7 50.8999C47.5992 50.8271 47.4921 50.7635 47.38 50.7099C46.7976 50.4906 46.2811 50.1257 45.88 49.6499C45.4102 49.8681 44.9673 50.1399 44.56 50.4599C44.3168 50.5849 44.0858 50.7322 43.8699 50.8999C43.8219 50.9073 43.7769 50.9281 43.74 50.9599C43.37 51.4699 42.86 51.5299 42.36 51.7199C41.9405 51.8605 41.4971 51.9162 41.0559 51.8836C40.6146 51.851 40.1843 51.7307 39.79 51.5299C39.4908 51.3548 39.1761 51.2075 38.85 51.0899C38.0056 50.778 37.2713 50.2251 36.738 49.4999C36.2047 48.7746 35.896 47.9089 35.85 47.0099C35.7252 46.0409 35.8996 45.0569 36.35 44.1899C36.7573 43.3573 37.2607 42.5753 37.85 41.8599C37.85 41.7999 37.92 41.7399 37.98 41.6799C38.8205 40.4351 39.732 39.2398 40.71 38.0999C41.4047 37.3381 42.2064 36.6813 43.09 36.1499C43.271 36.0754 43.4642 36.0347 43.66 36.0299C44.0524 35.9537 44.4504 35.9102 44.85 35.8999H45.04C45.4708 36.0416 45.9122 36.1486 46.36 36.2199C46.476 36.2881 46.6059 36.3291 46.74 36.3399C47.05 36.4099 47.2999 36.4099 47.4299 36.6599C47.4613 36.6938 47.504 36.7151 47.55 36.7199C47.86 36.7199 48.1199 37.0299 48.4299 37.0299C48.5454 37.0353 48.6552 37.0814 48.74 37.1599C49.1467 37.4858 49.5067 37.866 49.81 38.2899C49.87 38.4799 49.93 38.5999 50 38.7899C50.0826 39.0316 50.0696 39.2958 49.9636 39.5283C49.8576 39.7607 49.6666 39.9438 49.4299 40.0399C48.8738 40.3187 48.3478 40.6538 47.86 41.0399V41.0999C47.1079 41.7504 46.4151 42.4666 45.79 43.2399C45.5551 43.5235 45.3047 43.7939 45.04 44.0499C44.48 44.6799 44.04 45.3699 43.53 46.0499C43.35 46.3599 43.09 46.6799 42.91 46.9299C42.8033 47.0357 42.7183 47.1614 42.66 47.2999C42.2963 47.9478 42.0397 48.6502 41.9 49.3799C41.84 49.4399 41.9 49.4999 41.9 49.6299C41.9934 49.581 42.0779 49.5168 42.15 49.4399C42.7956 48.7845 43.4874 48.1763 44.22 47.6199C44.6181 47.3298 44.9574 46.9667 45.22 46.5499C45.3641 46.3443 45.5319 46.1563 45.72 45.9899C46.1064 45.5538 46.4638 45.0928 46.79 44.6099C47.22 43.9199 47.66 43.2299 48.1 42.4699C48.3483 42.4104 48.608 42.42 48.8513 42.4976C49.0945 42.5751 49.312 42.7177 49.48 42.9099L49.86 43.2899C50.2259 43.8262 50.4211 44.4606 50.42 45.1099C50.4067 45.2217 50.3654 45.3283 50.3 45.4199C50.05 45.9899 49.73 46.6099 49.42 47.1799C49.2353 47.5937 49.1695 48.0508 49.23 48.4999C49.3681 49.0406 49.559 49.5665 49.8 50.0699C49.8594 50.1648 49.9419 50.2431 50.0399 50.2973C50.1378 50.3516 50.248 50.38 50.36 50.3799C50.8115 50.3338 51.2551 50.2296 51.6799 50.0699C52.0897 49.8856 52.4872 49.6752 52.8699 49.4399C53.3099 49.1899 53.75 48.9399 54.25 48.6199C54.57 48.3099 54.94 48.0599 55.25 47.7399C56.06 46.9299 57.32 44.8599 58.13 44.0399C58.2 43.9799 58.26 43.9799 58.32 43.9199C58.7276 44.013 59.0932 44.2379 59.36 44.5599Z" fill="#2C3847"/>
<path d="M78.8099 45.19C78.6377 45.6767 78.5334 46.1849 78.4999 46.7C78.4299 46.88 78.0599 47.07 77.9299 47.2C77.8099 47.58 75.74 48.08 75.55 48.08C74.92 48.45 73.29 47.32 73.1 47.26C73.1 47.26 72.22 46.63 72.16 46.57C72.1 46.51 71.09 45.57 70.97 45.44C70.4 44.37 70.09 44.06 69.52 43.06C69.1308 43.6244 68.8149 44.236 68.58 44.88C68.08 45.82 67.7 46.82 67.08 47.83C66.89 47.95 66.82 48.14 66.7 48.27C66.4832 48.8933 66.1156 49.4533 65.6299 49.9C65.2643 50.4011 64.9682 50.9494 64.7499 51.53C64.7499 51.59 64.6899 51.78 64.6899 51.84C64.6892 52.248 64.5558 52.6446 64.3099 52.97C63.9264 53.4041 63.6096 53.8928 63.3699 54.42C63.0747 55.2895 62.502 56.0378 61.74 56.55C61.6554 56.6696 61.5428 56.7668 61.412 56.833C61.2813 56.8992 61.1365 56.9325 60.99 56.93C60.7579 56.9386 60.5257 56.9151 60.3 56.86C59.921 56.8804 59.5437 56.9238 59.17 56.99C58.9823 57.092 58.7753 57.1535 58.5624 57.1706C58.3495 57.1877 58.1353 57.1601 57.9337 57.0894C57.7321 57.0188 57.5476 56.9067 57.3919 56.7604C57.2363 56.6141 57.113 56.4369 57.03 56.24C56.275 55.481 55.4589 54.7853 54.59 54.16C54.0052 53.474 53.6548 52.6191 53.59 51.72C53.619 51.2559 53.6825 50.7947 53.78 50.34C54.03 49.4 54.16 48.27 54.41 47.26C54.6 46.51 54.72 45.75 54.91 44.94C55.35 43.18 55.66 41.49 56.1 39.86C56.3948 38.9134 56.6254 37.9478 56.79 36.97C56.8199 36.377 56.9036 35.7879 57.04 35.21C57.11 34.59 57.04 34.84 57.11 34.33C57.1439 34.1536 57.2082 33.9844 57.3 33.83C57.4024 33.7768 57.5202 33.7606 57.6332 33.7843C57.7462 33.808 57.8475 33.8701 57.92 33.96C58.0111 34.096 58.1186 34.2203 58.24 34.33C58.49 34.65 58.36 34.71 58.8 34.71C58.8769 34.724 58.9502 34.7533 59.0155 34.7962C59.0808 34.8392 59.1367 34.8949 59.1799 34.96C59.5124 35.4559 59.9367 35.8836 60.4299 36.22C60.6799 36.72 61.1199 37.03 61.1899 37.66C60.9782 37.6698 60.7661 37.6496 60.5599 37.6C60.4707 37.7608 60.419 37.9396 60.4086 38.1232C60.3982 38.3067 60.4294 38.4902 60.4999 38.66C60.7546 39.3235 60.8802 40.0295 60.8699 40.74C60.8699 41.05 60.9399 41.36 60.9399 41.55C61.1463 42.3051 61.2307 43.0883 61.1899 43.87V44.37C61.2499 45 61.2499 45.63 61.2499 46.26C61.2087 46.7406 61.2289 47.2245 61.3099 47.7C61.3389 48.0059 61.2725 48.3133 61.1199 48.58L60.9399 48.52C60.8699 48.2 60.8699 47.95 60.8099 47.7C60.8099 47.64 60.6799 47.58 60.6199 47.51C60.5599 47.44 60.4999 47.39 60.4299 47.51C60.3599 47.63 60.3099 47.64 60.3099 47.7C60.3099 48.39 60.3099 49.02 60.3699 49.65C60.4546 49.9763 60.4749 50.316 60.4299 50.65C60.3978 50.7463 60.393 50.8496 60.416 50.9484C60.4389 51.0472 60.4887 51.1378 60.5599 51.21C60.6199 51.21 60.8099 51.28 60.8699 51.21C60.9299 51.14 60.9999 51.09 60.9399 50.96C60.9152 50.5551 60.9765 50.1495 61.1199 49.77L61.2499 49.65C61.2499 49.71 61.3099 49.77 61.3099 49.9C61.4132 50.2228 61.4573 50.5616 61.4399 50.9C61.4712 51.0293 61.5113 51.1563 61.5599 51.28C61.5588 51.3499 61.5837 51.4176 61.6299 51.47C61.3099 51.9 61.6899 52.03 61.7499 52.34C61.8697 52.275 61.9779 52.1905 62.0699 52.09C63.0522 50.9882 63.9513 49.815 64.7599 48.58L65.7 47.26C66.1318 46.691 66.4694 46.0562 66.7 45.38C66.8418 44.8919 67.054 44.427 67.33 44C68.02 42.37 68.14 43.43 68.58 42C68.5103 41.3632 68.3831 40.734 68.2 40.12C68.2 38.93 67.89 38.99 68.64 38.8C69.178 38.8554 69.7061 38.9832 70.21 39.18C70.59 39.36 70.28 39.43 70.72 39.43C70.9342 39.402 71.1517 39.4441 71.34 39.55C71.4038 39.5801 71.4597 39.6246 71.5031 39.6802C71.5465 39.7358 71.5763 39.8008 71.59 39.87C71.59 39.99 71.66 40.05 71.72 40.24C71.9016 41.8296 72.3477 43.3776 73.04 44.82C73.6 45.26 74.29 46.96 75.55 46.71C76.0627 46.4921 76.5868 46.3018 77.1199 46.14C77.6799 46.02 78.1199 45.33 78.6799 45.01C78.7058 44.9875 78.7361 44.9706 78.7687 44.9603C78.8014 44.95 78.8358 44.9465 78.8699 44.95C78.9399 45.06 78.8699 45.13 78.8099 45.19ZM60.36 44.75L60.42 44.88C60.42 44.94 60.49 44.88 60.49 44.88C60.521 44.731 60.561 44.5841 60.61 44.44V44.12C60.55 44.06 60.49 44 60.42 44.06C60.35 44.12 60.36 44.25 60.42 44.25C60.4882 44.3082 60.5518 44.3718 60.61 44.44C60.5651 44.5692 60.4767 44.6788 60.36 44.75ZM60.49 45.32C60.49 45.3015 60.4826 45.2837 60.4695 45.2705C60.4564 45.2574 60.4385 45.25 60.42 45.25C60.36 45.25 60.36 45.32 60.36 45.32C60.36 45.32 60.42 45.44 60.42 45.5C60.4647 45.4507 60.4896 45.3866 60.49 45.32ZM60.55 45.88V45.94H60.61C60.61 45.88 60.61 45.88 60.55 45.88ZM60.9299 52.09C60.8599 52.22 60.8 52.22 60.8 52.28C60.8 52.2959 60.8063 52.3112 60.8175 52.3225C60.8288 52.3337 60.8441 52.34 60.86 52.34C60.8968 52.3083 60.9419 52.2875 60.99 52.28C60.93 52.22 60.9299 52.22 60.9299 52.09ZM60.99 51.53C61.0172 51.5223 61.041 51.5059 61.058 51.4833C61.0751 51.4608 61.0842 51.4333 61.0842 51.405C61.0842 51.3768 61.0751 51.3493 61.058 51.3267C61.041 51.3042 61.0172 51.2878 60.99 51.28H60.9299C60.9299 51.34 60.86 51.4 60.86 51.53C60.86 51.66 60.9299 51.53 60.9299 51.65L60.99 51.53Z" fill="#2C3847"/>
<path d="M81.0699 44.37C81.0587 44.4402 81.0299 44.5063 80.9862 44.5622C80.9425 44.6182 80.8853 44.6622 80.8199 44.69C80.7636 44.7202 80.7163 44.7648 80.6829 44.8193C80.6495 44.8738 80.6313 44.9361 80.6299 45C80.5699 45.25 80.4999 45.32 80.3199 45.38C80.1399 45.44 80.1899 45.5 80.1299 45.88C80.2499 45.88 80.3199 45.88 80.3799 45.94V46.01H79.9399C79.9861 45.8441 80.0064 45.6721 79.9999 45.5H79.8799C79.8099 45.94 79.7499 46.38 79.6899 46.82C79.8099 46.88 79.8799 46.95 79.9399 46.95C79.9899 47.3647 80.0099 47.7825 79.9999 48.2C80.0114 48.5891 80.0962 48.9725 80.2499 49.33C80.4399 49.58 80.9399 50.96 81.1299 51.21C82.0099 52.09 83.1299 53.21 84.1299 53.29C84.9532 53.2418 85.772 53.1349 86.58 52.97C88.1553 52.4733 89.6239 51.6865 90.91 50.65C91.97 49.83 92.98 48.89 94.05 48.01L94.23 47.83C94.61 47.39 94.99 47.01 95.36 46.57C96.0553 45.8954 96.6878 45.1591 97.2499 44.37C97.3962 44.0343 97.6642 43.7663 97.9999 43.62C97.8985 44.1619 97.7306 44.6892 97.4999 45.19C97.4317 45.3784 97.3224 45.5492 97.1799 45.69C96.8138 46.0899 96.4982 46.5332 96.24 47.01C96.05 47.26 95.8 47.51 95.61 47.76C95.55 47.83 95.49 47.95 95.36 48.14C95.55 48.08 95.6799 48.01 95.8699 47.95C95.7999 48.33 95.4899 48.39 95.4299 48.7C95.4899 48.77 95.49 48.83 95.61 48.89C95.4427 49.1731 95.2337 49.4293 94.99 49.65C94.6017 49.97 94.2436 50.3248 93.92 50.71C93.3624 51.3058 92.7533 51.8512 92.1 52.34C91.8266 52.5944 91.5322 52.8252 91.22 53.03C90.97 53.22 90.72 53.35 90.47 53.54C90.079 53.7194 89.7013 53.9266 89.34 54.16C88.7262 54.5478 88.0493 54.8253 87.34 54.98L86.78 55.17C86.0458 55.402 85.2876 55.5496 84.52 55.61C82.6914 55.5319 80.8787 55.2365 79.1199 54.73C76.9199 53.85 76.48 52.78 75.48 51.9C75.0819 51.5437 74.7793 51.0933 74.6 50.59C74.3275 49.7357 74.1793 48.8466 74.16 47.95C74.1851 46.0157 74.6358 44.1106 75.48 42.37C75.67 41.99 75.67 41.99 75.61 41.43C75.46 41.4905 75.3255 41.584 75.2165 41.7034C75.1075 41.8228 75.0266 41.9652 74.98 42.12C74.7781 42.6842 74.5271 43.2296 74.23 43.75C74.2709 43.2641 74.4176 42.7931 74.66 42.37C75.1489 41.2525 75.738 40.1814 76.42 39.17C77.0869 38.1259 77.8648 37.1569 78.74 36.28C79.5734 35.3644 80.525 34.5641 81.5699 33.9C81.7859 33.8056 81.9963 33.6988 82.2 33.58C82.51 33.46 82.8199 33.39 83.0099 33.71C83.1999 34.03 83.45 33.83 83.58 33.96C83.71 34.09 83.83 34.33 83.95 34.46C84.58 34.77 86.95 35.4 87.53 35.78C87.7275 35.9495 87.8789 36.1662 87.97 36.41C88.2115 36.9835 88.5497 37.5111 88.97 37.97C89.0928 38.1401 89.178 38.3344 89.22 38.54C89.38 39.2849 89.38 40.0552 89.22 40.8C89.0692 41.6701 88.7499 42.5024 88.28 43.25C88.0125 43.6659 87.7816 44.1042 87.59 44.56C87.437 45.0062 87.2251 45.4299 86.96 45.82C86.8458 46.0456 86.6867 46.2454 86.4923 46.4071C86.298 46.5687 86.0725 46.6889 85.83 46.76C85.4623 46.9442 85.0467 47.0105 84.64 46.95C84.45 46.88 84.27 46.95 84.14 46.7C84.1414 46.6913 84.141 46.6825 84.1386 46.674C84.1363 46.6655 84.1321 46.6577 84.1263 46.651C84.1206 46.6443 84.1135 46.6389 84.1055 46.6353C84.0975 46.6317 84.0888 46.6299 84.08 46.63C83.58 46.7 83.26 46.13 82.89 45.94C82.8175 45.8515 82.7723 45.7438 82.7599 45.63C82.8899 45.38 82.76 45.25 82.7 45.06C82.4542 44.526 82.1805 44.0052 81.8799 43.5C81.8199 43.31 81.6299 43.25 81.4399 43.43C81.2499 43.61 81.0699 44 81.0699 44.37ZM75.0699 50.02C75.1299 50.21 75.1899 50.34 75.2499 50.52C75.3099 50.7 75.4399 50.84 75.3199 51.09C75.2499 51.03 75.1899 51.03 75.1899 50.96C74.9186 50.2347 74.7569 49.473 74.71 48.7C74.64 48.64 74.71 48.58 74.71 48.52C74.6694 47.5897 74.7535 46.6581 74.96 45.75C75.0294 45.5709 75.0699 45.3819 75.08 45.19V44.75C74.9288 45.0309 74.8049 45.3256 74.71 45.63C74.64 45.94 74.58 46.19 74.52 46.51C74.2001 48.0083 74.3755 49.5701 75.02 50.96C75.1667 51.2038 75.334 51.4347 75.52 51.65C75.6428 51.7697 75.7943 51.8558 75.96 51.9C75.96 51.97 76.03 51.9 76.15 51.9C75.9573 51.6258 75.79 51.3345 75.65 51.03C75.46 50.65 75.46 50.27 75.27 49.96C75.2406 49.9583 75.2112 49.9627 75.1836 49.973C75.156 49.9833 75.131 49.9994 75.11 50.02H75.0699ZM75.0699 46.02C74.8088 46.9578 74.7644 47.9426 74.9399 48.9C74.9399 48.97 74.9999 48.97 75.0699 49.03C75.1299 48.34 75.1899 47.71 75.2499 47.08C75.3642 46.6677 75.3431 46.2295 75.1899 45.83C75.1699 45.88 75.11 45.94 75.11 46.01L75.0699 46.02ZM82.97 41C82.8111 41.222 82.6642 41.4523 82.53 41.69C82.28 42.13 82.35 42.44 82.66 42.63C82.875 42.7365 83.0656 42.8863 83.22 43.07C83.6 43.51 84.1 43.44 84.6 43.38C85.0478 43.1852 85.4052 42.8279 85.6 42.38C86.04 41.31 86.29 41.12 86.67 40.05C87.67 37.67 85.67 38.23 84.67 38.99C84.0401 39.5893 83.4829 40.2605 83.0099 40.99L82.97 41Z" fill="#2C3847"/>
<path d="M114.2 47.2C113.89 47.83 112.82 49.2 112.82 49.9C112.708 50.0201 112.58 50.1244 112.44 50.21C112.23 50.4279 112.06 50.682 111.94 50.96C111.813 51.202 111.666 51.4328 111.5 51.65C110.775 53.0878 109.8 54.3848 108.62 55.48C108.24 55.8 104.91 59 104.62 59.31C102.8 60.82 100.36 60.13 98.54 60.19C98.086 60.2187 97.632 60.1328 97.22 59.94C96.4114 59.6125 95.6667 59.1454 95.02 58.56C94.46 57.18 93.02 56.24 92.89 54.29C92.83 53.79 92.5699 53.47 92.5099 52.97C92.5699 50.97 92.89 48.97 93.14 46.88C93.52 45.44 93.83 43.88 94.08 42.43C94.4556 40.5162 95.1306 38.6736 96.08 36.97C96.71 35.34 97.27 35.21 97.9 33.58C98.3289 32.715 98.8098 31.8768 99.34 31.07C99.7946 30.1125 100.319 29.19 100.91 28.31C102.007 26.3744 103.312 24.5637 104.8 22.91C105.74 21.97 106.8 20.97 107.69 20.15C108.192 19.6889 108.762 19.3078 109.38 19.02C109.558 18.9119 109.75 18.8278 109.95 18.77C110.395 18.6696 110.859 18.6896 111.294 18.8278C111.729 18.9661 112.119 19.2178 112.425 19.5568C112.73 19.8959 112.94 20.3102 113.032 20.7572C113.124 21.2042 113.096 21.6676 112.95 22.1C112.82 22.85 112.76 23.6 112.57 24.29C112.467 24.8907 112.253 25.467 111.94 25.99C111.51 27.0697 110.964 28.0992 110.31 29.06C109.87 29.88 109.37 30.69 108.93 31.51C108.18 32.64 107.55 33.83 106.8 34.9C105.48 36.66 104.35 38.54 103.16 40.3C101.16 43.62 101.4 44.19 100.71 47.51C100.552 48.6327 100.488 49.7667 100.52 50.9C100.58 51.28 100.77 53.72 100.84 53.98C100.991 54.6796 101.244 55.3534 101.59 55.98C101.71 56.24 102.59 56.42 102.91 56.55C103.35 56.86 106.67 54.55 107.11 54.29C108.109 53.613 109.017 52.8097 109.81 51.9C110.656 50.9627 111.394 49.9328 112.01 48.83C113.13 47.32 113.51 46.07 114.7 44.44C115.58 44.31 115.08 45.63 114.2 47.2ZM104.2 35.9C105.704 33.5909 107.086 31.2042 108.34 28.75C109.03 27.43 109.6 26.11 110.29 24.8C110.584 23.8774 110.795 22.9303 110.92 21.97C111.04 21.66 111.04 21.47 110.73 21.6C110.479 21.6481 110.243 21.7543 110.04 21.91C109.151 22.2733 108.401 22.9109 107.9 23.73C107.46 24.23 107.15 24.8 106.65 25.3C106.126 25.9439 105.741 26.6897 105.52 27.49C105.21 28.12 104.89 28.87 104.58 29.49C104.096 30.8568 103.528 32.1926 102.88 33.49C102.63 34.11 102.44 34.8 102.19 35.43C101.44 37.56 101.75 36.5 101.06 38.63C100.88 39.13 101 40.63 101.82 39.7C102.71 38.29 103.35 37.35 104.16 35.9H104.2Z" fill="#2C3847"/>
</svg>
