<svg width="141" height="56" viewBox="0 0 141 56" fill="none" xmlns="http://www.w3.org/2000/svg">
<path d="M59.55 0.629042C61.3333 -0.134105 63.337 -0.205422 65.17 0.42903C66.0826 0.743189 66.9448 1.18781 67.73 1.74904C68.46 2.25904 69.09 2.74902 69.73 3.13902C70.09 3.36902 70.44 3.58903 70.78 3.76903C71.9308 4.3802 73.2069 4.71799 74.5093 4.75615C75.8117 4.7943 77.1054 4.53179 78.29 3.98903C78.36 4.12903 78.23 4.44904 78.49 4.40904C79.49 4.17904 79.66 4.40904 79.82 4.65904C79.82 4.72904 79.68 4.83903 79.53 4.92903C79.38 5.01903 79.25 5.06901 79.41 5.06901C78.68 5.49901 77.31 5.97902 78.18 5.85902C78.4757 5.83207 78.7639 5.75071 79.03 5.61903C79.2956 5.47042 79.5878 5.3753 79.89 5.33903C80.26 5.33903 79.89 5.90902 80.23 5.94902C80.5986 5.73443 80.9557 5.50079 81.3 5.24904C81.65 5.17904 81.3 5.81903 81.57 5.61903C82.6441 4.96965 83.5354 4.05773 84.16 2.96904C84.22 2.96904 84.33 2.96904 84.39 2.96904C84.45 2.96904 84.46 3.08904 84.28 3.40904C82.9417 5.32366 81.0601 6.79301 78.8781 7.62727C76.6962 8.46154 74.3143 8.62239 72.04 8.08903C71.2607 7.90412 70.5056 7.62891 69.79 7.26903C69.0985 6.9328 68.4448 6.52382 67.84 6.04903C66.9174 5.27923 65.9305 4.59003 64.89 3.98903C64.0205 3.57875 63.0578 3.40623 62.1 3.48903C61.151 3.57359 60.244 3.91975 59.48 4.48903C58.6969 5.05704 58.0791 5.82327 57.69 6.70903C57.34 7.48903 57.2 6.80904 57.32 6.02904C57.32 6.27904 57.07 6.17902 57.05 6.44902C56.84 6.37902 56.62 5.70903 57.21 4.73903C57.05 4.95903 56.9 5.19904 56.76 5.43904C56.62 5.67904 56.56 5.32904 56.42 5.24904C56.57 4.98904 56.73 4.74903 56.67 4.70903L56.41 4.53902C56.1811 4.8787 55.9804 5.23657 55.81 5.60902C55.93 5.32902 56.09 5.05903 56.02 5.01903L55.75 4.86903C56.1112 4.2133 56.566 3.61368 57.1 3.08903L56.93 2.91902C56.348 3.4417 55.8697 4.06931 55.52 4.76903C55.62 4.43903 55.52 4.39901 55.43 4.31901C56.0059 3.45972 56.6768 2.66808 57.43 1.95903C57.1519 2.17191 56.8849 2.39886 56.63 2.63902C56.8808 2.13443 57.2876 1.72415 57.79 1.46904C58.3505 1.1372 58.9395 0.85609 59.55 0.629042Z" fill="#FD8D55"/>
<path d="M59.55 48.0891C61.3345 47.3292 63.3382 47.2615 65.17 47.8991C66.0825 48.2133 66.9448 48.6579 67.73 49.2191C68.46 49.7191 69.09 50.2191 69.73 50.6091C70.09 50.8424 70.44 51.0524 70.78 51.2391C71.12 51.4291 71.44 51.5491 71.78 51.6991C72.4727 51.9538 73.1953 52.1185 73.93 52.1891C75.4225 52.3154 76.9227 52.0607 78.29 51.4491C78.36 51.5891 78.23 51.9191 78.49 51.8791C79.49 51.6491 79.66 51.8791 79.82 52.1291C79.82 52.1891 79.68 52.2991 79.53 52.3891C79.38 52.4791 79.25 52.5291 79.41 52.5391C78.68 52.9691 77.31 53.4391 78.18 53.3291C78.476 53.2975 78.7639 53.2128 79.03 53.0791C79.2937 52.9279 79.5872 52.8358 79.89 52.8091C80.26 52.8091 79.89 53.3791 80.23 53.4191C80.5986 53.2045 80.9557 52.9709 81.3 52.7191C81.65 52.6391 81.3 53.2891 81.57 53.0891C82.6442 52.4355 83.5353 51.5204 84.16 50.4291C84.22 50.4791 84.33 50.4291 84.39 50.4891C84.45 50.5491 84.46 50.6091 84.28 50.9291C82.9417 52.8437 81.06 54.3131 78.8781 55.1473C76.6962 55.9816 74.3143 56.1424 72.04 55.6091C71.2606 55.4242 70.5055 55.149 69.79 54.7891C69.1005 54.4492 68.4472 54.0404 67.84 53.5691C66.9174 52.7993 65.9304 52.1101 64.89 51.5091C64.0239 51.0873 63.0599 50.9076 62.1 50.9891C61.151 51.0736 60.244 51.4198 59.48 51.9891C58.6972 52.5533 58.0793 53.3162 57.69 54.1991C57.34 54.9891 57.2 54.3091 57.32 53.5291C57.32 53.7791 57.07 53.6791 57.05 53.9391C56.84 53.8691 56.62 53.1991 57.21 52.2391C57.0485 52.4614 56.8983 52.6917 56.76 52.9291C56.56 53.1391 56.56 52.8191 56.42 52.7491C56.57 52.4891 56.73 52.2491 56.67 52.1991L56.41 52.0291C56.1789 52.371 55.9782 52.7323 55.81 53.1091C55.93 52.8291 56.09 52.5591 56.02 52.5191L55.75 52.3691C56.1194 51.7048 56.5844 51.0983 57.13 50.5691L56.96 50.4091C56.3758 50.9298 55.8972 51.5578 55.55 52.2591C55.65 51.9291 55.55 51.8891 55.46 51.8091C56.0357 50.9466 56.7066 50.1516 57.46 49.4391C57.1818 49.6554 56.9148 49.8857 56.66 50.1291C56.9125 49.6233 57.3185 49.2102 57.82 48.9491C58.3745 48.6199 58.9528 48.3325 59.55 48.0891Z" fill="#FD8D55"/>
<path d="M11.67 17.699H15.48V17.839C14.71 17.839 14.75 18.039 14.75 18.989V27.219C14.75 28.279 14.87 28.529 15.63 28.529V28.669H10.88V28.489C11.61 28.489 11.67 28.239 11.67 27.179V18.079L7.67001 28.769H7.53L2.48001 19.389V24.499C2.48001 26.499 3.05 28.499 4.86 28.499V28.639H0V28.489C1.66 28.489 2.33 26.489 2.33 24.489V19.189C1.73 18.119 1.23001 17.869 0.790009 17.839V17.699H5.23001L9.01001 24.869L11.67 17.699Z" fill="#2C3847"/>
<path d="M25.92 17.699V17.819C25.26 17.819 24.92 17.819 24.92 19.209V26.9091C24.92 28.3891 25.27 28.5291 25.92 28.5291V28.669H20.77V28.489C21.43 28.489 21.77 28.349 21.77 26.869V19.169C21.77 17.799 21.42 17.7791 20.77 17.7791V17.6591L25.92 17.699Z" fill="#2C3847"/>
<path d="M41.21 24.929L41.37 28.079C40.2214 28.5865 38.9755 28.8357 37.72 28.809C34.38 28.809 31.42 26.709 31.42 23.179C31.42 19.649 34.42 17.559 37.72 17.559C38.9781 17.4682 40.2377 17.7132 41.37 18.269L41.21 21.419H41.1C40.63 18.199 38.87 17.699 37.73 17.699C36 17.699 35.26 18.909 35.26 23.179C35.26 27.449 36.04 28.669 37.73 28.669C38.79 28.669 40.57 28.029 41.1 24.929H41.21Z" fill="#2C3847"/>
<path d="M58.36 28.489V28.6291H55.2499C54.1499 28.6291 53.7999 27.9291 53.4299 25.0291C53.2299 23.4691 51.36 23.569 51.36 23.569H50.6199V26.869C50.6199 28.399 50.6899 28.489 51.3399 28.489V28.6291H46.6799V28.489C47.3499 28.489 47.49 28.489 47.49 26.869V19.169C47.49 18.169 47.3599 17.7791 46.6799 17.7791V17.6591H51.0999C54.1999 17.6591 56.99 18.0291 56.99 20.6591C56.99 22.9891 54.8399 23.479 53.3399 23.479C55.1299 23.479 56.04 23.869 56.8 26.669C56.8737 27.0841 57.0573 27.4718 57.3317 27.7918C57.606 28.1119 57.9611 28.3527 58.36 28.489ZM53.36 20.639C53.36 17.639 52.9499 17.799 51.1299 17.799H50.64V23.489H51.0999C53.0999 23.489 53.3399 23.489 53.3399 20.679L53.36 20.639Z" fill="#2C3847"/>
<path d="M74.47 23.259C74.47 24.7681 73.8705 26.2153 72.8034 27.2824C71.7363 28.3495 70.289 28.949 68.78 28.949C67.2709 28.949 65.8236 28.3495 64.7565 27.2824C63.6894 26.2153 63.09 24.7681 63.09 23.259C63.09 21.7499 63.6894 20.3026 64.7565 19.2355C65.8236 18.1685 67.2709 17.569 68.78 17.569C70.289 17.569 71.7363 18.1685 72.8034 19.2355C73.8705 20.3026 74.47 21.7499 74.47 23.259ZM70.68 23.259C70.68 18.989 70.62 17.699 68.78 17.699C66.94 17.699 66.85 18.989 66.85 23.259C66.85 27.529 66.93 28.669 68.78 28.669C70.63 28.669 70.68 27.549 70.68 23.259Z" fill="#2C3847"/>
<path d="M96.1001 17.6989V17.8189C95.4701 17.8189 94.5201 18.309 93.3901 21.049L90.6601 28.6689H90.1001C88.6501 25.2889 87.7101 23.1089 87.1001 21.6689L84.6001 28.6689H84.1001C80.1701 19.4889 79.9701 19.089 79.9701 19.089C79.4401 17.839 79.2201 17.8489 78.8201 17.8189V17.6989H83.6801V17.8189C82.6801 17.8189 83.4801 19.629 83.4801 19.629L85.8301 24.9789L87.1001 21.489L86.1001 19.0789C85.5601 17.8289 85.3501 17.839 84.9401 17.809V17.689H89.8101V17.809C88.8101 17.809 89.6001 19.619 89.6001 19.619L91.9401 24.9789L93.3401 21.0389C93.7301 19.9289 93.3901 17.809 91.8001 17.809V17.689L96.1001 17.6989Z" fill="#2C3847"/>
<path d="M105.21 17.699H105.29C109.23 26.699 109.49 27.249 109.49 27.249C110.06 28.499 110.59 28.519 110.9 28.549V28.669H105.44V28.549C106.69 28.549 105.75 26.719 105.75 26.719L105.25 25.649H102.25C101.94 26.369 102.25 28.549 104.09 28.549V28.669H99.6V28.549C100.07 28.549 100.91 28.389 102.11 25.649L105.21 17.699ZM103.63 21.999L102.25 25.489H105.19L103.63 21.999Z" fill="#2C3847"/>
<path d="M126.2 17.699V17.819C125.53 17.819 124.54 18.309 123.32 21.049L120.25 28.669H119.8C115.62 19.489 115.4 19.0891 115.4 19.0891C114.84 17.8391 114.61 17.849 114.17 17.819V17.699H119.36V17.819C118.28 17.819 119.14 19.6291 119.14 19.6291L121.56 25.009L123.16 21.009C123.63 19.859 123.35 17.7791 121.48 17.7791V17.6591L126.2 17.699Z" fill="#2C3847"/>
<path d="M140.42 25.619V28.6689H131.31V28.489C131.97 28.489 132.22 27.559 132.22 26.489V19.799C132.22 18.799 132 17.799 131.31 17.799V17.679H140.22V20.869H140.1C140.1 17.869 135.85 17.869 135.85 17.869H135.29V23.089H136.55C136.792 23.0903 137.032 23.0436 137.256 22.9516C137.48 22.8596 137.683 22.7241 137.854 22.553C138.025 22.3819 138.161 22.1785 138.253 21.9547C138.345 21.7308 138.391 21.491 138.39 21.249H138.53V25.0689H138.39C138.387 24.5818 138.193 24.1153 137.848 23.7708C137.504 23.4263 137.037 23.2316 136.55 23.2289H135.29V28.489H135.85C135.85 28.489 140.31 28.6589 140.31 25.5789L140.42 25.619Z" fill="#2C3847"/>
<path d="M37.5 34.679H38.56V38.999H37.5V37.209H35.83V38.999H34.78V34.679H35.83V36.409H37.5V34.679Z" fill="#2C3847"/>
<path d="M45.86 38.9991L45.6199 38.2791H44.0999L43.86 38.9991H42.7L44.2099 34.6591H45.49L46.99 38.9991H45.86ZM44.33 37.489H45.33L44.8199 35.9391L44.33 37.489Z" fill="#2C3847"/>
<path d="M51.1 38.999V34.679H52.15V38.999H51.1Z" fill="#2C3847"/>
<path d="M57.79 37.3189V38.999H56.73V34.679H58.44C58.8637 34.6551 59.2811 34.7907 59.61 35.059C59.7427 35.1768 59.8488 35.3216 59.9212 35.4837C59.9937 35.6458 60.0307 35.8214 60.03 35.999C60.0285 36.2615 59.9522 36.5182 59.81 36.739C59.6252 36.9872 59.3602 37.1639 59.06 37.239L60.12 38.999H58.89L57.89 37.3189H57.79ZM57.79 35.4789V36.4789H58.44C58.5095 36.4822 58.5789 36.4715 58.6442 36.4475C58.7094 36.4234 58.7692 36.3865 58.82 36.339C58.9142 36.2352 58.9644 36.099 58.96 35.959C58.9624 35.8911 58.9513 35.8234 58.9273 35.7598C58.9033 35.6963 58.8668 35.6382 58.82 35.589C58.7708 35.5386 58.7115 35.4992 58.646 35.4734C58.5805 35.4475 58.5103 35.4358 58.44 35.439L57.79 35.4789Z" fill="#2C3847"/>
<path d="M71.42 35.489C71.3047 35.4818 71.1907 35.5175 71.1 35.589C71.0555 35.6246 71.0205 35.6706 70.9978 35.7229C70.9752 35.7752 70.9656 35.8322 70.97 35.889C70.9664 35.9478 70.9753 36.0066 70.996 36.0617C71.0166 36.1169 71.0487 36.167 71.09 36.209C71.1765 36.2914 71.2785 36.356 71.39 36.399L71.81 36.519L72.27 36.659C72.4167 36.7148 72.5574 36.7851 72.69 36.869C72.8226 36.9532 72.927 37.0751 72.99 37.219C73.0741 37.3863 73.1154 37.5718 73.11 37.759C73.1096 37.9383 73.07 38.1153 72.994 38.2777C72.918 38.4401 72.8074 38.5838 72.67 38.699C72.3376 38.969 71.9178 39.1077 71.49 39.089C71.0686 39.108 70.6529 38.9847 70.31 38.739C70.1609 38.6201 70.0424 38.4673 69.9641 38.2934C69.8858 38.1195 69.8502 37.9294 69.86 37.739H70.98C70.9771 37.8089 70.9888 37.8787 71.0146 37.9438C71.0403 38.0088 71.0794 38.0678 71.1294 38.1168C71.1793 38.1658 71.239 38.2038 71.3046 38.2283C71.3702 38.2528 71.4401 38.2632 71.51 38.259C71.575 38.2639 71.6403 38.2559 71.7021 38.2353C71.7639 38.2147 71.821 38.1819 71.87 38.139C71.9118 38.099 71.945 38.0509 71.9674 37.9976C71.9897 37.9442 72.0008 37.8868 72 37.829C72.0022 37.7187 71.963 37.6117 71.89 37.529C71.8014 37.4443 71.6957 37.3795 71.58 37.339L71.16 37.219C71.0039 37.1781 70.8503 37.128 70.7 37.069C70.5587 37.0124 70.4216 36.9455 70.29 36.869C70.1605 36.7785 70.0542 36.6585 69.98 36.519C69.8971 36.3548 69.8559 36.1728 69.86 35.989C69.8476 35.7982 69.8821 35.6073 69.9606 35.433C70.039 35.2587 70.159 35.1062 70.31 34.989C70.6393 34.7369 71.0455 34.6062 71.46 34.619C71.8614 34.6001 72.2581 34.7124 72.59 34.939C72.7397 35.0574 72.8587 35.21 72.937 35.3841C73.0154 35.5581 73.0507 35.7484 73.04 35.939H71.9C71.8874 35.8066 71.8351 35.6811 71.75 35.579C71.6548 35.5095 71.5373 35.4774 71.42 35.489Z" fill="#2C3847"/>
<path d="M80.32 38.9991L80.08 38.2791H78.53L78.29 38.9991H77.16L78.67 34.6591H79.95L81.45 38.9991H80.32ZM78.79 37.489H79.79L79.28 35.9391L78.79 37.489Z" fill="#2C3847"/>
<path d="M85.59 34.679H86.65V38.1989H87.96V38.999H85.59V34.679Z" fill="#2C3847"/>
<path d="M92.56 38.419C92.1504 37.991 91.9219 37.4214 91.9219 36.829C91.9219 36.2366 92.1504 35.6671 92.56 35.239C92.7677 35.0335 93.0146 34.8718 93.286 34.7636C93.5574 34.6553 93.8478 34.6028 94.14 34.609C94.7288 34.609 95.2934 34.8429 95.7097 35.2593C96.1261 35.6756 96.36 36.2402 96.36 36.829C96.36 37.4178 96.1261 37.9825 95.7097 38.3988C95.2934 38.8151 94.7288 39.049 94.14 39.049C93.8478 39.0553 93.5574 39.0027 93.286 38.8945C93.0146 38.7863 92.7677 38.6246 92.56 38.419ZM94.97 37.729C95.1843 37.4795 95.2951 37.1576 95.28 36.829C95.2927 36.4978 95.1823 36.1736 94.97 35.919C94.7461 35.7021 94.4467 35.5809 94.135 35.5809C93.8233 35.5809 93.5238 35.7021 93.3 35.919C93.0877 36.1736 92.9772 36.4978 92.99 36.829C92.9748 37.1576 93.0857 37.4795 93.3 37.729C93.5238 37.9459 93.8233 38.0672 94.135 38.0672C94.4467 38.0672 94.7461 37.9459 94.97 37.729Z" fill="#2C3847"/>
<path d="M103.47 34.6591H104.53V38.9991H103.47L101.71 36.269V38.9991H100.66V34.6591H101.71L103.47 37.399V34.6591Z" fill="#2C3847"/>
</svg>
