<svg width="122" height="41" viewBox="0 0 122 41" fill="none" xmlns="http://www.w3.org/2000/svg">
<path d="M5.28859 12.2499L5.52859 12.1799H5.32859L5.17859 12.2599L5.28859 12.2499Z" fill="#FD8D55"/>
<path d="M2.19854 12.96C1.90642 12.8584 1.59742 12.8143 1.28854 12.83L1.12854 12.9L1.65854 13.06C2.02854 13.17 2.22854 13.09 2.19854 12.96Z" fill="#FD8D55"/>
<path d="M1.12857 12.9001L0.908569 12.8301L1.05857 12.9201H1.12857V12.9001Z" fill="#FD8D55"/>
<path d="M73.5286 11.19C78.6586 11.39 83.8086 11.52 88.9586 11.62C89.1286 11.62 89.2686 11.62 89.2786 11.52C89.2886 11.42 89.1586 11.42 88.9986 11.42C83.8486 11.31 78.7186 11.18 73.5986 10.98C73.4186 10.98 73.2786 10.98 73.2586 11.08C73.2386 11.18 73.3686 11.18 73.5286 11.19Z" fill="#FD8D55"/>
<path d="M111.949 16.92C111.829 16.92 111.829 17.02 111.949 17.06C112.086 17.1 112.231 17.1 112.369 17.06C112.479 17.06 112.469 16.95 112.369 16.92C112.232 16.875 112.085 16.875 111.949 16.92Z" fill="#FD8D55"/>
<path d="M115.149 19.4C111.439 19.24 107.709 19.09 103.969 18.97L104.749 18.82L105.529 18.77C107.939 18.77 110.339 18.72 112.749 18.66C113.659 18.66 114.399 18.43 114.449 18.12C114.499 17.81 113.789 17.56 112.929 17.54L113.349 17.48C113.489 17.48 113.589 17.41 113.549 17.36C113.436 17.2966 113.307 17.2688 113.179 17.28L111.669 17.5C107.089 17.39 102.499 17.43 97.9086 17.5C102.849 17.1267 107.849 16.89 112.909 16.79C112.809 16.79 112.799 16.89 112.909 16.93C113.046 16.97 113.191 16.97 113.329 16.93C113.449 16.93 113.429 16.82 113.329 16.79C116.029 16.74 118.749 16.74 121.469 16.79C121.629 16.79 121.759 16.79 121.759 16.69C121.759 16.59 121.609 16.58 121.429 16.58C112.429 16.44 103.479 16.84 94.7486 17.58H93.3086C93.0783 17.2937 92.7687 17.0815 92.4186 16.97C95.5119 16.8634 98.5952 16.74 101.669 16.6L109.389 16.66C109.759 16.66 110.069 16.56 110.079 16.42C110.089 16.28 109.779 16.2 109.389 16.19H107.499C108.019 16.03 108.359 15.8 108.399 15.54C108.439 15.28 108.169 15.06 107.729 14.89C110.519 14.65 113.269 14.39 115.969 14.04C116.129 14.04 116.209 13.97 116.149 13.91C116.036 13.8473 115.905 13.8261 115.779 13.85C111.859 14 107.999 14.22 104.119 14.39C101.059 14.09 98.0586 13.76 94.7586 13.64C90.13 13.55 85.4999 13.7102 80.8886 14.12C79.2686 14.04 77.6486 13.97 76.0386 13.94C76.2686 13.82 76.3986 13.68 76.3986 13.52C76.4064 13.4838 76.4064 13.4463 76.3986 13.41L80.6786 13.46C94.0886 13.6 106.679 12.55 119.499 11.68C120.319 11.68 120.909 11.39 120.809 11.11C120.709 10.83 119.959 10.62 119.139 10.66C112.989 10.66 107.329 11.14 101.139 11.66C96.7086 12 92.8186 12.25 88.3686 12.49C83.1586 12.76 78.3686 12.7 73.2086 12.7C72.7072 12.6451 72.2027 12.6251 71.6986 12.64L70.1586 12.69C66.1586 12.69 62.2386 12.47 58.3386 12.28C63.0086 12.1 67.6686 11.9 72.2586 11.52C72.5886 11.52 72.8086 11.4 72.7686 11.29C72.7286 11.18 72.4186 11.1 72.0886 11.12C65.6886 11.35 59.2586 11.45 52.8486 11.56C51.0986 10.56 47.3886 10.02 44.0786 9.99002C42.9071 9.98084 41.7368 10.0644 40.5786 10.24L42.1686 10.36C40.7417 10.41 39.3224 10.5907 37.9286 10.9H37.5686C34.4886 10.36 30.8886 10.47 27.5686 10.23C27.6386 10.36 27.7286 10.48 27.7986 10.6C27.1786 10.51 26.7986 10.29 26.1486 10.22L26.7086 10.49C25.8911 10.2859 25.0512 10.1851 24.2086 10.19C21.8207 9.54175 19.3699 9.15283 16.8986 9.03003C16.4431 8.84993 15.9584 8.75502 15.4686 8.75003C15.2215 8.72545 14.9772 8.67858 14.7386 8.61002C12.8527 7.96831 10.9058 7.52264 8.92858 7.28003L10.2086 7.63004C9.54868 7.50756 8.87966 7.44064 8.20858 7.43002L8.44858 7.64001C6.22954 7.12275 3.9077 7.26526 1.76858 8.05002C0.258577 8.80002 0.768574 9.82003 2.96857 10.34L3.28857 10.42C2.35528 10.452 1.446 10.7241 0.648574 11.21C0.358574 11.44 0.648574 11.74 0.648574 12.01C0.558574 12.41 1.43857 12.76 2.64857 12.78C2.94487 12.8009 3.24227 12.8009 3.53857 12.78C4.88857 12.92 6.26857 13.04 7.53857 13.22C7.82916 13.2603 8.12444 13.1927 8.36858 13.03C8.47858 12.94 8.36858 12.83 8.09858 12.79C7.15858 12.61 6.24858 12.41 5.33858 12.21L5.10858 12.28L5.22858 12.19L4.97858 12.13L5.17858 12.08H5.37857C5.50855 12.0243 5.6422 11.9775 5.77858 11.94C7.40858 12.08 9.02858 12.23 10.5486 12.5C10.6386 12.5 10.4886 12.69 10.6586 12.76L10.9086 12.85L10.0386 12.75L8.11858 13.16H8.01858L7.57857 13.26H7.46857H6.94858C6.78191 13.236 6.61185 13.2603 6.45858 13.33C6.3844 13.2824 6.30761 13.239 6.22858 13.2L4.22858 13.03C4.21926 13.0661 4.21926 13.1039 4.22858 13.14C3.96559 13.159 3.70157 13.159 3.43858 13.14C3.05858 13.14 3.05858 13.14 2.09858 13.07L2.55857 13.25L2.15858 13.12L2.25857 13.33L2.07857 13.11L1.89857 13.27L1.09858 12.79L0.508575 12.89C0.444985 12.9164 0.384598 12.95 0.328575 12.99C0.328575 13.05 0.328575 13.05 0.00857505 13.25C-0.00285835 13.296 -0.00285835 13.344 0.00857505 13.39C0.108575 13.46 0.108574 13.46 0.128574 13.65C0.214309 13.7017 0.304706 13.7452 0.398574 13.78L1.16857 13.94L1.02858 14.04C0.918576 14.38 0.918576 14.38 1.63858 15.19C1.95506 15.3549 2.29103 15.4792 2.63858 15.56L4.24858 15.72L4.76858 15.79C4.93079 15.8737 5.08774 15.9672 5.23857 16.07C5.08304 16.0754 4.92866 16.0989 4.77858 16.14C4.38858 16.25 4.32858 16.45 4.65858 16.58C4.22858 17.11 4.48858 17.58 5.02858 18.05C4.95258 18.1211 4.8934 18.2083 4.85534 18.3052C4.81728 18.4021 4.80131 18.5062 4.80857 18.61C4.26339 18.9521 3.84268 19.4605 3.60858 20.06L3.52858 20.5C3.89763 21.0062 4.43765 21.3615 5.04858 21.5L5.28857 21.61L5.05857 21.97C6.05857 22.97 8.05857 23.75 9.32858 24.69L10.2686 25.18C11.206 25.6485 12.2242 25.9336 13.2686 26.02L14.5986 26.16H15.4486C14.0286 26.62 13.2486 27.3 13.5086 28.01C13.9486 29.19 17.1186 30.01 20.5686 29.86C29.7886 29.86 38.6886 29.74 48.1086 29.25C55.1086 28.89 61.4186 28.41 68.2486 28.41C74.7986 27.9 81.0986 27.24 87.4786 26.46C92.8386 25.8 96.9386 24.46 101.679 23.46C101.819 23.46 101.829 23.37 101.759 23.32C101.621 23.28 101.476 23.28 101.339 23.32C93.8086 24.19 86.2286 24.95 78.1686 25.13C77.2386 25.13 76.3286 25.13 75.4286 25.13C75.3222 25.1187 75.2149 25.1187 75.1086 25.13L72.6486 24.97H73.5086C74.0686 24.97 74.5086 24.83 74.5986 24.63C74.6886 24.43 74.5186 24.47 74.3886 24.4C76.4786 24.19 78.5386 23.92 80.5786 23.63C81.1369 23.615 81.6926 23.5481 82.2386 23.43C84.5986 23.58 86.9686 23.68 89.3486 23.82L89.9386 23.88C90.5892 23.9485 91.2462 23.8378 91.8386 23.56C91.9383 23.5204 92.0201 23.4457 92.0686 23.35C97.4886 22.94 102.979 22.63 108.069 21.86C108.329 21.86 108.469 21.73 108.429 21.64C108.541 21.6594 108.656 21.6594 108.769 21.64C109.426 21.4793 110.095 21.3657 110.769 21.3C110.919 21.3 111.009 21.21 110.939 21.17C110.817 21.1009 110.675 21.0795 110.539 21.11C109.809 21.2 109.089 21.31 108.429 21.46C108.359 21.46 108.309 21.46 108.299 21.53C108.101 21.4701 107.893 21.4531 107.689 21.48C102.409 21.74 97.2886 22.32 91.9586 22.48C94.5686 22.12 97.2386 21.87 100.039 21.61C103.429 21.28 106.549 20.82 109.959 20.61C110.139 20.61 110.259 20.61 110.239 20.5C110.219 20.39 110.069 20.4 109.899 20.41C102.899 20.69 96.7686 22.03 89.5386 22.03H88.6886L95.2886 20.61C101.939 20.41 108.559 20.11 115.099 19.68C115.419 19.68 115.669 19.58 115.669 19.47C115.669 19.36 115.469 19.39 115.149 19.4ZM3.89857 14.46C3.9924 14.4949 4.08278 14.5384 4.16857 14.59L3.89857 14.46ZM19.9986 14.22C18.6786 14.14 17.3286 14.08 15.9486 14.05C15.4478 14.0394 14.9469 14.0595 14.4486 14.11C13.8562 13.7805 13.2333 13.5092 12.5886 13.3C13.8286 13.47 15.2386 13.54 16.5886 13.66C17.9386 13.78 19.4386 13.92 20.8586 14.03H20.3586C20.1486 14.09 19.8286 14.03 19.9986 14.22ZM22.9486 11.22L23.7186 11.54H23.6086L22.6086 11.4L22.7986 11.49L18.9086 11.24C16.9577 10.9384 14.9911 10.7481 13.0186 10.67C13.6086 10.55 14.1586 10.42 14.6786 10.27C17.2586 10.59 19.7286 11 22.4286 11.12L22.9486 11.22ZM9.94858 16.61L9.57858 16.36L9.94858 16.61ZM5.52858 21.48L5.46857 21.43L6.25857 20.31L5.52858 21.48Z" fill="#FD8D55"/>
<path d="M20.4387 28.29C20.4387 28.18 20.2387 28.02 20.1787 27.91C20.1187 27.8 20.3987 27.68 20.4487 27.57C20.5187 27.23 20.5287 26.86 20.5987 26.52C20.5987 26.37 20.5987 26.26 20.6487 26.11C20.8843 25.6725 20.9819 25.174 20.9287 24.68C20.9287 24.61 21.0687 24.42 21.0887 24.27C21.1087 24.12 21.2187 24.08 21.1887 24.01C21.1587 23.94 21.1887 23.67 21.4087 23.41C21.5116 23.2313 21.5986 23.0439 21.6687 22.85C21.9887 22.03 22.1887 21.2 22.5087 20.42C22.3287 18.98 25.9987 14.11 23.2187 14.82C23.0369 14.9284 22.837 15.003 22.6287 15.04C19.7087 16.27 19.9587 16.09 18.8987 18.71C18.8138 19.075 18.7103 19.4355 18.5887 19.79C18.5545 19.9556 18.5111 20.1192 18.4587 20.28C18.0035 21.5809 17.4276 22.8363 16.7387 24.03C16.6587 24.03 16.6487 24.1 16.6087 24.18C15.7887 25.07 15.8987 25.03 14.9587 24.98C14.8087 24.98 14.6587 24.9 14.5387 24.98C14.1087 25.05 13.9087 24.82 13.8987 24.56C13.904 24.1642 13.9611 23.7709 14.0687 23.39C14.6087 21.67 15.3087 19.87 16.0687 18.12C16.8287 16.37 15.1487 17.5 15.1987 16.07C15.139 15.8371 15.139 15.5929 15.1987 15.36C15.3587 14.91 15.4087 14.5 15.5687 14.08C15.7287 13.66 15.7087 13.56 15.5687 13.44C15.8887 12.92 16.1687 12.44 16.4987 11.88C17.0087 12.11 17.6087 11.88 18.3787 11.76C18.6594 11.6583 18.9138 11.495 19.1231 11.2822C19.3325 11.0694 19.4916 10.8123 19.5887 10.53C20.1862 9.14163 20.8952 7.80393 21.7087 6.53C22.2787 5.53 23.0487 4.47999 23.7087 3.42999C23.7702 3.31942 23.8656 3.23157 23.9808 3.17935C24.096 3.12714 24.225 3.11332 24.3487 3.13998L25.1687 3.26999C25.5387 3.38999 25.5487 3.61001 25.3987 3.95001C25.0987 4.55001 24.7387 5.07 24.5287 5.59C24.3187 6.11 23.9387 6.70999 23.6487 7.26999C21.0487 10.77 23.4287 10.58 26.3987 9.57001C26.4987 9.38001 26.6187 9.31 26.6687 9.16C27.1387 8.08 27.5087 7.44001 28.0987 6.32001C28.2711 6.00247 28.4085 5.66718 28.5087 5.32001C28.6541 4.82862 28.8992 4.37248 29.2287 3.98001C29.4308 3.67629 29.5733 3.33694 29.6487 2.98001C29.7417 2.65254 29.8797 2.33953 30.0587 2.04999C30.5087 1.37999 31.0587 0.71 31.4687 0H33.0287C33.7559 0.00162453 34.4698 0.194768 35.0987 0.559998C35.3654 0.686067 35.5723 0.911469 35.675 1.18802C35.7778 1.46457 35.7684 1.77034 35.6487 2.04001C35.4743 2.50189 35.2461 2.94159 34.9687 3.35001C34.1055 4.72107 33.3467 6.15509 32.6987 7.63998C31.8987 9.27998 33.8987 8.75001 34.9187 8.54001C35.1087 8.54001 35.3387 8.47001 35.3887 8.70001C34.6587 8.80001 33.8387 8.96999 33.1787 9.10999C32.8314 9.17201 32.4947 9.28314 32.1787 9.44C31.7774 9.64907 31.4754 10.0087 31.3387 10.44C31.5287 10.44 31.8287 10.44 32.0587 10.49C32.2082 10.4844 32.3548 10.4469 32.4887 10.38C32.9412 10.3036 33.4018 10.2868 33.8587 10.33C34.1538 10.3637 34.4526 10.3399 34.7387 10.26C35.0487 10.26 35.3187 10.26 35.6587 10.26C35.5622 10.0913 35.4819 9.91381 35.4187 9.73001C35.4501 9.48101 35.5281 9.24013 35.6487 9.01999H35.9087L35.9987 8.95001C35.8757 8.80645 35.7653 8.65252 35.6687 8.48999C35.9169 8.56065 36.1411 8.69762 36.3173 8.88614C36.4935 9.07466 36.615 9.30762 36.6687 9.56V9.48999C36.6261 9.5294 36.5753 9.55884 36.52 9.57614C36.4646 9.59344 36.4061 9.59817 36.3487 9.59C36.0187 10.19 36.4787 10.2 36.9687 10.21C36.3887 10.61 36.0787 10.34 35.6587 10.37C35.9087 10.53 36.0487 10.64 36.2587 10.8C35.9787 10.87 35.6787 10.8 35.4787 11.24C35.6687 11.24 35.8987 11.24 36.1987 11.32C35.9187 11.39 35.7187 11.5 35.5587 11.54C35.4571 11.5514 35.3588 11.5829 35.2695 11.6327C35.1802 11.6825 35.1018 11.7496 35.0387 11.83C35.2009 11.8605 35.3612 11.9006 35.5187 11.95C34.5578 12.1875 33.6099 12.4745 32.6787 12.81C32.0487 12.99 31.3487 13.17 30.6787 13.38C30.4375 13.4404 30.2136 13.5557 30.0245 13.7171C29.8354 13.8784 29.6862 14.0814 29.5887 14.31C29.2546 14.9431 28.9993 15.6148 28.8287 16.31C28.6806 16.8092 28.4968 17.2972 28.2787 17.77C27.9187 18.59 27.7887 19.42 27.4787 20.2C27.1687 20.98 26.9987 21.7 26.6887 22.45C26.6887 22.53 26.5587 22.6 26.4687 22.71C26.3787 22.82 26.3687 22.9 26.4087 22.93C26.4599 23.5331 26.3237 24.1372 26.0187 24.66C26.0187 24.77 25.9587 24.89 25.9487 24.96C25.9043 25.5005 25.7142 26.0189 25.3987 26.46C25.3387 26.68 24.9687 26.9 24.7087 27.16C24.5395 27.1586 24.371 27.1822 24.2087 27.23C24.106 27.2139 24.0014 27.2139 23.8987 27.23C23.3587 27.68 22.7987 27.55 22.2487 28C22.0487 28.11 22.1587 27.81 21.9987 27.92C21.8387 28.03 21.7787 28.14 21.7387 28.14C21.6987 28.14 21.5187 28.06 21.3787 28.02L21.0387 28.32C20.5887 28.67 20.5587 28.63 20.4387 28.29ZM17.9687 12.1C17.4987 12.21 17.3687 12.36 17.1287 12.85C17.3187 12.85 17.5387 12.93 17.7687 12.93C17.9987 12.93 18.0087 13.08 18.0687 13.27C17.7087 13.42 17.3687 13.41 17.0187 13.78C17.4277 13.7319 17.8323 13.6516 18.2287 13.54C18.5187 13.02 18.7587 12.54 19.0587 11.93C18.7019 12.0226 18.3367 12.0795 17.9687 12.1ZM22.5687 11.1C22.3387 11.1 22.1387 11.21 22.1187 11.43C22.2287 11.43 22.2987 11.43 22.3387 11.43C22.9787 11.17 23.5087 10.92 24.0987 10.7C24.3518 10.6852 24.6056 10.6852 24.8587 10.7C24.8587 10.7 24.9487 10.59 24.9587 10.55C24.6487 10.55 24.3687 10.7 24.0987 10.73L22.5687 11.1ZM22.9787 11.86C22.7339 11.8988 22.4952 11.9694 22.2687 12.07C22.3918 12.1182 22.5271 12.1257 22.6549 12.0916C22.7826 12.0574 22.8961 11.9832 22.9787 11.88V11.86ZM25.4687 11.75C25.02 11.7321 24.572 11.8 24.1487 11.95C23.8764 12.0652 23.5843 12.1263 23.2887 12.13C23.0172 12.1238 22.7521 12.2122 22.5387 12.38C23.5849 12.3463 24.6244 12.1988 25.6387 11.94L25.4687 11.75ZM25.3587 12.35C25.1962 12.2655 25.0106 12.2363 24.8301 12.267C24.6496 12.2977 24.4841 12.3865 24.3587 12.52C24.8187 12.47 25.0287 12.62 25.3687 12.37L25.3587 12.35Z" fill="#2C3847"/>
<path d="M37.1287 13.34C37.2191 13.2309 37.3316 13.1423 37.4587 13.08C37.8887 13.01 38.9087 12.35 39.2687 12.58C39.4569 12.7564 39.6538 12.9233 39.8587 13.08C39.9306 13.2065 39.9684 13.3495 39.9684 13.495C39.9684 13.6405 39.9306 13.7835 39.8587 13.91C39.5787 14.39 39.2587 14.84 38.8587 15.43C38.7587 15.66 38.6587 15.85 38.6087 16C38.4187 16.33 38.2087 16.78 37.9787 17.12C37.7487 17.46 38.6287 16.12 38.5087 16.52C38.4814 16.6298 38.4302 16.7323 38.3587 16.82C38.0931 17.1964 37.9247 17.6327 37.8687 18.09C37.8687 18.47 37.4587 20.38 37.4587 20.72C37.4831 20.9289 37.5664 21.1266 37.6987 21.29C37.8697 21.4084 38.0503 21.5121 38.2387 21.6C38.4087 21.75 38.6087 21.68 38.8387 21.6C42.1187 20.53 41.0287 20.09 43.0687 18.21C43.5151 17.7577 43.8924 17.2422 44.1887 16.68C44.1887 16.68 44.1887 16.68 44.3287 16.46C44.4787 16.83 43.9987 17.35 44.5187 17.46C43.5187 18.87 42.7587 20.93 41.3787 21.66C40.9487 22.14 38.1087 24.36 36.5087 23.66C35.9587 23.84 35.5087 23.31 34.9787 23.08C34.5836 22.8786 34.2411 22.5875 33.9787 22.23C33.8218 21.7461 33.7507 21.2384 33.7687 20.73C33.7337 20.5047 33.7337 20.2753 33.7687 20.05C33.9387 19.6 33.9587 18.73 34.1387 18.43C34.2214 18.2401 34.285 18.0425 34.3287 17.84C34.4087 17.84 34.3287 17.61 34.6187 17.58C34.6187 17.58 34.7187 17.43 34.7587 17.39C34.9787 17.13 35.0387 16.9 35.2587 16.65C35.2587 16.65 34.3687 17.42 34.9087 16.65C35.4487 15.88 36.0787 15.08 36.3687 14.56C36.3878 14.4951 36.4183 14.4342 36.4587 14.38C36.5987 14.15 36.7287 14 36.6887 13.74C36.681 13.5488 36.7412 13.361 36.8587 13.21C36.8837 13.2579 36.9234 13.2965 36.9721 13.32C37.0208 13.3434 37.0757 13.3504 37.1287 13.34ZM41.0787 9.29002C40.983 9.38716 40.9081 9.50286 40.8587 9.63001C40.8477 9.69993 40.8123 9.76368 40.7587 9.81001C40.6287 9.93001 40.4987 10.08 40.3287 10.26C40.1548 10.4091 39.9442 10.5092 39.7187 10.55C39.6487 10.55 39.5287 10.55 39.4387 10.66C39.3618 10.7161 39.269 10.7463 39.1737 10.7463C39.0785 10.7463 38.9857 10.7161 38.9087 10.66C38.8226 10.596 38.7153 10.5674 38.6087 10.58C38.4728 10.5997 38.3347 10.5997 38.1987 10.58L38.3287 10.43C38.3659 10.2971 38.4196 10.1694 38.4887 10.05C38.5802 9.88034 38.6873 9.71965 38.8087 9.57001C38.8087 9.49002 38.9387 9.42001 38.9387 9.38001C38.9387 9.16001 39.1787 8.97001 39.3187 8.75001L39.5887 8.42002C39.6478 8.34244 39.7331 8.28908 39.8287 8.27C39.9087 8.27 39.9887 8.27 40.0187 8.27C40.0487 8.27 40.0887 8.35 40.1687 8.27C40.2487 8.19 40.2887 8.2 40.3187 8.27C40.4722 8.34113 40.6333 8.3948 40.7987 8.43C41.0566 8.55234 41.2598 8.7662 41.3687 9.03001C41.2187 9.11001 41.1687 9.22002 41.0787 9.29002Z" fill="#2C3847"/>
<path d="M55.8487 18.03C55.7787 18.97 56.1187 18.64 57.5487 18.43C58.2688 18.3274 58.9414 18.0103 59.4787 17.52C59.8587 17.19 60.2287 17.61 60.3987 17.8C60.2113 18.1584 59.9831 18.4939 59.7187 18.8C58.5746 19.4302 57.2946 19.7734 55.9887 19.8C54.9887 20.01 54.8787 20.5 54.4487 21.24L54.2687 21.54C54.085 21.9421 53.8496 22.3186 53.5687 22.66C53.4982 22.7468 53.4137 22.8211 53.3187 22.88L52.8887 23.33C52.6927 23.6193 52.4453 23.8701 52.1587 24.07L51.8587 24.37L51.4387 24.7C51.3288 24.7397 51.2085 24.7397 51.0987 24.7C50.9857 24.6128 50.8652 24.5358 50.7387 24.47C50.7237 24.3605 50.7237 24.2494 50.7387 24.14C50.7387 23.8 50.6187 23.49 50.2887 23.45C50.1562 23.3576 50.0411 23.2424 49.9487 23.11C49.8571 22.9321 49.7143 22.7858 49.5387 22.69C49.3783 22.5075 49.2899 22.2729 49.2899 22.03C49.2899 21.7871 49.3783 21.5525 49.5387 21.37C49.6877 21.0897 49.9131 20.8574 50.1887 20.7C50.4395 20.5206 50.7116 20.3728 50.9987 20.26C51.4593 20.0593 51.9339 19.8922 52.4187 19.76C52.7395 19.5727 52.9892 19.2843 53.1287 18.94C53.5544 17.8262 53.9118 16.6874 54.1987 15.53L54.3387 14.25C54.3587 14.178 54.3587 14.1019 54.3387 14.03C54.3387 13.84 54.1387 13.76 54.0087 13.91C53.9681 13.9272 53.9319 13.9532 53.9025 13.986C53.8731 14.0189 53.8513 14.0578 53.8387 14.1C53.5105 14.4923 53.2193 14.9141 52.9687 15.36C52.2787 16.44 51.6087 17.6 50.9187 18.64C50.4187 19.43 49.9187 20.13 49.5187 20.96C48.7987 22.3 47.3487 23.63 46.6987 25.09C46.5935 25.3532 46.4211 25.5842 46.1987 25.76C45.9987 25.83 45.8887 26.13 45.8687 26.36C45.8414 26.6296 45.7705 26.8931 45.6587 27.14C45.5857 27.2779 45.4949 27.4057 45.3887 27.52C45.2081 27.716 45.0442 27.9267 44.8987 28.15C44.4072 29.0533 44.0502 30.0236 43.8387 31.03C43.7735 31.4879 43.6698 31.9395 43.5287 32.38C43.5064 32.5331 43.4462 32.6781 43.3537 32.8021C43.2611 32.9261 43.1391 33.025 42.9987 33.09C42.7668 33.2074 42.5829 33.4018 42.4787 33.64C42.4787 33.64 42.2987 33.83 42.2587 33.83C42.2187 33.83 42.0787 34.09 41.9887 34.2C41.3687 34.3 40.9887 33.85 40.8887 33.13C40.7637 32.3834 40.7335 31.6241 40.7987 30.87C40.9421 29.0725 41.233 27.2898 41.6687 25.54C41.8287 24.83 42.0587 24.08 42.2587 23.4C42.5544 22.2535 42.9252 21.1278 43.3687 20.03C43.982 18.3766 44.622 16.7666 45.2887 15.2C45.4487 14.83 45.6387 14.49 45.7987 14.04C46.3787 12.92 46.8987 11.72 47.4887 10.57C47.7906 9.96604 48.1244 9.37854 48.4887 8.80997C48.5663 8.73828 48.668 8.69849 48.7737 8.69849C48.8793 8.69849 48.9811 8.73828 49.0587 8.80997L49.8987 9.38995C50.4274 10.165 50.6841 11.0934 50.6287 12.03C50.6301 12.6581 50.5183 13.2814 50.2987 13.87C49.9687 14.77 49.5987 15.74 49.1487 16.68C48.8487 17.27 48.5387 18.02 48.2387 18.68C47.3887 20.78 48.6387 20.54 48.9687 19.9C49.1187 19.6 49.7787 18.9 49.9687 18.48L51.4387 16.03C51.6449 15.591 51.9219 15.189 52.2587 14.84C52.5587 14.54 52.8587 14.17 53.1987 13.84C53.4434 13.6185 53.7509 13.4787 54.0787 13.44H54.7287C55.0787 13.37 55.3487 13.68 55.6187 13.94C55.7195 14.0298 55.7988 14.1411 55.8507 14.2658C55.9026 14.3904 55.9259 14.5251 55.9187 14.66C55.9384 14.963 55.9384 15.267 55.9187 15.57V16.66L55.8487 18.03ZM51.0687 20.93C50.9216 21.01 50.7992 21.1287 50.7146 21.2732C50.63 21.4177 50.5865 21.5826 50.5887 21.75C50.5887 21.94 50.7087 22.09 50.8187 22.09C50.9287 22.09 51.0187 22.02 51.0987 21.95C51.3134 21.8431 51.5014 21.6893 51.6487 21.5C52.1287 20.95 52.3487 20.35 52.2087 20.57C51.7687 20.78 51.4387 20.7 51.0687 20.96V20.93Z" fill="#2C3847"/>
<path d="M60.1087 29.49C59.9587 29.49 59.9587 29.49 59.5887 29.71C59.5887 29.71 59.5887 29.63 59.5887 29.6C59.5887 29.57 59.5187 29.6 59.4887 29.48C59.4087 29.56 59.2887 29.55 59.2387 29.67C59.0407 29.7883 58.8245 29.8728 58.5987 29.92C58.5187 29.92 58.5187 29.92 58.3387 29.92C58.3387 29.84 58.3387 29.81 58.4387 29.73C58.3287 29.73 58.2387 29.8 58.1287 29.8C58.1079 29.8342 58.0784 29.8623 58.0433 29.8816C58.0083 29.9009 57.9688 29.9107 57.9287 29.91C57.5987 30.09 57.4587 30.02 57.3387 29.72C57.3259 29.5028 57.2569 29.2927 57.1387 29.11C56.9777 28.7665 56.9022 28.3891 56.9187 28.01C56.9505 27.8058 57.0111 27.6072 57.0987 27.42C57.288 26.9285 57.5585 26.4721 57.8987 26.07C58.5652 25.2566 59.3123 24.5128 60.1287 23.85C61.7187 22.55 61.5387 22.18 61.2087 21.04C61.0686 20.2783 60.8193 19.5407 60.4687 18.85C60.4687 18.7 60.3487 18.58 60.3287 18.43C59.9288 17.1613 59.7198 15.8402 59.7087 14.51C59.7887 14.43 59.7587 14.36 59.8487 14.21C59.8496 13.9574 59.9461 13.7144 60.1187 13.53C60.1187 13.42 60.3087 13.2 60.2187 13.01C60.3487 12.82 60.4187 12.56 60.5487 12.37C60.656 12.2028 60.7528 12.0291 60.8387 11.85C60.9167 11.7307 61.0072 11.6201 61.1087 11.52L61.5287 10.85C61.7087 10.55 61.9687 10.33 62.1487 10.07C62.1487 9.99003 62.2287 9.99001 62.3087 9.96001C62.4164 9.89731 62.506 9.80774 62.5687 9.70003C62.6987 9.55003 62.7887 9.47001 62.8487 9.55001C63.0939 9.65329 63.3127 9.81054 63.4887 10.01C63.5115 10.0024 63.536 10.0024 63.5587 10.01C63.9989 10.5899 64.2627 11.2842 64.3187 12.01C64.3187 12.13 64.3187 12.24 64.3187 12.31C64.3057 12.5443 64.2515 12.7745 64.1587 12.99C64.063 13.3387 63.9253 13.6745 63.7487 13.99C63.6587 14.14 63.6087 14.25 63.4487 14.29C63.3079 14.388 63.1888 14.514 63.0987 14.66C63.0987 14.77 62.8887 14.88 62.9087 15.07C62.9035 15.113 62.882 15.1523 62.8487 15.18C62.7146 15.3732 62.5911 15.5735 62.4787 15.78C62.289 16.203 62.2231 16.6711 62.2887 17.13C62.3677 17.3152 62.4795 17.4846 62.6187 17.63C63.0587 18.05 63.3187 19.48 63.6887 19.9C63.8587 20.05 63.8187 20.47 63.9487 20.62C64.1987 21.45 65.5287 20.46 66.5487 20.21C67.1687 19.8 67.7787 19.4 68.3987 18.96C68.8487 18.66 69.3087 18.33 69.7287 17.96C70.0142 17.7345 70.2817 17.4871 70.5287 17.22C70.7487 17.03 70.9587 16.81 71.1787 16.59C71.2237 16.7107 71.2605 16.8343 71.2887 16.96C71.3255 17.0746 71.3338 17.1964 71.3129 17.3149C71.292 17.4334 71.2425 17.545 71.1687 17.64C71.1069 17.7336 71.0565 17.8344 71.0187 17.94C70.9158 18.1967 70.7742 18.4362 70.5987 18.65C70.3887 18.87 70.2387 19.17 70.0187 19.39C69.7987 19.61 69.6487 19.69 69.4787 19.84L68.5987 20.5L68.4287 20.65C67.9887 20.87 67.5687 21.24 67.1187 21.53C66.9724 21.6494 66.8187 21.7596 66.6587 21.86C65.8387 22.42 64.6587 22.4 64.5787 23.41C64.6877 23.9225 64.6022 24.4572 64.3387 24.91C64.3387 25.03 64.2787 25.1 64.3387 25.21C64.3987 25.32 64.3387 25.36 64.3387 25.36C64.1587 25.59 64.1887 26 64.0887 26.23C64.0334 26.3053 63.9616 26.3669 63.8787 26.41C63.8787 26.41 63.7987 26.41 63.7587 26.48C63.5591 26.7011 63.3785 26.9386 63.2187 27.19C62.702 27.8234 62.1261 28.406 61.4987 28.93C61.3922 29.0626 61.2752 29.1863 61.1487 29.3C60.9328 29.5086 60.6681 29.6599 60.3787 29.74C60.3787 29.74 60.2987 29.74 60.2987 29.82C60.0935 30.0351 59.8227 30.1758 59.5287 30.22C59.4487 30.22 59.4387 30.3 59.3587 30.33C59.5887 30.03 59.8487 29.79 60.1087 29.49ZM58.9787 26.35C58.7044 26.4485 58.4787 26.6491 58.3487 26.91C58.2395 27.1007 58.0892 27.2647 57.9087 27.39C57.7325 27.5172 57.5859 27.6809 57.4787 27.87C57.4321 28.0738 57.372 28.2742 57.2987 28.47C57.2427 28.5394 57.2122 28.6259 57.2122 28.715C57.2122 28.8042 57.2427 28.8906 57.2987 28.96C57.4287 29.15 57.5587 29.3 57.6887 29.49C57.7448 29.545 57.8202 29.5758 57.8987 29.5758C57.9773 29.5758 58.0527 29.545 58.1087 29.49C58.2787 29.38 58.4087 29.27 58.6087 29.12C58.8087 28.97 58.9487 28.79 59.1187 28.64C59.521 28.3836 59.8623 28.0423 60.1187 27.64C60.1925 27.5615 60.2563 27.4742 60.3087 27.38C60.5295 27.0669 60.7171 26.7318 60.8687 26.38C61.0318 26.0248 61.1753 25.6609 61.2987 25.29C61.2987 25.29 61.2987 25.22 61.2987 25.18C61.4387 23.98 59.8687 25.69 59.3687 26.18C59.2524 26.264 59.1194 26.322 58.9787 26.35Z" fill="#2C3847"/>
<path d="M82.5787 17.18C82.5787 17.41 82.4387 17.41 82.4587 17.6C82.3025 18.081 82.0946 18.5437 81.8387 18.98C81.5487 19.58 81.2187 20.17 80.9187 20.77C80.6187 21.37 80.0887 22.04 79.6787 22.67C79.4987 22.93 77.4587 25.16 77.2487 25.31C76.7187 25.64 75.7687 26.6 75.2487 26.9C74.6773 27.1623 74.081 27.3667 73.4687 27.51C72.9752 27.5662 72.476 27.5459 71.9887 27.45C71.5171 27.2632 71.087 26.985 70.7231 26.6315C70.3593 26.278 70.0689 25.8561 69.8687 25.3899C69.6862 25.0761 69.545 24.74 69.4487 24.3899C69.3537 23.7815 69.3202 23.1651 69.3487 22.5499C69.7087 19.3899 70.1387 18.95 71.3487 15.92C71.4487 15.66 71.5187 15.43 71.6187 15.17C71.702 14.9122 71.8057 14.6614 71.9287 14.42C72.0987 14.01 72.2587 13.6 72.4087 13.22C72.6987 12.4 73.8387 10.99 72.9487 10.79C72.6887 10.74 72.4587 10.79 72.2487 10.59C72.0387 10.39 71.8287 10.32 71.6187 10.16C71.5646 10.1202 71.5196 10.0692 71.4868 10.0106C71.4541 9.95193 71.4342 9.88693 71.4287 9.81997C71.4927 9.78962 71.5598 9.76615 71.6287 9.74996L73.2187 9.42995C73.5892 9.36521 73.9632 9.3218 74.3387 9.29995C74.4252 9.28763 74.5074 9.25492 74.5787 9.20449C74.65 9.15406 74.7083 9.08739 74.7487 9.00997C74.9318 8.72119 75.0956 8.4205 75.2387 8.10995C75.6987 7.39995 76.0487 6.64997 76.5387 5.97997C76.9545 5.40726 77.4342 4.88387 77.9687 4.41998C78.0609 4.31557 78.1612 4.2186 78.2687 4.12997C78.3381 4.07047 78.4199 4.02706 78.508 4.00286C78.5962 3.97866 78.6886 3.97424 78.7787 3.98995C79.0209 4.02389 79.2666 4.02389 79.5087 3.98995C79.5087 3.98995 79.5087 3.98995 79.5887 3.98995C80.1287 3.88995 80.2987 4.11996 80.3987 4.52996C80.544 4.91574 80.5887 5.33212 80.5287 5.73995C80.5135 5.93966 80.5135 6.14025 80.5287 6.33996C80.5465 6.51888 80.526 6.69953 80.4687 6.86996C80.4087 7.04996 80.3487 7.23996 80.2887 7.46996L79.9587 8.35995C79.9556 8.46361 79.9318 8.56561 79.8887 8.65997C79.9995 8.72803 80.129 8.75952 80.2587 8.74996L81.6787 8.64996H83.6787C83.9174 8.68139 84.1544 8.72478 84.3887 8.77996C84.2987 8.88996 84.2587 8.95996 84.2187 8.99996C84.1301 9.07199 84.0326 9.13247 83.9287 9.17995L83.0487 9.54995C82.6057 9.65263 82.1533 9.7096 81.6987 9.71996C81.4256 9.7187 81.1534 9.75231 80.8887 9.81997C80.7234 9.87561 80.5523 9.9125 80.3787 9.92995L79.4887 10.03C79.4159 10.0513 79.3486 10.0883 79.2916 10.1384C79.2346 10.1885 79.1892 10.2505 79.1587 10.32C79.1587 10.32 79.1587 10.4 79.0687 10.44C78.4687 11.71 77.7187 12.9 77.0687 14.13C76.9787 14.28 76.8787 14.43 76.8287 14.54C76.6001 14.8939 76.4058 15.269 76.2487 15.66C76.0854 16.014 75.8842 16.3493 75.6487 16.66C75.4587 16.92 75.4587 17.26 75.2387 17.52C74.4993 19.1729 74.0203 20.9304 73.8187 22.73C73.8021 23.3121 73.8627 23.8938 73.9987 24.46C74.0752 24.6251 74.1727 24.7797 74.2887 24.92C74.2887 24.92 74.3587 24.92 74.4387 24.92C74.909 24.9738 75.3853 24.9155 75.8287 24.75C76.0687 24.61 77.3087 23.75 77.5587 23.54C78.4985 22.7402 79.353 21.8455 80.1087 20.87C80.5287 20.23 80.8087 19.41 81.2187 18.81C81.4087 18.44 81.8887 17.62 82.1187 17.21C82.3687 17.22 82.6287 17.03 82.5787 17.18ZM77.3687 11.54C77.8587 10.6 78.0587 9.84996 76.7087 10.62C76.1587 11.86 75.9087 12.72 75.4287 13.88C74.2387 16.98 75.7187 14.67 76.4287 13.29C76.7066 12.6883 77.0205 12.1039 77.3687 11.54ZM79.0387 7.22997L79.2087 6.70995C79.2787 6.40995 79.3887 6.10996 79.4587 5.80996C79.5235 5.48078 79.5503 5.14525 79.5387 4.80996C79.5387 4.65996 79.4087 4.61997 79.3287 4.69997C79.1651 4.78223 79.0295 4.91093 78.9387 5.06997C78.742 5.3859 78.5779 5.72094 78.4487 6.06997C78.4487 6.17997 78.3087 6.28997 78.2587 6.40997C78.2087 6.52997 78.0787 6.69995 77.9787 6.88995C77.8587 7.25995 77.7387 7.67996 77.5787 8.08996C77.3087 9.08996 78.3687 9.08996 78.6787 8.43996C78.7487 8.02996 78.8687 7.63997 78.9887 7.22997H79.0387Z" fill="#2C3847"/>
<path d="M86.0187 17.35C86.0187 17.42 85.9287 17.5 85.8487 17.53C85.7687 17.56 85.7287 17.61 85.7187 17.72C85.7087 17.83 85.6187 17.91 85.4987 17.94C85.3787 17.97 85.4187 18.02 85.3487 18.24C85.4287 18.24 85.4687 18.24 85.4987 18.24H85.2287C85.2656 18.1437 85.2891 18.0428 85.2987 17.94H85.2287L85.0187 18.72C85.0987 18.72 85.1287 18.8 85.1687 18.8C85.1885 19.0496 85.1885 19.3004 85.1687 19.55C85.1463 19.7798 85.1736 20.0117 85.2487 20.23C85.3387 20.38 85.5487 21.23 85.6487 21.37C86.1187 21.9 86.6487 22.59 87.2987 22.63C87.8017 22.6103 88.3028 22.5569 88.7987 22.47C89.7944 22.1789 90.7342 21.7226 91.5787 21.12C92.2787 20.64 92.9487 20.12 93.6487 19.57L93.7787 19.46L94.5487 18.71C95.013 18.3157 95.4444 17.8843 95.8387 17.42C95.9484 17.2168 96.125 17.0578 96.3387 16.97C96.2435 17.2999 96.1057 17.6159 95.9287 17.91C95.8727 18.0217 95.7984 18.1231 95.7087 18.21C95.4591 18.4435 95.2376 18.7053 95.0487 18.99C94.9187 19.13 94.7487 19.28 94.6187 19.43L94.4387 19.65L94.7587 19.55C94.6987 19.77 94.4987 19.81 94.4387 19.99C94.3787 20.17 94.4387 20.07 94.5387 20.11C94.4136 20.2735 94.2692 20.4212 94.1087 20.55C93.8561 20.7414 93.6187 20.952 93.3987 21.18C93.0193 21.5453 92.6113 21.8797 92.1787 22.18C91.9967 22.3322 91.8028 22.4693 91.5987 22.59C91.4387 22.7 91.2787 22.77 91.1087 22.88C90.8608 22.9874 90.6203 23.111 90.3887 23.25C89.993 23.4732 89.5643 23.6319 89.1187 23.72L88.7587 23.82C88.3074 23.9603 87.8405 24.0442 87.3687 24.07C86.2789 24.0094 85.2007 23.8146 84.1587 23.49C82.8887 22.94 82.6987 22.3 82.1587 21.77C81.9406 21.5478 81.7853 21.2718 81.7087 20.97C81.6005 20.4507 81.5735 19.9176 81.6287 19.39C81.7805 18.2102 82.1792 17.0755 82.7987 16.06C82.8602 15.9799 82.9044 15.8878 82.9285 15.7897C82.9526 15.6916 82.956 15.5895 82.9387 15.49C82.7518 15.5685 82.6017 15.7151 82.5187 15.9C82.3588 16.2496 82.168 16.5843 81.9487 16.9C82.0106 16.6047 82.1332 16.3255 82.3087 16.08C82.6781 15.41 83.1065 14.7741 83.5887 14.18C84.0667 13.5607 84.6024 12.9881 85.1887 12.47C85.7579 11.9351 86.3851 11.4656 87.0587 11.07C87.1953 11.0176 87.3288 10.9575 87.4587 10.89C87.6587 10.81 87.8487 10.78 87.9487 10.97C88.0487 11.16 88.1987 11.05 88.2687 11.13C88.3387 11.21 88.3987 11.35 88.4687 11.43C88.8187 11.62 90.2287 12.02 90.5387 12.25C90.6483 12.3519 90.7249 12.4843 90.7587 12.63C90.8734 12.9734 91.0458 13.2947 91.2687 13.58C91.3254 13.6858 91.3627 13.801 91.3787 13.92C91.4265 14.3756 91.3753 14.8361 91.2287 15.27C91.0717 15.7972 90.821 16.2918 90.4887 16.73C90.2992 16.9768 90.1288 17.2375 89.9787 17.51C89.855 17.777 89.7006 18.0287 89.5187 18.26C89.3487 18.533 89.0801 18.73 88.7687 18.81C88.5406 18.9148 88.2865 18.9496 88.0387 18.91C87.9287 18.91 87.8087 18.91 87.7487 18.76C87.4387 18.76 87.2887 18.45 87.0687 18.34C87.0347 18.2825 87.0174 18.2168 87.0187 18.15C87.1087 18 87.0187 17.92 87.0187 17.81C86.9059 17.4866 86.7757 17.1694 86.6287 16.86C86.6287 16.75 86.4987 16.71 86.3687 16.86C86.2387 17.01 86.0487 17.12 86.0187 17.35ZM82.0187 20.68C82.0187 20.79 82.0787 20.87 82.0987 20.98C82.1187 21.09 82.1987 21.17 82.0987 21.32C82.0987 21.32 82.0287 21.32 82.0387 21.24C81.9042 20.7995 81.8401 20.3405 81.8487 19.88C81.8487 19.88 81.8487 19.81 81.8487 19.77C81.8848 19.2069 81.9992 18.6515 82.1887 18.12C82.2433 18.0133 82.2804 17.8985 82.2987 17.78C82.3034 17.6934 82.3034 17.6066 82.2987 17.52C82.185 17.6816 82.091 17.8562 82.0187 18.04C81.9587 18.23 81.8987 18.38 81.8387 18.57C81.5482 19.4363 81.5482 20.3737 81.8387 21.24C81.9166 21.3852 82.0034 21.5255 82.0987 21.66C82.1689 21.7292 82.2546 21.7806 82.3487 21.81C82.3487 21.81 82.3487 21.81 82.4687 21.81C82.3691 21.6415 82.2855 21.464 82.2187 21.28C82.1287 21.06 82.1587 20.83 82.0587 20.64C82.047 20.652 82.0369 20.6654 82.0287 20.68H82.0187ZM82.2987 18.27C82.0752 18.8178 81.9828 19.4102 82.0287 20C82.0287 20 82.0287 20 82.0887 20.08L82.3387 18.91C82.4124 18.6655 82.4124 18.4046 82.3387 18.16C82.3387 18.16 82.3087 18.23 82.3087 18.27H82.2987ZM87.4187 15.36C87.3058 15.4892 87.2022 15.6262 87.1087 15.77C86.9287 16.03 86.9387 16.22 87.1087 16.33C87.2296 16.3976 87.3352 16.4895 87.4187 16.6C87.6187 16.87 87.9287 16.83 88.2387 16.8C88.5224 16.685 88.7587 16.477 88.9087 16.21C89.2487 15.57 89.4187 15.46 89.7187 14.83C90.4887 13.41 89.2287 13.73 88.6087 14.17C88.1755 14.5176 87.7799 14.9098 87.4287 15.34L87.4187 15.36Z" fill="#2C3847"/>
<path d="M100.369 18.77C101.028 17.5165 101.753 16.2982 102.539 15.12C102.81 14.8005 103.063 14.4667 103.299 14.12C103.563 13.8318 103.8 13.5205 104.009 13.19C104.083 13.0755 104.18 12.9774 104.293 12.9018C104.407 12.8261 104.534 12.7745 104.669 12.75C104.939 12.75 105.169 12.75 105.399 12.75C105.859 12.75 106.079 13.09 106.259 13.59V13.74C106.259 14.23 106.329 14.74 106.349 15.28C106.34 15.7824 106.297 16.2836 106.219 16.78C106.198 17.1154 106.158 17.4492 106.099 17.78C106.279 17.89 106.229 18.04 106.269 18.01C106.309 17.98 106.609 18.01 106.689 18.01C106.769 18.01 106.819 17.89 106.859 17.82C107.046 17.7059 107.217 17.5681 107.369 17.41C107.499 17.23 107.619 17.23 107.749 17.41C107.74 17.4705 107.718 17.5284 107.685 17.58C107.653 17.6317 107.609 17.6759 107.559 17.71C107.505 17.7645 107.458 17.8249 107.419 17.89C107.4 17.9495 107.367 18.0039 107.324 18.049C107.28 18.0941 107.227 18.1286 107.169 18.15L107.039 18.26C107.039 18.26 106.919 18.34 106.909 18.38C106.899 18.42 106.829 18.38 106.789 18.45C106.732 18.5089 106.663 18.5553 106.588 18.5863C106.512 18.6173 106.43 18.6322 106.349 18.63C106.219 18.6531 106.096 18.7043 105.989 18.78C105.869 18.85 105.759 18.85 105.689 18.78C105.443 18.6596 105.189 18.5561 104.929 18.47C104.7 18.3873 104.499 18.244 104.345 18.0555C104.192 17.8671 104.093 17.6405 104.059 17.4C103.928 16.6867 103.972 15.9522 104.189 15.26C104.299 14.92 104.329 14.62 104.409 14.32C104.489 14.02 104.529 13.87 104.599 13.65C104.678 13.5253 104.706 13.3751 104.679 13.23C104.679 13.23 104.569 13.23 104.559 13.23C104.497 13.2853 104.44 13.3455 104.389 13.41C104.199 13.71 103.979 14.01 103.749 14.35C103.605 14.5513 103.503 14.779 103.449 15.02C103.449 15.17 103.339 15.28 103.289 15.39C102.869 16.0035 102.505 16.6527 102.199 17.33C101.949 17.86 101.629 18.33 101.339 18.82C100.909 19.61 100.409 20.32 100.049 21.14C99.9487 21.4 99.7587 21.7 99.6087 22C99.1677 22.7719 98.6661 23.5075 98.1087 24.2C98.1087 24.27 97.9787 24.31 97.8987 24.38C97.7104 24.6248 97.4461 24.7999 97.1473 24.8777C96.8486 24.9556 96.5324 24.9318 96.2487 24.81C96.1687 24.88 96.0987 24.81 96.0287 24.73C95.4387 24.57 95.1987 24 95.1287 23.25C95.1082 22.5814 95.145 21.9123 95.2387 21.25C95.3887 20.25 95.5387 19.25 95.7287 18.32C95.8593 17.6379 96.0501 16.9686 96.2987 16.32C96.4922 15.3845 96.8118 14.4796 97.2487 13.63C97.3497 13.3844 97.4631 13.1441 97.5887 12.91C97.9387 12.24 98.2287 11.65 98.5887 11.05C98.7987 10.56 98.9587 10.49 99.3287 10.57C99.6477 10.5889 99.9632 10.646 100.269 10.74C100.54 10.787 100.789 10.9203 100.979 11.12C101.222 11.5845 101.521 12.0177 101.869 12.41C102.009 12.6839 102.082 12.9873 102.082 13.295C102.082 13.6028 102.009 13.9061 101.869 14.18C101.589 14.93 101.579 14.37 101.299 15.18C100.629 16.75 99.5687 17.98 98.9887 19.4C98.1887 21.15 100.139 19.41 100.369 18.77Z" fill="#2C3847"/>
<path d="M28.5587 37.24C29.0242 37.221 29.479 37.3821 29.8287 37.69C29.9866 37.8412 30.1123 38.0228 30.1981 38.2239C30.284 38.425 30.3282 38.6414 30.3282 38.86C30.3282 39.0787 30.284 39.295 30.1981 39.4961C30.1123 39.6972 29.9866 39.8788 29.8287 40.03C29.479 40.3379 29.0242 40.4991 28.5587 40.48H27.4187V37.24H28.5587ZM28.2087 39.88H28.5587C28.6903 39.8875 28.8219 39.8664 28.9445 39.818C29.0671 39.7697 29.1777 39.6953 29.2687 39.6C29.4375 39.3903 29.5296 39.1292 29.5296 38.86C29.5296 38.5908 29.4375 38.3297 29.2687 38.12C29.1777 38.0247 29.0671 37.9503 28.9445 37.902C28.8219 37.8536 28.6903 37.8325 28.5587 37.84H28.2087V39.88Z" fill="#2C3847"/>
<path d="M34.8987 37.23V37.83H33.7287V38.53H34.7287V39.1299H33.7287V39.8799H34.8987V40.48H32.8987V37.23H34.8987Z" fill="#2C3847"/>
<path d="M38.7787 37.8199C38.7354 37.8168 38.6919 37.8223 38.6507 37.836C38.6095 37.8498 38.5715 37.8715 38.5387 37.8999C38.5079 37.9273 38.4838 37.9613 38.4682 37.9995C38.4526 38.0376 38.4459 38.0789 38.4487 38.12C38.4454 38.207 38.4739 38.2923 38.5287 38.36C38.5935 38.4237 38.6723 38.4716 38.7587 38.4999L39.0787 38.5899C39.1948 38.6175 39.3085 38.6543 39.4187 38.6999C39.5275 38.7377 39.6315 38.7881 39.7287 38.8499C39.8251 38.9169 39.904 39.0061 39.9587 39.11C40.0213 39.2338 40.0522 39.3712 40.0487 39.5099C40.0495 39.6463 40.0193 39.7811 39.9604 39.9041C39.9015 40.0271 39.8154 40.1351 39.7087 40.2199C39.4609 40.4214 39.1477 40.5246 38.8287 40.5099C38.5147 40.523 38.2052 40.4316 37.9487 40.2499C37.8395 40.1589 37.7528 40.0439 37.6956 39.9137C37.6383 39.7836 37.612 39.6419 37.6187 39.4999H38.4587C38.4587 39.7599 38.5887 39.8899 38.8487 39.8899C38.8974 39.8935 38.9464 39.8874 38.9927 39.8719C39.039 39.8565 39.0819 39.832 39.1187 39.8C39.181 39.7394 39.2169 39.6568 39.2187 39.5699C39.2197 39.5275 39.2122 39.4854 39.1968 39.4459C39.1813 39.4064 39.1582 39.3704 39.1287 39.3399C39.0606 39.283 38.9826 39.2389 38.8987 39.2099C38.7979 39.1692 38.6943 39.1358 38.5887 39.11C38.4693 39.0825 38.3523 39.0456 38.2387 38.9999C38.1307 38.9601 38.0269 38.9099 37.9287 38.8499C37.8322 38.783 37.7533 38.6938 37.6987 38.5899C37.6448 38.4635 37.6176 38.3273 37.6187 38.1899C37.6136 38.0525 37.6408 37.9158 37.6981 37.7907C37.7554 37.6657 37.8412 37.5558 37.9487 37.4699C38.1956 37.2833 38.4995 37.1879 38.8087 37.1999C39.1094 37.1832 39.4075 37.2639 39.6587 37.43C39.7691 37.5205 39.8573 37.6352 39.9162 37.7652C39.9752 37.8953 40.0034 38.0372 39.9987 38.18H39.1387C39.1338 38.0801 39.095 37.9848 39.0287 37.9099C38.9594 37.85 38.8703 37.8179 38.7787 37.8199Z" fill="#2C3847"/>
<path d="M42.7787 40.48V37.24H43.5687V40.48H42.7787Z" fill="#2C3847"/>
<path d="M46.6586 40.0301C46.3518 39.7099 46.1805 39.2835 46.1805 38.8401C46.1805 38.3966 46.3518 37.9703 46.6586 37.6501C46.815 37.499 46.9999 37.3805 47.2024 37.3015C47.405 37.2226 47.6213 37.1847 47.8386 37.19C48.1933 37.1747 48.5435 37.2728 48.8386 37.4701C49.115 37.6632 49.3219 37.9402 49.4286 38.26H48.4886C48.4346 38.1509 48.3502 38.0598 48.2455 37.9977C48.1408 37.9356 48.0203 37.9052 47.8986 37.9101C47.7801 37.9016 47.6611 37.9196 47.5504 37.9629C47.4397 38.0061 47.3401 38.0735 47.2586 38.1601C47.1028 38.3524 47.0177 38.5925 47.0177 38.8401C47.0177 39.0876 47.1028 39.3277 47.2586 39.5201C47.3374 39.6045 47.4338 39.6707 47.5409 39.7139C47.648 39.7571 47.7633 39.7762 47.8786 39.7701C48.0433 39.7759 48.2052 39.7266 48.3386 39.63C48.4581 39.5373 48.5427 39.4069 48.5786 39.26H47.6586V38.6601H49.3686V39.26C49.2957 39.5781 49.1242 39.8651 48.8786 40.08C48.5894 40.3463 48.2117 40.4959 47.8186 40.5C47.3853 40.5018 46.9686 40.333 46.6586 40.0301Z" fill="#2C3847"/>
<path d="M54.1087 37.23H54.8987V40.48H54.1087L52.7887 38.48V40.48H51.9987V37.23H52.7887L54.1087 39.23V37.23Z" fill="#2C3847"/>
<path d="M62.2887 37.8199C62.2454 37.8162 62.2017 37.8215 62.1605 37.8352C62.1192 37.849 62.0812 37.871 62.0487 37.8999C62.0179 37.9273 61.9938 37.9613 61.9782 37.9995C61.9626 38.0376 61.9559 38.0789 61.9587 38.12C61.955 38.1633 61.9602 38.2069 61.974 38.2482C61.9877 38.2895 62.0098 38.3275 62.0387 38.36C62.1035 38.4237 62.1823 38.4716 62.2687 38.4999L62.5787 38.5899C62.6981 38.6174 62.8151 38.6542 62.9287 38.6999C63.0375 38.7377 63.1416 38.7881 63.2387 38.8499C63.3352 38.9169 63.4141 39.0061 63.4687 39.11C63.5313 39.2338 63.5622 39.3712 63.5587 39.5099C63.5574 39.6459 63.5263 39.78 63.4675 39.9027C63.4088 40.0254 63.3238 40.1337 63.2187 40.2199C62.9705 40.4206 62.6576 40.5237 62.3387 40.5099C62.0247 40.523 61.7152 40.4316 61.4587 40.2499C61.3495 40.1589 61.2628 40.0439 61.2056 39.9137C61.1483 39.7836 61.122 39.6419 61.1287 39.4999H61.9687C61.9687 39.7599 62.0987 39.8899 62.3587 39.8899C62.4567 39.894 62.5528 39.862 62.6287 39.8C62.691 39.7394 62.7269 39.6568 62.7287 39.5699C62.7297 39.5275 62.7222 39.4854 62.7068 39.4459C62.6913 39.4064 62.6682 39.3704 62.6387 39.3399C62.5706 39.283 62.4926 39.2389 62.4087 39.2099C62.3079 39.1692 62.2043 39.1358 62.0987 39.11C61.9794 39.0825 61.8623 39.0456 61.7487 38.9999C61.6407 38.9601 61.5369 38.9099 61.4387 38.8499C61.3422 38.783 61.2633 38.6938 61.2087 38.5899C61.1548 38.4635 61.1276 38.3273 61.1287 38.1899C61.1236 38.0525 61.1508 37.9158 61.2081 37.7907C61.2654 37.6657 61.3512 37.5558 61.4587 37.4699C61.7056 37.2833 62.0095 37.1879 62.3187 37.1999C62.6194 37.1832 62.9175 37.2639 63.1687 37.43C63.2798 37.5194 63.3677 37.6342 63.4251 37.7647C63.4826 37.8952 63.5078 38.0377 63.4987 38.18H62.6487C62.6402 38.079 62.598 37.9839 62.5287 37.9099C62.4971 37.8792 62.4594 37.8554 62.4181 37.8399C62.3768 37.8244 62.3327 37.8176 62.2887 37.8199Z" fill="#2C3847"/>
<path d="M66.0687 37.84V37.24H68.6187V37.84H67.7387V40.48H66.9487V37.84H66.0687Z" fill="#2C3847"/>
<path d="M71.1886 39.17V37.24H71.9786V39.17C71.971 39.2505 71.9794 39.3318 72.0034 39.4091C72.0275 39.4863 72.0666 39.558 72.1186 39.62C72.1718 39.677 72.2373 39.721 72.3101 39.7487C72.3829 39.7765 72.4611 39.7872 72.5386 39.78C72.616 39.785 72.6936 39.7733 72.7661 39.7457C72.8386 39.7181 72.9042 39.6753 72.9586 39.62C73.0124 39.5588 73.0534 39.4874 73.0792 39.4102C73.1049 39.3329 73.115 39.2512 73.1086 39.17V37.24H73.8986V39.17C73.9055 39.4309 73.836 39.688 73.6987 39.91C73.5749 40.1079 73.3983 40.2673 73.1886 40.37C72.9808 40.4622 72.756 40.5098 72.5287 40.5099C72.347 40.5215 72.1649 40.4965 71.9932 40.4363C71.8214 40.3762 71.6634 40.2823 71.5287 40.16C71.4038 40.0293 71.3087 39.8732 71.25 39.7023C71.1913 39.5314 71.1704 39.3498 71.1886 39.17Z" fill="#2C3847"/>
<path d="M77.8187 37.24C78.2842 37.221 78.7391 37.3821 79.0887 37.69C79.2466 37.8412 79.3723 38.0228 79.4581 38.2239C79.544 38.425 79.5882 38.6414 79.5882 38.86C79.5882 39.0787 79.544 39.295 79.4581 39.4961C79.3723 39.6972 79.2466 39.8788 79.0887 40.03C78.7391 40.3379 78.2842 40.4991 77.8187 40.48H76.6787V37.24H77.8187ZM77.4687 39.88H77.8187C77.9503 39.8875 78.0819 39.8664 78.2045 39.818C78.3271 39.7697 78.4377 39.6953 78.5287 39.6C78.6975 39.3903 78.7896 39.1292 78.7896 38.86C78.7896 38.5908 78.6975 38.3297 78.5287 38.12C78.4377 38.0247 78.3271 37.9503 78.2045 37.902C78.0819 37.8536 77.9503 37.8325 77.8187 37.84H77.4687V39.88Z" fill="#2C3847"/>
<path d="M82.1987 40.48V37.24H82.9887V40.48H82.1987Z" fill="#2C3847"/>
<path d="M86.0787 40.03C85.7719 39.7098 85.6006 39.2835 85.6006 38.84C85.6006 38.3966 85.7719 37.9702 86.0787 37.65C86.2354 37.4994 86.4203 37.3812 86.6228 37.3023C86.8253 37.2234 87.0414 37.1852 87.2587 37.19C87.4777 37.1831 87.6958 37.221 87.8997 37.3014C88.1035 37.3817 88.2888 37.5029 88.4442 37.6573C88.5996 37.8118 88.7218 37.9964 88.8034 38.1998C88.885 38.4031 88.9242 38.621 88.9187 38.84C88.9258 39.0608 88.8867 39.2807 88.8041 39.4856C88.7214 39.6905 88.597 39.8759 88.4387 40.03C88.2835 40.1834 88.099 40.304 87.8964 40.3847C87.6937 40.4654 87.4768 40.5046 87.2587 40.5C86.8186 40.506 86.3942 40.3369 86.0787 40.03ZM87.8787 39.52C88.0279 39.3247 88.1087 39.0858 88.1087 38.84C88.1087 38.5943 88.0279 38.3553 87.8787 38.16C87.7126 37.9988 87.4902 37.9086 87.2587 37.9086C87.0272 37.9086 86.8048 37.9988 86.6387 38.16C86.4828 38.3524 86.3977 38.5924 86.3977 38.84C86.3977 39.0876 86.4828 39.3277 86.6387 39.52C86.8048 39.6813 87.0272 39.7715 87.2587 39.7715C87.4902 39.7715 87.7126 39.6813 87.8787 39.52Z" fill="#2C3847"/>
</svg>
