<svg width="128" height="66" viewBox="0 0 128 66" fill="none" xmlns="http://www.w3.org/2000/svg">
<path d="M0.629974 59.0811L0.22998 59.291L0.309967 59.421L0.629974 59.0811Z" fill="#FD8D55"/>
<path d="M0.130005 57.1812L0 57.2512C0.0348967 57.277 0.062485 57.3114 0.0800171 57.3511L0.130005 57.1812Z" fill="#FD8D55"/>
<path d="M0.310019 59.4313C0.697612 59.8813 0.974982 60.4154 1.12005 60.9913L0.240042 61.4413C0.170042 61.8413 0.540024 62.0113 0.690024 62.2913C0.470024 62.4113 0.250038 62.5213 0.330038 62.6613C0.380038 63.1113 0.740043 63.2313 1.21004 63.1013C1.32004 61.0213 3.43002 59.2013 0.310019 59.4313Z" fill="#FD8D55"/>
<path d="M1.46998 57.3813L0.309973 57.9813C0.294697 58.3653 0.419038 58.7419 0.659979 59.0413C1.08532 58.5783 1.36676 58.0016 1.46998 57.3813Z" fill="#FD8D55"/>
<path d="M90.42 10.0112C90.37 9.93123 90.37 9.87124 90.64 9.89124L90.42 10.0112C90.42 10.1012 90.53 10.2112 90.42 10.3112C91.154 9.69429 91.9328 9.13276 92.75 8.63126C92.75 8.42126 92.82 8.21123 92.84 8.01123C90.74 9.22123 88.6 10.3412 87.24 12.0112C88.52 11.3612 89.24 10.6712 90.42 10.0112Z" fill="#FD8D55"/>
<path d="M92.6001 7.07115L92.81 6.95116C92.55 6.93116 92.5501 6.98115 92.6001 7.07115Z" fill="#FD8D55"/>
<path d="M56.08 30.2712C54.9057 31.111 53.8641 32.1223 52.99 33.2712C55.27 31.5612 57.72 30.0212 59.34 28.4912C58.27 29.0912 57.18 29.7412 56.08 30.2712Z" fill="#FD8D55"/>
<path d="M48.14 38.1913C49.7037 37.6352 51.0865 36.6638 52.14 35.3813C50.9 36.1913 49.66 37.0013 48.42 37.7813C48.31 37.9213 48.21 38.0513 48.14 38.1913Z" fill="#FD8D55"/>
<path d="M49.49 36.3512C50.8526 35.5713 52.0432 34.5236 52.99 33.2712C51.7259 34.1816 50.5537 35.2131 49.49 36.3512Z" fill="#FD8D55"/>
<path d="M72.3401 7.82132C72.8134 7.22244 73.3461 6.67299 73.9301 6.18134C73.9301 5.91134 74.05 5.56133 74.16 5.11133L73.9901 5.21133C73.1001 5.99133 72.19 6.76134 71.26 7.53134C70.9324 7.90531 70.6474 8.31449 70.41 8.75134C71.06 8.45134 71.7001 8.15132 72.3401 7.82132Z" fill="#FD8D55"/>
<path d="M73.9301 6.18115C73.5401 8.55115 75.1701 5.31115 73.9301 6.18115V6.18115Z" fill="#FD8D55"/>
<path d="M72.22 18.4011L72.07 18.4811L71.6801 18.8111L72.22 18.4011Z" fill="#FD8D55"/>
<path d="M57.92 20.7411C58.76 20.2311 59.57 19.6811 60.35 19.1011C58.7142 20.0671 57.1711 21.1818 55.74 22.4311C55.95 22.3211 56.25 22.3411 56.47 22.2311C56.8092 21.6121 57.3104 21.097 57.92 20.7411Z" fill="#FD8D55"/>
<path d="M78.36 13.5112C76.16 15.1112 74.06 16.7912 72.07 18.5112C67.6478 20.7397 63.5445 23.5515 59.87 26.8712C56.96 29.8712 50.68 32.7612 48.36 36.8712C48.7496 36.7435 49.1276 36.5829 49.49 36.3912C49.0883 36.8399 48.7206 37.3178 48.39 37.8212C42.86 41.3512 37.39 44.6212 31.44 47.7212C30.56 48.1812 30.12 48.9512 29.25 49.4012L26.7 50.8212C26.7152 50.8573 26.7439 50.886 26.78 50.9012C23.27 52.9712 19.86 55.1012 16.37 57.5312C14.69 58.5812 12.87 59.3612 11.12 60.2812C10.46 60.6212 10.12 60.0612 9.65001 60.1412C7.6607 60.2468 5.69387 60.6133 3.8 61.2312L3.58 60.8012C3.3413 60.989 3.07012 61.1313 2.77998 61.2212C2.88998 59.1412 4.99999 57.3112 1.87999 57.5512C1.98999 57.4312 2.09999 57.3212 2.18999 57.2112H2.24C2.66669 56.7503 2.94534 56.1721 3.03999 55.5512L1.89 56.1512C1.87317 55.9239 1.79353 55.7058 1.65999 55.5212C1.65516 55.4646 1.65516 55.4077 1.65999 55.3512L1.96999 55.1912C1.98527 55.0583 1.98527 54.9241 1.96999 54.7912C2.64999 53.6612 4.07001 52.5112 3.46001 52.0912C3.07001 51.9112 2.45999 52.5512 1.72999 53.1712C1.65028 53.1615 1.56971 53.1615 1.49 53.1712C2.49 52.4512 0.970002 52.1712 1.55 51.6912C2.43 51.2312 3.23 50.6312 4.11 50.1712C7.48825 48.4355 10.7516 46.4848 13.88 44.3312L14.32 44.0412C15.8778 43.0076 17.5204 42.1077 19.23 41.3512C19.1804 41.5019 19.1203 41.6489 19.05 41.7912C20.4606 41.2121 21.8022 40.4776 23.05 39.6012C26.0336 37.2104 29.1739 35.0222 32.45 33.0512C36.06 31.0512 39.45 28.8712 42.92 26.4412C41.5824 27.5773 40.1655 28.6166 38.68 29.5512C37.97 29.9012 37.27 30.2612 36.61 30.6512C37.3205 30.3246 38.0117 29.9573 38.68 29.5512C41.41 28.2012 44.27 26.9112 45.68 24.5512C45.96 24.5512 46.04 24.6912 46.25 24.5512C47.79 23.7512 49.39 23.0912 50.41 21.8412C50.34 21.6912 51 21.3512 50.63 21.1812C51.87 20.3512 53.4 19.5512 54.57 18.5812C55.1074 18.1348 55.5611 17.5965 55.91 16.9912C60.21 13.7712 64.46 10.5712 69.15 7.20117C70.34 6.41117 71.78 5.64119 73.06 4.97119C71.43 6.43119 69.7 7.83118 67.93 9.21118C66.0426 9.90617 64.3584 11.061 63.03 12.5712C62.75 12.8912 62.47 13.2012 62.18 13.5012C64.13 12.0812 66.06 10.6612 67.93 9.21118C69.08 8.68118 70.28 8.21119 71.42 7.59119L71.36 7.66119C70.57 8.30119 69.77 8.94117 68.96 9.57117C67.2845 10.2244 65.755 11.2033 64.46 12.4512C64.316 12.602 64.1824 12.7624 64.06 12.9312C63.78 13.2512 63.5 13.5612 63.21 13.8612C64.41 12.9912 65.61 12.1112 66.78 11.2312C67.51 10.6812 68.24 10.1312 68.96 9.57117L70.51 8.8812C70.4669 8.93892 70.4332 9.003 70.41 9.07117C70.04 9.44117 69.68 11.7412 70.56 11.8212C73.91 10.0212 78.29 6.87117 78.37 7.01117C78.88 7.47117 73.49 11.2312 73.79 11.2612C74.09 11.2912 74.5 11.0412 74.84 10.9212C74.6 11.1912 74.36 11.4712 74.15 11.7512C73.57 12.2312 72.62 12.5512 72.33 13.0612C71.24 14.7112 69.33 15.3512 67.88 16.8312C67.01 17.8312 65.99 19.0812 64.98 20.3412C65.12 20.6212 64.39 20.8212 64.76 20.9912C63.52 21.6412 62.09 22.3912 62 23.4912L61.92 23.5612C61.8064 23.6394 61.7082 23.7376 61.63 23.8512C59.5 24.7812 58.48 26.3212 56.9 27.8512C56.2885 28.2694 55.6541 28.6533 55 29.0012C55.5451 28.8035 56.06 28.5309 56.53 28.1912L56.9 27.8512C58.46 26.7912 59.85 25.5912 61.27 24.4512C61.3791 24.2481 61.4993 24.0511 61.63 23.8612L61.99 23.7112C61.985 23.6413 61.985 23.5711 61.99 23.5012C63.29 22.3012 64.92 21.2612 65.99 20.1712C68.3005 18.537 70.7858 17.1652 73.4 16.0812C72.29 16.9612 71.21 17.8612 70.16 18.7512C71.53 17.7512 72.81 16.7512 74.04 15.7512L74.68 15.4312L75.99 14.7412C75.55 14.8912 75.12 15.0612 74.69 15.2312C75.42 14.6412 76.14 14.0512 76.84 13.4412C80.9055 10.4216 85.2601 7.8122 89.84 5.65118C89.84 5.87118 89.84 6.10117 89.84 6.32117C87.74 7.53117 85.6 8.65117 84.24 10.3212C85.48 9.68117 86.24 8.98117 87.38 8.32117C87.38 8.40117 87.49 8.51118 87.38 8.61118C88.1117 7.99434 88.8908 7.43597 89.71 6.94119C89.63 7.45119 89.51 7.94119 89.39 8.50119C88.8979 9.00377 88.3271 9.42261 87.7 9.74118C84.98 11.4712 82.27 12.8012 79.7 14.6112C77.17 15.8712 74.7 17.1212 72.23 18.4212C74.43 16.7412 76.45 15.1612 78.36 13.5112ZM6.80998 55.7412C6.99998 55.5612 7.2 55.3712 7.39 55.1712H7.24C7.13431 55.2332 7.04192 55.3155 6.96812 55.4133C6.89433 55.5111 6.84057 55.6225 6.80998 55.7412ZM12 53.1912C10.1362 54.0186 8.37994 55.0696 6.77 56.3212C6.76571 56.3611 6.76571 56.4013 6.77 56.4412C8.60531 55.4942 10.3552 54.3901 12 53.1412V53.1912ZM19.55 52.9812H19.49V53.0412L19.55 52.9812ZM43.87 34.5012C42.49 36.1212 40.3 37.2712 38.26 38.7012C37.6 39.0512 37.26 39.9612 36.37 40.4112C35.37 41.1312 34.84 41.7612 34.03 42.3612L34.84 42.2912C33.23 42.9612 32.84 44.2912 31.12 44.7812C31.1536 44.9006 31.1505 45.0273 31.1113 45.145C31.0721 45.2626 30.9985 45.3658 30.9 45.4412C29.9 46.1512 28.64 46.4412 27.9 47.1912C26.8997 47.7783 25.9498 48.4472 25.06 49.1912C24.84 49.3112 24.62 49.9612 24.26 50.3412C23.9 50.7212 23.26 50.9912 22.73 51.3412L22.85 51.4212C23.2985 51.2023 23.7211 50.9339 24.11 50.6212C25.28 49.6212 26.66 48.5612 27.9 47.7312C31.04 45.7312 33.81 43.5612 36.58 41.3912C37.16 40.9012 37.67 40.2812 38.26 39.7912C39.93 38.1912 42.41 37.0712 43.21 35.3912C43.36 35.0812 43.8 34.8512 43.87 34.4512V34.5012ZM43.11 27.0912C41.1267 28.894 38.8853 30.3905 36.46 31.5312C34.7 32.4512 30.11 35.9412 31.88 37.1812C32.43 32.9112 46.33 29.4812 43.11 27.0412V27.0912ZM60.02 14.9212C59.2244 15.6626 58.3412 16.304 57.39 16.8312L60.02 14.9212ZM53.7 25.5212C56.03 23.0412 59.02 21.2912 61.57 19.2312C63.57 17.6612 66.32 17.1112 67.77 15.0812C67.7 14.9412 67.63 14.8012 67.55 14.6612L67.41 14.9212C66.59 15.2412 65.86 15.3312 65.15 15.5512L65.24 15.4612L65.06 15.5812C64.5549 15.7375 64.0859 15.9924 63.68 16.3312L63.07 16.9012C60.4035 18.4443 57.941 20.3156 55.74 22.4712C54.42 23.7012 53.48 25.0912 52.17 26.3212C52.7148 26.1272 53.2298 25.8579 53.7 25.5212Z" fill="#FD8D55"/>
<path d="M74.14 15.2912C75 14.6212 75.86 13.9612 76.75 13.2912C77.4 12.7312 78.04 12.1612 78.67 11.5712C81.79 8.9712 86.03 7.07122 89.67 4.75122C89.5662 4.2706 89.3268 3.82981 88.9801 3.4812C84.6401 5.1712 80.9801 8.0712 76.7201 9.9812L76.64 10.0812C75.34 11.8512 72.3401 13.0812 70.5201 14.9112C68.7 16.7412 66.73 18.3312 64.92 20.1912C68.04 18.5512 70.89 16.6712 74.14 15.2912Z" fill="#FD8D55"/>
<path d="M52.11 35.3812C52.93 34.8512 53.74 34.3112 54.56 33.7612C56.81 32.1612 58.73 30.6112 60.66 28.9512C59.0933 29.8712 57.4933 30.7612 55.86 31.6212C54.4431 32.6962 53.1812 33.9615 52.11 35.3812Z" fill="#FD8D55"/>
<path d="M62.22 27.5912C61.69 28.0612 61.22 28.5112 60.66 28.9512C62.99 27.5912 65.27 26.1812 67.54 24.7612C71.12 22.1512 74.75 19.6112 78.25 16.8312C78.65 16.5212 79.06 16.2312 79.47 15.9512C72.15 19.5812 64.85 23.1912 59.64 28.1912C59.55 28.2912 59.44 28.3912 59.34 28.4912C62.21 26.8612 65 25.1412 67.76 23.4112C65.89 24.7412 64.04 26.1512 62.22 27.5912Z" fill="#FD8D55"/>
<path d="M73.31 15.9411L73.95 15.6211L74.6 15.1011L74.14 15.2911L73.31 15.9411Z" fill="#FD8D55"/>
<path d="M65.15 15.5513H65.06L63.06 16.8713C62.21 17.6413 61.3 18.3913 60.34 19.1113C62.0774 18.1173 63.6918 16.9224 65.15 15.5513Z" fill="#FD8D55"/>
<path d="M57.3 15.3413L56.4301 15.8013L56.16 16.2613L56.8 15.9713L57.3 15.3413Z" fill="#FD8D55"/>
<path d="M45.58 24.4012C49.17 21.8112 52.5 19.3312 55.81 16.8612C55.93 16.6712 56.05 16.4712 56.16 16.2612C53.6988 17.3625 51.4641 18.9122 49.57 20.8312C49.21 21.2012 48.78 21.9712 48.34 22.2012C46.4127 23.4517 44.5749 24.8351 42.84 26.3412C43.72 25.7312 44.6 25.1012 45.5 24.4512L45.58 24.4012Z" fill="#FD8D55"/>
<path d="M126.8 4.16104L127.24 3.93103C127.217 3.88229 127.19 3.83545 127.16 3.79102L126.8 4.16104Z" fill="#FD8D55"/>
<path d="M127.26 6.09113L127.4 6.01111C127.365 5.9827 127.335 5.94898 127.31 5.91113C127.298 5.97233 127.281 6.0325 127.26 6.09113Z" fill="#FD8D55"/>
<path d="M127.16 3.79116C126.767 3.34491 126.489 2.80938 126.35 2.23116L127.35 1.71117C127.45 1.30117 127.06 1.15118 126.91 0.871178C127.15 0.741178 127.4 0.611184 127.32 0.471184C127.32 0.0111841 126.89 -0.0888403 126.32 0.0711597C126.13 2.21116 123.7 4.19116 127.16 3.79116Z" fill="#FD8D55"/>
<path d="M125.8 5.95117L127.09 5.27118C127.09 4.88118 127.09 4.46117 126.76 4.20117C126.283 4.68366 125.951 5.28978 125.8 5.95117Z" fill="#FD8D55"/>
<path d="M25.92 59.3712C25.92 59.4512 25.9201 59.5112 25.6801 59.5012L25.92 59.3712C25.92 59.2812 25.81 59.1712 25.92 59.0612C25.0874 59.7428 24.2049 60.3611 23.28 60.9111C23.23 61.1311 23.19 61.3412 23.16 61.5612C25.52 60.2012 27.93 58.9411 29.5 57.1511C28.07 57.8811 27.25 58.6312 25.92 59.3712Z" fill="#FD8D55"/>
<path d="M23.39 62.5112L23.15 62.6412C23.44 62.6512 23.44 62.5912 23.39 62.5112Z" fill="#FD8D55"/>
<path d="M64.57 36.7412C65.8886 35.8229 67.0762 34.7296 68.1 33.4912C65.52 35.3712 62.76 37.0812 60.91 38.7412C62.12 38.0512 63.34 37.3812 64.57 36.7412Z" fill="#FD8D55"/>
<path d="M73.7 28.1711C71.9723 28.8222 70.4282 29.8825 69.2 31.2611L73.4 28.5912C73.47 28.4512 73.58 28.3111 73.7 28.1711Z" fill="#FD8D55"/>
<path d="M72.1 30.1211C70.5769 30.9935 69.2222 32.1314 68.1 33.4811C69.531 32.4828 70.8696 31.3583 72.1 30.1211Z" fill="#FD8D55"/>
<path d="M45.7 60.6414C45.1585 61.2983 44.5446 61.892 43.87 62.4113C43.81 62.7013 43.71 63.0614 43.57 63.5214L43.77 63.4213C44.77 62.5613 45.77 61.7214 46.87 60.8914C47.2428 60.4898 47.5776 60.0546 47.87 59.5913C47.09 59.9313 46.36 60.2814 45.7 60.6414Z" fill="#FD8D55"/>
<path d="M43.82 62.4112C44.37 59.9712 42.43 63.4112 43.82 62.4112V62.4112Z" fill="#FD8D55"/>
<path d="M46.3 49.741L46.47 49.651L46.91 49.291L46.3 49.741Z" fill="#FD8D55"/>
<path d="M62.09 46.5612C61.15 47.1312 60.23 47.7412 59.35 48.3812C61.1922 47.3052 62.9416 46.0776 64.58 44.7112C64.33 44.8412 64.01 44.8312 63.76 44.9612C63.3456 45.6256 62.7715 46.1756 62.09 46.5612Z" fill="#FD8D55"/>
<path d="M39.33 55.1311C41.81 53.3611 44.19 51.5311 46.47 49.6911C51.4167 47.1739 56.0432 44.0717 60.25 40.451C63.59 37.2411 70.62 33.901 73.36 29.571C72.9283 29.7264 72.5074 29.9101 72.1 30.1211C72.5621 29.6446 72.9868 29.133 73.37 28.5911C79.61 24.6811 85.82 21.0211 92.45 17.5311C93.45 17.0111 93.95 16.1911 94.93 15.6811L97.84 14.041C97.8337 14.0236 97.823 14.008 97.809 13.9958C97.795 13.9835 97.7782 13.975 97.76 13.9711C101.76 11.6511 105.55 9.28104 109.5 6.60104C111.39 5.42104 113.43 4.53106 115.4 3.49106C116.13 3.10106 116.4 3.67106 117 3.55106C119.206 3.33975 121.378 2.86299 123.47 2.13107L123.69 2.55106C123.96 2.34857 124.26 2.18995 124.58 2.08105C124.36 4.22105 121.97 6.21106 125.4 5.80106C125.26 5.92106 125.15 6.05107 125.04 6.16107H124.99C124.496 6.64036 124.149 7.25102 123.99 7.92105L125.29 7.23105C125.292 7.46563 125.369 7.69341 125.51 7.88107C125.51 7.93107 125.51 7.99106 125.46 8.05106L125.1 8.23105C125.084 8.36388 125.084 8.49824 125.1 8.63107C124.29 9.84107 122.68 11.0911 123.33 11.4911C123.75 11.6611 124.44 10.961 125.28 10.291C125.366 10.3014 125.454 10.3014 125.54 10.291C124.38 11.081 126.06 11.2911 125.4 11.8111C124.4 12.3311 123.51 12.9911 122.52 13.5011C118.733 15.4684 115.061 17.6486 111.52 20.0311L111.03 20.351C109.271 21.4936 107.426 22.4967 105.51 23.351C105.58 23.191 105.66 23.0311 105.74 22.8811C104.173 23.5497 102.678 24.3773 101.28 25.351C97.9042 28.0236 94.3712 30.4913 90.7 32.7411C86.64 35.0211 82.83 37.4111 78.9 40.0911C80.4265 38.8481 82.0296 37.7025 83.7 36.6611C84.5 36.2611 85.28 35.8611 86.03 35.4311C85.2329 35.801 84.4552 36.2116 83.7 36.6611C80.64 38.2011 77.44 39.661 75.81 42.231C75.49 42.231 75.42 42.101 75.17 42.231C73.45 43.141 71.66 43.901 70.48 45.231C70.55 45.371 69.82 45.7611 70.21 45.9111C68.81 46.8311 67.09 47.741 65.76 48.791C65.1547 49.271 64.6341 49.849 64.22 50.5011C59.34 54.0311 54.53 57.5011 49.22 61.2611C47.88 62.1411 46.22 63.0011 44.82 63.7611C46.68 62.1811 48.64 60.6411 50.65 59.1311C52.7487 58.32 54.6409 57.0527 56.19 55.4211C56.51 55.0811 56.83 54.7511 57.19 54.4211C54.99 55.9811 52.8 57.5511 50.68 59.1311C49.39 59.7411 48.05 60.321 46.78 60.981L46.84 60.911L49.57 58.8111C51.439 58.0573 53.1592 56.9771 54.65 55.6211C54.81 55.4511 54.97 55.281 55.11 55.101C55.43 54.761 55.75 54.431 56.11 54.101C54.75 55.101 53.4 56.0311 52.11 57.0011L49.64 58.8111L47.91 59.6111C47.9558 59.5481 47.996 59.4811 48.03 59.411C48.45 59.011 48.95 56.631 48.03 56.591C44.26 58.591 39.31 62.0911 39.23 61.9511C38.69 61.5111 44.79 57.351 44.47 57.341L43.29 57.7511C43.57 57.4511 43.85 57.1611 44.09 56.8611C44.75 56.3311 45.81 55.951 46.15 55.411C47.43 53.661 49.54 52.9011 51.21 51.3011C52.21 50.2311 53.39 48.8911 54.57 47.5511C54.42 47.2711 55.23 47.0211 54.84 46.8611C56.23 46.1311 57.84 45.2911 57.99 44.1511L58.08 44.071C58.2072 43.9876 58.3188 43.8828 58.41 43.761C60.79 42.691 61.99 41.0611 63.79 39.4111C64.48 38.9611 65.18 38.5311 65.94 38.1311C65.328 38.3619 64.747 38.6675 64.21 39.041L63.79 39.4111C62.03 40.5811 60.45 41.8911 58.84 43.1311C58.74 43.2911 58.57 43.551 58.41 43.761L58 43.9311C58.0052 44.0043 58.0052 44.0778 58 44.1511C56.52 45.4511 54.67 46.6111 53.45 47.7811C50.8343 49.5894 48.0437 51.1304 45.12 52.3811C46.38 51.3811 47.61 50.4411 48.8 49.4611C47.25 50.5911 45.8 51.6711 44.4 52.7411L43.69 53.1111L42.21 53.8811C42.71 53.7011 43.21 53.5111 43.66 53.3111C42.83 53.9611 42.01 54.6111 41.22 55.3111C36.6187 58.6266 31.7368 61.5343 26.63 64.0011C26.6385 63.7698 26.6619 63.5393 26.7 63.3111C29.06 61.9611 31.46 60.691 33.03 58.901C31.64 59.631 30.81 60.3811 29.49 61.1211C29.49 61.0411 29.37 60.9311 29.49 60.8211C28.6512 61.4915 27.7693 62.1061 26.85 62.661C26.96 62.141 27.12 61.591 27.28 61.041C27.7881 60.4746 28.3739 59.9831 29.02 59.5811C32.08 57.6611 35.13 56.141 38.09 54.151C40.92 52.731 43.74 51.311 46.47 49.841C43.79 51.611 41.49 53.3411 39.33 55.1311ZM119.85 7.98105C119.63 8.17105 119.41 8.38106 119.19 8.59106H119.36C119.587 8.44819 119.759 8.23342 119.85 7.98105ZM114.03 10.8711C116.119 9.92905 118.098 8.7586 119.93 7.38107C119.937 7.34139 119.937 7.30073 119.93 7.26105C117.875 8.31411 115.903 9.52089 114.03 10.8711ZM105.75 11.4911H105.81C105.812 11.4678 105.812 11.4443 105.81 11.4211L105.75 11.4911ZM78.17 31.7411C79.76 30.0011 82.17 28.7411 84.53 27.1311C85.27 26.7411 85.71 25.7911 86.69 25.2711C87.85 24.4811 88.43 23.8111 89.34 23.1511L88.45 23.261C90.25 22.491 90.79 21.1211 92.66 20.5011C92.6291 20.3747 92.6375 20.242 92.6839 20.1205C92.7303 19.999 92.8127 19.8945 92.92 19.821C94.08 19.031 95.46 18.661 96.29 17.821C97.4163 17.1572 98.4924 16.4119 99.51 15.5911C99.76 15.4611 100.02 14.7711 100.44 14.3711C100.86 13.9711 101.59 13.651 102.17 13.291L102.04 13.2211C101.537 13.4685 101.058 13.7632 100.61 14.101C99.29 15.161 97.71 16.3511 96.31 17.2711C92.78 19.5011 89.63 21.8711 86.49 24.2711C85.83 24.8011 85.24 25.4711 84.58 26.0011C82.66 27.7311 79.88 29.0011 78.93 30.7811C78.76 31.1011 78.27 31.3611 78.17 31.7411ZM78.65 39.321C80.9224 37.3503 83.4481 35.6923 86.16 34.3911C88.16 33.3911 93.33 29.5311 91.45 28.3911C90.64 32.7411 75.23 37.011 78.7 39.351L78.65 39.321ZM59.51 52.7411C60.4295 51.9296 61.4355 51.2221 62.51 50.6311L59.51 52.7411ZM66.95 41.4711C64.28 44.1411 60.95 46.0911 58.01 48.3411C55.78 50.0611 52.7 50.7811 51.01 52.9311L51.24 53.3611L51.41 53.091C52.31 52.721 53.13 52.5811 53.91 52.3111L53.81 52.4211L54.01 52.281C54.5724 52.0951 55.0972 51.8107 55.56 51.4411L56.27 50.8211C59.2576 49.0943 62.0446 47.0417 64.58 44.701C66.07 43.371 67.18 41.8911 68.67 40.5611C68.0617 40.7973 67.4842 41.1062 66.95 41.481V41.4711Z" fill="#FD8D55"/>
<path d="M44.04 53.0713C43.04 53.8013 42.04 54.5313 41.04 55.2513C40.3 55.8613 39.57 56.4812 38.85 57.1212C35.31 59.9612 30.56 62.1213 26.5 64.7013C26.5826 65.1895 26.8254 65.6362 27.19 65.9712C32.03 63.9712 36.24 60.8313 40.96 58.6413L41.04 58.5412C42.57 56.6512 45.91 55.2513 47.99 53.2513C50.07 51.2513 52.32 49.5312 54.4 47.5312C50.89 49.4013 47.7 51.4813 44.04 53.0713Z" fill="#FD8D55"/>
<path d="M69.17 31.2612L66.41 33.0612C63.87 34.8212 61.68 36.5112 59.49 38.3212C61.26 37.3212 63.05 36.3212 64.88 35.3212C66.4757 34.1544 67.9171 32.7903 69.17 31.2612Z" fill="#FD8D55"/>
<path d="M57.7 39.8013L59.48 38.3213C56.85 39.8413 54.28 41.4113 51.73 43.0013C47.67 45.8713 43.57 48.6713 39.59 51.7213C39.14 52.0513 38.68 52.3713 38.22 52.7213C46.42 48.6013 54.6 44.5013 60.55 39.0913L60.9 38.7713C57.67 40.6013 54.54 42.5113 51.42 44.4413C53.54 42.9013 55.7 41.3913 57.7 39.8013Z" fill="#FD8D55"/>
<path d="M44.98 52.3613L44.26 52.7213L43.52 53.2913L44.04 53.0714L44.98 52.3613Z" fill="#FD8D55"/>
<path d="M53.91 52.3211H54.01C54.75 51.8311 55.5001 51.3211 56.2701 50.8611C57.2701 50.0211 58.27 49.2011 59.35 48.4111C57.4075 49.5247 55.5846 50.8349 53.91 52.3211Z" fill="#FD8D55"/>
<path d="M62.51 52.1213L63.51 51.6013L63.83 51.1113L63.12 51.4514L62.51 52.1213Z" fill="#FD8D55"/>
<path d="M75.82 42.1913C71.75 45.0413 67.97 47.7613 64.23 50.4813C64.08 50.6813 63.94 50.9013 63.81 51.1113C66.552 49.8668 69.0693 48.1773 71.26 46.1113C71.67 45.7113 72.19 44.8913 72.68 44.6313C74.8481 43.2475 76.9287 41.7313 78.91 40.0913C77.91 40.7613 76.91 41.4513 75.91 42.1713L75.82 42.1913Z" fill="#FD8D55"/>
<path d="M26.2401 34.2514V41.9414H21.4301V22.1713H29.23C31.1758 22.0557 33.0914 22.6931 34.58 23.9513C35.1866 24.4861 35.6711 25.1451 36.0007 25.8836C36.3302 26.622 36.4971 27.4227 36.4901 28.2313C36.4844 29.4207 36.1373 30.5835 35.4901 31.5813C34.6817 32.7502 33.4653 33.5742 32.08 33.8913L36.92 41.9414H31.29L26.85 34.2514H26.2401ZM26.2401 25.8313V30.5914H29.2401C29.5578 30.6098 29.8759 30.5614 30.1739 30.4495C30.4718 30.3375 30.743 30.1645 30.97 29.9414C31.1833 29.7145 31.349 29.4471 31.4572 29.1551C31.5654 28.8631 31.614 28.5524 31.6 28.2413C31.6131 27.9241 31.5623 27.6076 31.4506 27.3104C31.339 27.0132 31.1687 26.7415 30.95 26.5113C30.7287 26.2844 30.462 26.1066 30.1674 25.9894C29.8728 25.8723 29.5568 25.8184 29.2401 25.8313H26.2401Z" fill="#2C3847"/>
<path d="M51.92 22.1213V25.7413H44.7701V29.9913H51.07V33.7413H44.7701V38.3313H51.92V41.9913H39.92V22.1213H51.92Z" fill="#2C3847"/>
<path d="M54.42 25.8313V22.1713H70.0201V25.8313H64.6201V41.9413H59.8V25.8313H54.42Z" fill="#2C3847"/>
<path d="M77.43 34.2514V41.9414H72.61V22.1713H80.41C82.3557 22.0557 84.2714 22.6931 85.76 23.9513C86.3681 24.4848 86.8537 25.1436 87.1834 25.8823C87.5131 26.6211 87.679 27.4224 87.67 28.2313C87.6694 29.4215 87.3219 30.5857 86.67 31.5813C85.8654 32.7495 84.6524 33.5737 83.27 33.8913L88.11 41.9414H82.48L78.03 34.2514H77.43ZM77.43 25.8313V30.5914H80.43C80.7477 30.6098 81.0658 30.5614 81.3638 30.4495C81.6618 30.3375 81.933 30.1645 82.16 29.9414C82.3746 29.715 82.5417 29.4479 82.6516 29.156C82.7616 28.864 82.812 28.5531 82.8 28.2413C82.8108 27.9244 82.7589 27.6084 82.6474 27.3116C82.5358 27.0147 82.3668 26.7427 82.15 26.5113C81.9267 26.2841 81.6583 26.1062 81.362 25.9891C81.0658 25.872 80.7483 25.8182 80.43 25.8313H77.43Z" fill="#2C3847"/>
<path d="M92.92 39.2613C91.0341 37.3171 89.9794 34.7149 89.9794 32.0063C89.9794 29.2977 91.0341 26.6955 92.92 24.7513C93.8707 23.8184 94.9983 23.0849 96.2365 22.5938C97.4746 22.1026 98.7983 21.8638 100.13 21.8913C101.786 21.9118 103.411 22.338 104.864 23.1324C106.317 23.9268 107.553 25.0652 108.464 26.4481C109.375 27.8309 109.933 29.416 110.089 31.0645C110.245 32.713 109.995 34.3747 109.36 35.904C108.726 37.4334 107.725 38.7839 106.448 39.8371C105.17 40.8904 103.654 41.6144 102.031 41.9457C100.409 42.277 98.7299 42.2055 97.1415 41.7375C95.5531 41.2696 94.1036 40.4193 92.92 39.2613ZM103.92 36.1413C104.846 34.96 105.349 33.5023 105.349 32.0013C105.349 30.5003 104.846 29.0426 103.92 27.8613C102.905 26.867 101.541 26.3101 100.12 26.3101C98.6992 26.3101 97.3349 26.867 96.32 27.8613C95.4005 29.0454 94.9013 30.502 94.9013 32.0013C94.9013 33.5006 95.4005 34.9571 96.32 36.1413C97.3349 37.1356 98.6992 37.6925 100.12 37.6925C101.541 37.6925 102.905 37.1356 103.92 36.1413Z" fill="#2C3847"/>
<path d="M50.5 9.74121V7.74121H59.27V9.74121H56.27V18.7912H53.56V9.74121H50.5Z" fill="#2C3847"/>
<path d="M67.7 7.74121H70.4V18.8512H67.7V14.2512H63.41V18.8512H60.7V7.74121H63.41V12.1912H67.7V7.74121Z" fill="#2C3847"/>
<path d="M79.38 7.68115V9.74115H75.38V12.1312H78.92V14.1812H75.38V16.7411H79.38V18.7911H72.7V7.68115H79.38Z" fill="#2C3847"/>
<path d="M35.87 51.9712C35.7069 51.9656 35.5472 52.0188 35.42 52.1212C35.3626 52.1724 35.3175 52.2358 35.2881 52.3068C35.2587 52.3778 35.2456 52.4545 35.25 52.5312C35.2458 52.6115 35.2579 52.6919 35.2853 52.7675C35.3128 52.8431 35.3552 52.9123 35.41 52.9712C35.5293 53.0853 35.6729 53.1707 35.83 53.2212C36.0169 53.2879 36.2072 53.3447 36.4 53.3913C36.6135 53.4426 36.8238 53.506 37.03 53.5813C37.2319 53.6597 37.4261 53.7568 37.61 53.8712C37.7891 53.9895 37.9313 54.1558 38.02 54.3512C38.138 54.5797 38.1964 54.8342 38.19 55.0912C38.1887 55.3387 38.1324 55.5829 38.0252 55.806C37.918 56.0291 37.7625 56.2256 37.57 56.3812C37.1159 56.7563 36.5384 56.9488 35.95 56.9212C35.3727 56.9497 34.8036 56.7765 34.34 56.4312C34.1343 56.2694 33.9705 56.0604 33.8626 55.822C33.7547 55.5835 33.7058 55.3226 33.72 55.0612H35.26C35.2697 55.1981 35.3162 55.3298 35.3947 55.4424C35.4732 55.555 35.5807 55.6441 35.7058 55.7005C35.8309 55.7569 35.9689 55.7784 36.1052 55.7627C36.2415 55.747 36.371 55.6946 36.48 55.6112C36.5389 55.5586 36.5855 55.4938 36.6166 55.4212C36.6477 55.3487 36.6625 55.2702 36.66 55.1912C36.6632 55.114 36.6507 55.037 36.6232 54.9648C36.5957 54.8926 36.5537 54.8268 36.5 54.7713C36.3781 54.6607 36.2353 54.5757 36.08 54.5213C35.8932 54.4545 35.7029 54.3977 35.51 54.3512C35.29 54.2912 35.08 54.2312 34.87 54.1512C34.6722 54.0707 34.4816 53.9737 34.3 53.8612C34.121 53.7444 33.976 53.5823 33.88 53.3913C33.7722 53.1631 33.7175 52.9135 33.72 52.6612C33.7114 52.4064 33.7631 52.1531 33.8708 51.922C33.9785 51.6909 34.1393 51.4885 34.34 51.3313C34.7926 50.9861 35.3513 50.8093 35.92 50.8313C36.4696 50.8029 37.0136 50.9538 37.47 51.2613C37.6766 51.4246 37.8407 51.6352 37.9486 51.8755C38.0566 52.1157 38.1051 52.3784 38.09 52.6413H36.52C36.5133 52.4575 36.4384 52.2828 36.31 52.1512C36.2532 52.0923 36.1847 52.046 36.109 52.015C36.0332 51.984 35.9518 51.9691 35.87 51.9712Z" fill="#2C3847"/>
<path d="M44.34 52.0112V50.9111H49.03V52.0112H47.41V56.8611H45.96V52.0112H44.34Z" fill="#2C3847"/>
<path d="M55.29 54.4611V50.9111H56.7V54.4611C56.6814 54.7573 56.7741 55.0498 56.96 55.2811C57.0604 55.3813 57.181 55.459 57.3138 55.509C57.4466 55.559 57.5884 55.5802 57.73 55.5712C57.8732 55.5817 58.017 55.5612 58.1516 55.5112C58.2862 55.4611 58.4084 55.3826 58.51 55.2811C58.704 55.0538 58.801 54.7593 58.78 54.4611V50.9111H60.23V54.4611C60.2449 54.9412 60.1161 55.4148 59.86 55.8212C59.6378 56.1828 59.3145 56.4714 58.93 56.6511C58.549 56.8322 58.1319 56.9245 57.71 56.9211C57.0651 56.9355 56.4392 56.703 55.96 56.2712C55.7255 56.0349 55.5444 55.751 55.4288 55.4388C55.3132 55.1266 55.2659 54.7932 55.29 54.4611Z" fill="#2C3847"/>
<path d="M69.0201 50.9112C69.874 50.8815 70.7072 51.1783 71.35 51.7412C71.6506 52.0089 71.8889 52.3392 72.0478 52.709C72.2068 53.0788 72.2826 53.4789 72.2701 53.8812C72.2821 54.2849 72.206 54.6864 72.0471 55.0577C71.8882 55.429 71.6504 55.7612 71.35 56.0312C70.7072 56.5941 69.874 56.8909 69.0201 56.8612H66.92V50.8612L69.0201 50.9112ZM68.3701 55.7612H69.0201C69.2606 55.7738 69.501 55.7347 69.7252 55.6468C69.9494 55.5588 70.1522 55.424 70.32 55.2512C70.6499 54.8776 70.8188 54.3888 70.79 53.8912C70.8182 53.3907 70.6495 52.899 70.32 52.5212C70.1522 52.3485 69.9494 52.2136 69.7252 52.1257C69.501 52.0377 69.2606 51.9987 69.0201 52.0112H68.3701V55.7612Z" fill="#2C3847"/>
<path d="M78.6 56.8612V50.8612H80.05V56.8612H78.6Z" fill="#2C3847"/>
<path d="M87.28 56.0512C86.7084 55.4696 86.3881 54.6867 86.3881 53.8712C86.3881 53.0557 86.7084 52.2728 87.28 51.6912C87.5647 51.4114 87.9024 51.1911 88.2733 51.0434C88.6442 50.8958 89.0409 50.8236 89.44 50.8312C89.8391 50.8236 90.2358 50.8958 90.6067 51.0434C90.9776 51.1911 91.3153 51.4114 91.6 51.6912C92.1646 52.2765 92.4801 53.058 92.4801 53.8712C92.4801 54.6844 92.1646 55.4659 91.6 56.0512C91.0191 56.6086 90.2451 56.9198 89.44 56.9198C88.6349 56.9198 87.861 56.6086 87.28 56.0512ZM90.58 55.1112C90.8761 54.7677 91.0299 54.3242 91.01 53.8712C91.0294 53.4152 90.8758 52.9688 90.58 52.6212C90.2713 52.3271 89.8613 52.1631 89.435 52.1631C89.0087 52.1631 88.5987 52.3271 88.29 52.6212C87.997 52.9697 87.8468 53.4164 87.87 53.8712C87.8464 54.323 87.9967 54.7667 88.29 55.1112C88.5951 55.4123 89.0064 55.5811 89.435 55.5811C89.8636 55.5811 90.275 55.4123 90.58 55.1112Z" fill="#2C3847"/>
</svg>
